<?xml version="1.0" standalone="no"?>
<!DOCTYPE svg PUBLIC "-//W3C//DTD SVG 1.1//EN" "http://www.w3.org/Graphics/SVG/1.1/DTD/svg11.dtd" >
<svg xmlns="http://www.w3.org/2000/svg" xmlns:xlink="http://www.w3.org/1999/xlink" version="1.1">
<metadata>
Created by FontForge 20170731 at Fri Jan 29 10:30:52 2016
 By Aleksey,,,
Copyright
</metadata>
<defs>
<font id="HealthsetGothicLight" horiz-adv-x="840" >
  <font-face 
    font-family="Healthset Gothic Light"
    font-weight="400"
    font-stretch="normal"
    units-per-em="1000"
    panose-1="2 2 6 3 2 1 1 2 1 1"
    ascent="800"
    descent="-200"
    x-height="460"
    cap-height="668"
    bbox="-25 -200 1066 824"
    underline-thickness="25"
    underline-position="-236"
    unicode-range="U+0020-FFE6"
  />
<missing-glyph horiz-adv-x="1000" 
d="M100 -100v800h800v-800h-800zM150 -50h700v700h-700v-700z" />
    <glyph glyph-name=".notdef" horiz-adv-x="1000" 
d="M100 -100v800h800v-800h-800zM150 -50h700v700h-700v-700z" />
    <glyph glyph-name="glyph1" horiz-adv-x="0" 
 />
    <glyph glyph-name="glyph2" horiz-adv-x="1000" 
 />
    <glyph glyph-name="space" unicode=" " horiz-adv-x="250" 
d="M0 0z" />
    <glyph glyph-name="exclam" unicode="!" horiz-adv-x="350" 
d="M182 165h-56q13 130 25 254.5t23 255.5h83zM103 55h79q-4 -25 -5.5 -42.5t-4.5 -40.5v-2h-80z" />
    <glyph glyph-name="quotedbl" unicode="&#x22;" horiz-adv-x="420" 
d="M98 760h84q-4 -63 -8.5 -120t-8.5 -120h-50zM238 760h84q-4 -63 -8.5 -120t-8.5 -120h-50z" />
    <glyph glyph-name="numbersign" unicode="#" horiz-adv-x="600" 
d="M143 198h-103v58h111l21 148h-102v58h110q6 51 13.5 104t14.5 104h59l-29 -208h162q6 51 13.5 104t14.5 104h59l-29 -208h102v-58h-111l-21 -148h102v-58h-110q-7 -51 -15 -104t-14 -104h-58l29 208h-162q-7 -51 -15 -104t-14 -104h-58zM392 404h-163l-21 -148h163z" />
    <glyph glyph-name="dollar" unicode="$" horiz-adv-x="556" 
d="M264 768h42v-95q36 0 78.5 -4.5t80.5 -15.5l-12 -66q-36 11 -72 17.5t-75 7.5v-242q31 -14 64.5 -31.5t61.5 -41.5t46 -55t18 -72q0 -44 -14 -76.5t-39 -54.5q-26 -23 -61 -37t-76 -20v-110h-42v106q-8 0 -14.5 -0.5t-14.5 -0.5q-36 0 -73 8.5t-73 18.5l8 64
q30 -10 72.5 -20t85.5 -10h9v276q-29 13 -61.5 30t-59.5 39q-28 22 -46 50t-18 62q0 38 13.5 68.5t38.5 52.5t58.5 35.5t74.5 18.5v98zM426 165q0 21 -9.5 39t-25.5 34t-38 30.5t-47 26.5v-252q22 5 44 15t39 25q16 15 26.5 35t10.5 47zM148 505q0 -20 9.5 -36t26.5 -30
q16 -15 36.5 -27t43.5 -23v221q-24 -3 -45 -10t-36 -20q-16 -13 -25.5 -31.5t-9.5 -43.5z" />
    <glyph glyph-name="percent" unicode="%" 
d="M610 675h50q-118 -177 -230.5 -350t-229.5 -350h-50zM205 410q-31 0 -53 11t-35 29q-14 17 -20 38t-6 42t6 42t20 39q13 17 35 28t53 11t53 -11t36 -28q13 -18 19 -39t6 -42t-6 -42t-19 -38q-14 -18 -36 -29t-53 -11zM205 456q38 0 51.5 22.5t13.5 51.5t-13.5 51.5
t-51.5 22.5t-51.5 -22.5t-13.5 -51.5t13.5 -51.5t51.5 -22.5zM605 0q-31 0 -53 11t-35 29q-14 17 -20 38t-6 42t6 42t20 39q13 17 35 28t53 11t53 -11t36 -28q13 -18 19 -39t6 -42t-6 -42t-19 -38q-14 -18 -36 -29t-53 -11zM605 46q38 0 51.5 22.5t13.5 51.5t-13.5 51.5
t-51.5 22.5t-51.5 -22.5t-13.5 -51.5t13.5 -51.5t51.5 -22.5z" />
    <glyph glyph-name="ampersand" unicode="&#x26;" horiz-adv-x="700" 
d="M616 347q-8 -74 -30.5 -131t-49.5 -99q25 -29 54.5 -63t56.5 -64h-90l-64 76q-42 -42 -91.5 -65t-109.5 -23q-99 0 -154.5 50.5t-55.5 134.5q0 75 43.5 122.5t116.5 77.5q-14 18 -28 36.5t-24 38.5q-11 20 -17.5 42t-6.5 46q0 39 13 68t36 48t53 28.5t65 9.5
q32 0 60.5 -8.5t50.5 -26.5t34.5 -46t12.5 -67q0 -31 -13.5 -58.5t-35.5 -49.5q-23 -23 -51.5 -41t-57.5 -30l164 -187q26 42 38.5 84.5t17.5 96.5h63zM156 170q0 -31 12.5 -56t33.5 -43t48.5 -27.5t57.5 -9.5q27 0 49.5 8t41.5 20q19 11 33.5 24.5t23.5 24.5
q-46 51 -91.5 105t-90.5 107q-23 -16 -44 -32t-37 -34q-17 -19 -27 -40t-10 -47zM230 524q0 -38 23 -71.5t49 -61.5q19 8 40.5 22.5t40.5 32.5t31.5 39t12.5 43q0 53 -28 74.5t-70 21.5t-70.5 -24.5t-28.5 -75.5z" />
    <glyph glyph-name="quotesingle" unicode="'" horiz-adv-x="278" 
d="M98 760h84q-4 -63 -8.5 -120t-8.5 -120h-50z" />
    <glyph glyph-name="parenleft" unicode="(" horiz-adv-x="380" 
d="M249 -130q-33 50 -61 101.5t-49 106.5q-21 54 -32.5 111.5t-11.5 120.5q0 62 12 120t33 112q20 54 48 106t61 102h54q-29 -51 -54 -104t-43 -108q-19 -56 -30 -113t-11 -115t10.5 -115t29.5 -112q19 -56 44 -109t54 -104h-54z" />
    <glyph glyph-name="parenright" unicode=")" horiz-adv-x="380" 
d="M77 -130q29 51 54 104t44 109q19 55 29.5 112t10.5 115t-11 115t-29 113q-19 55 -44.5 108t-53.5 104h53q33 -51 61.5 -102.5t49.5 -105.5q20 -54 32 -111.5t12 -120.5t-11.5 -120.5t-32.5 -111.5q-21 -55 -49 -106.5t-61 -101.5h-54z" />
    <glyph glyph-name="asterisk" unicode="*" horiz-adv-x="556" 
d="M278 496l-86 -143q-17 11 -29 20t-28 20l115 128q-41 8 -83.5 16t-82.5 16q6 19 11.5 34.5t10.5 32.5l156 -64l-17 164h71l-16 -165q36 16 75.5 32t75.5 33l21 -66l-162 -33q26 -32 54.5 -65.5t57.5 -62.5l-60 -40z" />
    <glyph glyph-name="plus" unicode="+" horiz-adv-x="610" 
d="M65 335h210v210h60v-210h210v-60h-210v-210h-60v210h-210v60z" />
    <glyph glyph-name="comma" unicode="," horiz-adv-x="280" 
d="M55 90h90l-110 -240h-45z" />
    <glyph glyph-name="hyphen" unicode="-" horiz-adv-x="600" 
d="M65 335h470v-60h-470v60z" />
    <glyph glyph-name="period" unicode="." horiz-adv-x="280" 
d="M30 60h100v-100h-100v100z" />
    <glyph glyph-name="slash" unicode="/" horiz-adv-x="350" 
d="M270 710h60l-250 -780h-60z" />
    <glyph glyph-name="zero" unicode="0" horiz-adv-x="620" 
d="M52 320q0 58 11.5 122.5t40.5 118.5t79 89t127 35t127 -35t79 -89t40.5 -118.5t11.5 -122.5t-11.5 -122.5t-40.5 -118.5t-79 -89t-127 -35t-127 35t-79 89t-40.5 118.5t-11.5 122.5zM122 320q0 -23 2.5 -54.5t10.5 -65.5q7 -34 20 -67t34 -59q21 -27 50.5 -43.5
t70.5 -16.5t70.5 16.5t50.5 43.5q21 26 34 59t21 67q7 34 9.5 65.5t2.5 54.5t-3 54.5t-10 65.5q-8 34 -21.5 67.5t-34.5 59.5t-50.5 42.5t-68.5 16.5q-40 0 -69 -16.5t-50 -42.5t-34.5 -59.5t-20.5 -67.5q-8 -34 -11 -65.5t-3 -54.5z" />
    <glyph glyph-name="one" unicode="1" horiz-adv-x="480" 
d="M226 599q-29 -25 -61 -51.5t-59 -49.5l-38 48l157 129h71v-710h-70v634z" />
    <glyph glyph-name="two" unicode="2" horiz-adv-x="550" 
d="M34 56q32 29 69 57.5t71 56.5q33 28 73 66t76 81q35 43 59 87.5t24 85.5q0 27 -13.5 51.5t-36.5 43.5t-53 30.5t-63 11.5q-23 0 -47.5 -4t-47.5 -10t-44.5 -13.5t-38.5 -14.5q-2 19 -3.5 31t-3.5 29q43 16 94 28t96 12q47 0 89 -14.5t74 -40.5q31 -27 49.5 -65t18.5 -85
q0 -32 -13 -65t-34 -65q-21 -33 -47 -63.5t-52 -56.5q-55 -55 -118.5 -105t-125.5 -101h400v-59h-452v91z" />
    <glyph glyph-name="three" unicode="3" horiz-adv-x="550" 
d="M132 363h68q30 0 67 10t69 28t53.5 44t21.5 58q0 33 -15 56.5t-39 38.5q-25 15 -55.5 22t-61.5 7q-49 0 -93.5 -7.5t-79.5 -21.5q-2 20 -3.5 32.5t-3.5 29.5q18 6 41 10.5t48 7.5t49.5 5t46.5 2q46 0 89 -10.5t76 -32.5q32 -23 51.5 -57t19.5 -80q0 -29 -13 -55.5
t-34 -48.5q-22 -23 -49 -41t-55 -30q71 -23 116 -69.5t45 -115.5q0 -53 -24 -89.5t-64 -59.5q-40 -22 -90.5 -31.5t-102.5 -9.5q-20 0 -44 3t-48 7q-24 5 -47 10t-41 10l7 65q32 -13 78 -25t90 -12q46 0 85.5 9.5t68.5 27.5q29 17 45.5 41.5t16.5 53.5q0 41 -20.5 71
t-52.5 50t-71.5 29.5t-76.5 9.5h-68v58z" />
    <glyph glyph-name="four" unicode="4" horiz-adv-x="610" 
d="M406 640l-312 -451h312v451zM406 130h-377v69q83 118 164 238t164 238h119v-486h90v-59h-90v-165h-70v165z" />
    <glyph glyph-name="five" unicode="5" horiz-adv-x="540" 
d="M466 617h-320l-9 -222q23 5 48 8.5t55 3.5q46 0 90.5 -17.5t79.5 -46.5q34 -30 55 -69.5t21 -83.5q0 -55 -22.5 -98.5t-60.5 -73.5q-39 -31 -89 -47t-104 -16t-94 6t-62 13l4 68q67 -29 152 -29q34 0 70.5 11.5t66.5 32.5t49.5 51t19.5 67q0 43 -18 76t-47 56
q-30 22 -68 33.5t-78 11.5q-43 0 -75.5 -6t-60.5 -16l10 345h387v-58z" />
    <glyph glyph-name="six" unicode="6" horiz-adv-x="590" 
d="M494 598q-30 12 -67.5 20.5t-71.5 8.5q-57 0 -99 -24t-70 -65q-29 -41 -44 -96t-17 -116q49 44 97 63.5t98 19.5q49 0 90.5 -18t71.5 -48t47 -70t17 -83q0 -50 -18 -93t-49 -74q-32 -32 -75.5 -50t-93.5 -18q-76 0 -125.5 31.5t-78.5 81.5t-40.5 112.5t-11.5 124.5
q0 69 13.5 137t47.5 122t91 87.5t144 33.5q16 0 37.5 -2.5t43.5 -5.5q21 -4 40.5 -8.5t32.5 -8.5zM476 185q0 27 -9 56.5t-28 54.5q-20 24 -50.5 40.5t-73.5 16.5q-39 0 -72 -13.5t-56 -35.5q-24 -23 -37.5 -54t-13.5 -65q0 -27 11.5 -57.5t33.5 -55.5q22 -26 54.5 -42.5
t74.5 -16.5t73 15.5t52 40.5t31 55.5t10 60.5z" />
    <glyph glyph-name="seven" unicode="7" horiz-adv-x="540" 
d="M496 608q-67 -159 -133 -321.5t-133 -321.5h-78l275 652h-383v58h452v-67z" />
    <glyph glyph-name="eight" unicode="8" horiz-adv-x="590" 
d="M298 -45q-44 0 -88 13t-78 38q-35 25 -56.5 60t-21.5 80q0 32 14 61.5t38 54.5q24 24 57 44t71 34q-47 16 -78 38t-49 47q-18 24 -25.5 50t-7.5 49q0 30 16 59t46 52q30 22 72 36t95 14q51 0 92 -14t69 -35q28 -22 43 -49t15 -53q0 -55 -32.5 -101.5t-115.5 -90.5
q75 -29 123.5 -76.5t48.5 -114.5q0 -49 -20 -85.5t-54 -60.5q-35 -25 -80 -37.5t-94 -12.5zM474 141q-1 42 -20.5 69t-47.5 45q-29 18 -62.5 31.5t-61.5 28.5q-24 -15 -51.5 -30.5t-50.5 -33.5q-23 -19 -38.5 -43t-15.5 -57q0 -31 17 -56.5t43 -43.5t58.5 -28t62.5 -10
t59.5 9t53.5 26q24 16 39 39.5t15 52.5v1zM146 509q0 -43 44.5 -79.5t134.5 -70.5q38 25 62.5 46t38.5 40t19 37t5 37q0 27 -14.5 47t-36.5 34q-22 13 -49 20t-52 7q-26 0 -52.5 -8t-48.5 -23q-23 -15 -37 -37t-14 -50z" />
    <glyph glyph-name="nine" unicode="9" horiz-adv-x="590" 
d="M96 42q30 -12 67.5 -20.5t71.5 -8.5q58 0 100.5 24t70.5 65t42.5 95.5t16.5 116.5q-49 -44 -97 -63.5t-98 -19.5t-91 17.5t-71 47.5t-46.5 69.5t-16.5 83.5q0 50 17.5 93.5t48.5 75.5q31 31 74.5 49t94.5 18q77 0 126.5 -30t78.5 -79q29 -50 40 -112.5t11 -128.5
q0 -69 -13.5 -137t-47.5 -122t-91 -87.5t-144 -33.5q-17 0 -38 2.5t-42 5.5q-22 4 -41.5 8.5t-32.5 8.5zM115 454q0 -27 9 -56t28 -54t49.5 -41t73.5 -16q39 0 71.5 13t56.5 36t37 53t13 65q0 27 -11 57.5t-33 56.5q-22 25 -54.5 42t-74.5 17t-73 -16t-51 -40
q-21 -25 -31 -56t-10 -61z" />
    <glyph glyph-name="colon" unicode=":" horiz-adv-x="280" 
d="M190 450h-100v100h100v-100zM90 190h100v-100h-100v100z" />
    <glyph glyph-name="semicolon" unicode=";" horiz-adv-x="280" 
d="M190 450h-100v100h100v-100zM94 190h96q-26 -59 -49 -110t-48 -110h-51z" />
    <glyph glyph-name="less" unicode="&#x3c;" horiz-adv-x="600" 
d="M540 485l-416 -185l416 -185v-57l-480 212v60l480 211v-56z" />
    <glyph glyph-name="equal" unicode="=" horiz-adv-x="600" 
d="M65 450h470v-60h-470v60zM65 230h470v-60h-470v60z" />
    <glyph glyph-name="greater" unicode="&#x3e;" horiz-adv-x="600" 
d="M60 541l480 -211v-60l-480 -212v57l416 185l-416 185v56z" />
    <glyph glyph-name="question" unicode="?" horiz-adv-x="520" 
d="M216 182q0 51 24 88.5t61 79.5q14 16 28 33.5t26 37.5q11 19 18 39.5t7 43.5q0 31 -12.5 54t-33.5 38q-22 15 -50 22t-59 7q-46 0 -80.5 -8t-61.5 -22l-7 61q33 12 73 20.5t88 8.5q41 0 80.5 -11t70.5 -33q30 -22 48.5 -55t18.5 -76q0 -27 -8.5 -51t-22.5 -47
q-15 -24 -34.5 -47.5t-40.5 -48.5q-26 -30 -47.5 -64t-21.5 -73v-19h-64v22zM200 50h100v-100h-100v100z" />
    <glyph glyph-name="at" unicode="@" horiz-adv-x="810" 
d="M370 181q31 0 56.5 17t44.5 43q18 25 28.5 56t10.5 59q0 40 -25.5 68t-62.5 28q-33 0 -60 -16t-46 -40q-20 -25 -30.5 -54.5t-10.5 -57.5q0 -44 25.5 -73.5t69.5 -29.5zM543 257q-3 -11 -6 -25t-2 -26q1 -13 7.5 -22t22.5 -9q24 0 48.5 16.5t43.5 44.5q19 27 31 63t12 76
q0 61 -22 108.5t-60 79.5t-89 48.5t-109 16.5q-67 0 -122 -23t-94 -64q-40 -41 -62 -96.5t-22 -119.5q0 -74 23.5 -132t65.5 -98q41 -41 97.5 -62t123.5 -21q66 0 124.5 23t99.5 66h56q-51 -68 -125 -104.5t-159 -36.5q-76 0 -143 25.5t-116 72.5q-50 47 -78.5 115
t-28.5 152q0 80 28.5 145.5t78.5 112.5q49 46 114.5 71.5t139.5 25.5q65 0 124.5 -21t105.5 -59q45 -38 72 -91.5t27 -118.5q0 -69 -25.5 -120t-61.5 -84q-37 -34 -76.5 -50t-66.5 -16q-20 0 -34 16.5t-19 51.5q-10 -17 -24.5 -29.5t-30.5 -20.5q-17 -9 -33.5 -13.5
t-30.5 -4.5q-30 0 -55 12t-43 32q-19 20 -29.5 47.5t-10.5 59.5q0 45 14.5 88.5t41.5 78.5q27 34 65 55t85 21q32 0 66.5 -19.5t55.5 -64.5l18 70h52z" />
    <glyph glyph-name="A" unicode="A" horiz-adv-x="750" 
d="M110 -35h-74q74 177 143.5 355t143.5 355h93q75 -176 148.5 -355t148.5 -355h-78l-83 205h-363q-23 -60 -37 -96t-22 -57q-9 -22 -13 -33t-7 -19zM369 625l-156 -395h315z" />
    <glyph glyph-name="B" unicode="B" horiz-adv-x="655" 
d="M70 675h275q51 0 95 -9.5t77 -30.5q32 -21 50 -53t18 -77q0 -71 -39.5 -110t-125.5 -65q91 -15 138 -64t47 -119q0 -53 -22.5 -88t-59.5 -56t-84.5 -29.5t-98.5 -8.5h-270v710zM140 25h197q36 0 71 5.5t63 20.5q27 14 44 39.5t17 64.5q0 43 -19 71t-48 45
q-30 16 -66.5 22.5t-71.5 6.5h-187v-275zM140 360h172q39 0 75 6.5t64 22.5q27 15 44 41t17 65q0 35 -15 58.5t-37 37.5q-23 13 -49.5 18.5t-50.5 5.5h-220v-255z" />
    <glyph glyph-name="C" unicode="C" horiz-adv-x="610" 
d="M547 590q-32 16 -67.5 23.5t-69.5 7.5q-67 0 -121 -23.5t-91 -63.5q-38 -41 -58 -96t-20 -118q0 -67 20 -122.5t58 -94.5q37 -40 91 -62t121 -22q16 0 35.5 2t39.5 6q19 3 38 8t34 11q2 -21 3.5 -34.5l3.5 -31.5q-37 -13 -79 -16.5t-80 -3.5q-81 0 -146.5 25.5
t-111.5 73.5q-47 47 -72 113.5t-25 147.5q0 79 25 145t72 114q46 48 111.5 74.5t146.5 26.5q38 0 76 -6t73 -19z" />
    <glyph glyph-name="D" unicode="D" horiz-adv-x="680" 
d="M70 675h195q75 0 141.5 -25t116.5 -71q49 -46 78 -112t29 -147q0 -89 -26 -155.5t-73 -110.5q-48 -44 -115.5 -66.5t-150.5 -22.5h-195v710zM140 25h135q135 0 210 72.5t75 222.5q0 68 -23.5 122.5t-62.5 93.5q-39 38 -90.5 58.5t-108.5 20.5h-135v-590z" />
    <glyph glyph-name="E" unicode="E" horiz-adv-x="590" 
d="M70 675h460v-60h-390v-255h365v-60h-365v-275h395v-60h-465v710z" />
    <glyph glyph-name="F" unicode="F" horiz-adv-x="570" 
d="M70 675h450v-60h-380v-255h370v-60h-370v-335h-70v710z" />
    <glyph glyph-name="G" unicode="G" horiz-adv-x="690" 
d="M607 580q-37 20 -83 32.5t-109 12.5q-65 0 -119.5 -24.5t-93.5 -66.5t-60.5 -97.5t-21.5 -116.5q0 -65 21.5 -121t60.5 -97q38 -41 91.5 -64t116.5 -23h7q26 0 63.5 2t69.5 15v266h-155v57h225v-368q-31 -9 -84.5 -18t-126.5 -9q-80 0 -146 26.5t-113 74.5
q-48 48 -74 114t-26 145t27.5 145t75.5 114t114 74.5t143 26.5q50 0 103 -8.5t101 -23.5z" />
    <glyph glyph-name="H" unicode="H" horiz-adv-x="700" 
d="M70 675h70v-315h420v315h70v-710h-70v335h-420v-335h-70v710z" />
    <glyph glyph-name="I" unicode="I" horiz-adv-x="240" 
d="M85 675h70v-710h-70v710z" />
    <glyph glyph-name="J" unicode="J" horiz-adv-x="370" 
d="M35 25q17 -4 32 -4.5t28 -0.5q72 0 103.5 37.5t31.5 107.5v510h70v-540q0 -33 -10 -64.5t-32 -55.5q-23 -25 -59.5 -40t-88.5 -15q-43 0 -75 8v57z" />
    <glyph glyph-name="K" unicode="K" horiz-adv-x="655" 
d="M170 339l326 336h88l-330 -334l356 -376h-91zM70 675h70v-710h-70v710z" />
    <glyph glyph-name="L" unicode="L" horiz-adv-x="560" 
d="M70 675h70v-650h380v-60h-450v710z" />
    <glyph glyph-name="M" unicode="M" horiz-adv-x="880" 
d="M70 675h135l237 -645q28 76 57.5 158t59.5 165t59.5 165t56.5 157h135v-710h-69v650h-16l-240 -650h-90l-238 650h-18v-650h-69v710z" />
    <glyph glyph-name="N" unicode="N" horiz-adv-x="700" 
d="M70 675h110l340 -575l30 -60h11v635h69v-710h-108q-85 140 -170 291.5t-170 291.5l-31 52h-12v-635h-69v710z" />
    <glyph glyph-name="O" unicode="O" horiz-adv-x="740" 
d="M120 320q0 -61 14.5 -116.5t44.5 -97.5t77.5 -67t113.5 -25t113.5 25t77.5 67t44.5 97.5t14.5 116.5q0 62 -15.5 117.5t-46.5 97.5t-78 66.5t-110 24.5t-110 -24.5t-78 -66.5t-46.5 -97.5t-15.5 -117.5zM50 320q0 81 21.5 148.5t62.5 115.5t100.5 74.5t135.5 26.5
t135.5 -26.5t100.5 -74.5t62.5 -115.5t21.5 -148.5q0 -83 -21.5 -150.5t-62.5 -114.5q-41 -48 -100.5 -74t-135.5 -26t-135.5 26t-100.5 74q-41 47 -62.5 114.5t-21.5 150.5z" />
    <glyph glyph-name="P" unicode="P" horiz-adv-x="615" 
d="M140 320h195q25 0 55 9t56 28q25 18 42 46.5t17 66.5t-15.5 65.5t-40.5 45.5q-25 17 -55 25.5t-59 8.5h-195v-295zM70 675h255q51 0 96.5 -11t79.5 -35q34 -25 54 -64t20 -95q0 -54 -22.5 -94t-57.5 -65q-36 -26 -80.5 -38.5t-89.5 -12.5h-185v-295h-70v710z" />
    <glyph glyph-name="Q" unicode="Q" horiz-adv-x="740" 
d="M50 320q0 81 21.5 148.5t62.5 115.5t100.5 74.5t135.5 26.5t135.5 -26.5t100.5 -74.5t62.5 -115.5t21.5 -148.5q0 -83 -21 -149t-61 -114q27 -26 53.5 -51t54.5 -51h-85l-66 61q-38 -29 -87 -45t-108 -16q-76 0 -135.5 26t-100.5 74q-41 47 -62.5 114.5t-21.5 150.5z
M120 320q0 -61 14.5 -116.5t44.5 -97.5t77.5 -67t113.5 -25q46 0 82.5 12t65.5 35q-38 38 -76 75.5t-78 73.5h86q28 -26 55.5 -52t54.5 -53q31 43 45.5 98t14.5 117t-15.5 117.5t-46.5 97.5t-78 66.5t-110 24.5t-110 -24.5t-78 -66.5t-46.5 -97.5t-15.5 -117.5z" />
    <glyph glyph-name="R" unicode="R" horiz-adv-x="645" 
d="M70 675h240q53 0 100.5 -9t83.5 -30q35 -21 55.5 -56.5t20.5 -89.5q0 -34 -14 -62.5t-38 -49.5q-25 -22 -58 -35.5t-70 -17.5q42 -15 65.5 -33t36.5 -47l123 -280h-82l-104 251q-12 28 -27 43.5t-32 23.5q-18 8 -38 10t-42 2h-150v-330h-70v710zM140 355h180
q37 0 70 11.5t58 30.5q24 19 38 44t14 52q0 55 -43.5 88.5t-121.5 33.5h-195v-260z" />
    <glyph glyph-name="S" unicode="S" horiz-adv-x="600" 
d="M503 594q-50 14 -91.5 21.5t-91.5 7.5q-35 0 -70 -7.5t-64 -22.5t-47 -37t-18 -51q0 -23 16 -42t41 -34q24 -16 54.5 -29t59.5 -24h-1l29 -11q38 -14 78.5 -31.5t74.5 -41.5q34 -25 55.5 -57.5t21.5 -74.5q0 -53 -23 -91t-64 -62t-97 -35.5t-121 -11.5q-45 0 -93.5 8
t-93.5 19q4 20 7 33t7 30q35 -11 84.5 -22t103.5 -11q36 0 75 8.5t71 26.5q32 17 52.5 42.5t20.5 60.5q0 28 -15.5 50t-40.5 40q-26 17 -57.5 30.5t-63.5 25.5h1q-5 2 -11.5 4t-11.5 4q-36 13 -76 30.5t-74 40.5q-35 23 -57.5 52.5t-22.5 67.5q0 43 21.5 76.5t59.5 56.5
t89 35t110 12q43 0 91.5 -5.5t95.5 -16.5z" />
    <glyph glyph-name="T" unicode="T" horiz-adv-x="670" 
d="M300 615h-255v60h580v-60h-255v-650h-70v650z" />
    <glyph glyph-name="U" unicode="U" horiz-adv-x="700" 
d="M630 242q0 -71 -20.5 -124.5t-57.5 -89.5t-88.5 -54.5t-113.5 -18.5t-113.5 18.5t-88.5 54.5t-57.5 89.5t-20.5 124.5v433h70v-420q0 -53 13.5 -97t40.5 -76q26 -32 65 -49.5t91 -17.5t91 17.5t66 49.5q26 32 39.5 76t13.5 97v420h70v-433z" />
    <glyph glyph-name="V" unicode="V" horiz-adv-x="700" 
d="M405 -35h-110q-67 177 -132 355t-132 355h79l245 -665l240 665h73z" />
    <glyph glyph-name="W" unicode="W" horiz-adv-x="980" 
d="M760 -35h-115l-155 645l-155 -645h-115l-185 710h79l164 -650l157 650h110l157 -650q24 76 45.5 158.5t41.5 166.5t39 166.5t38 158.5h79z" />
    <glyph glyph-name="X" unicode="X" horiz-adv-x="667" 
d="M294 335q-57 81 -116.5 170t-117.5 170h84l193 -281q23 32 47.5 68t50.5 73l50 72t48 68h77l-234 -335q62 -89 127.5 -187t128.5 -188h-86l-213 316q-26 -36 -53 -76.5t-55 -81.5t-55.5 -81.5t-52.5 -76.5h-79z" />
    <glyph glyph-name="Y" unicode="Y" horiz-adv-x="670" 
d="M300 274q-32 47 -65.5 97.5t-66.5 102.5l-66 102t-64 99h81l217 -338q53 81 107.5 169t106.5 169h83l-263 -401v-309h-70v309z" />
    <glyph glyph-name="Z" unicode="Z" horiz-adv-x="590" 
d="M40 37l420 578h-405v60h480v-72l-425 -578h440v-60h-510v72z" />
    <glyph glyph-name="bracketleft" unicode="[" horiz-adv-x="350" 
d="M115 760h170v-55h-110v-780h110v-55h-170v890z" />
    <glyph glyph-name="backslash" unicode="\" horiz-adv-x="1080" 
d="M95 362v46h96l-67 242h72l64 -242h177l60 242h90l60 -242h176l65 242h72l-67 -242h92v-46h-105l-106 -382h-80l-98 382h-109l-97 -382h-80l-106 382h-109zM732 64l79 298h-153zM352 64l73 298h-153zM542 578l-43 -170h86z" />
    <glyph glyph-name="bracketright" unicode="]" horiz-adv-x="350" 
d="M235 -130h-170v55h110v780h-110v55h170v-890z" />
    <glyph glyph-name="asciicircum" unicode="^" horiz-adv-x="600" 
d="M268 750h64q44 -84 85 -165t84 -165h-60l-141 276l-141 -276h-60z" />
    <glyph glyph-name="underscore" unicode="_" horiz-adv-x="500" 
d="M-1 -90h502v-40h-502v40z" />
    <glyph glyph-name="grave" unicode="`" horiz-adv-x="220" 
d="M190 590h-50l-125 170h90z" />
    <glyph glyph-name="a" unicode="a" horiz-adv-x="555" 
d="M76 421q36 24 84.5 36.5t94.5 12.5q117 0 176.5 -49.5t59.5 -149.5v-219q0 -35 0.5 -54.5t2.5 -32.5h-64l-3 93q-12 -16 -33 -34t-47 -34q-26 -15 -55 -25t-57 -10q-95 0 -148 38t-53 112q0 44 20.5 75.5t54.5 52.5q33 20 76.5 29t89.5 8l144 -2q-2 77 -45 112t-134 35
q-37 0 -82 -14t-78 -35zM419 217q-15 1 -46 2t-58 1q-28 0 -64 -3.5t-68 -15.5q-33 -12 -55 -35t-22 -61q0 -23 11.5 -40.5t31.5 -29.5q19 -12 44 -18.5t52 -6.5q36 0 67.5 13t55.5 34q23 20 37 46t14 52v62z" />
    <glyph glyph-name="b" unicode="b" horiz-adv-x="575" 
d="M466 215q0 37 -10.5 72.5t-30.5 64.5q-21 28 -52 45.5t-73 17.5q-41 0 -72 -17t-52 -45t-31.5 -64t-10.5 -74q0 -34 10 -69.5t30 -64.5t51.5 -47.5t74.5 -18.5q41 0 72 19t52 49q21 29 31.5 64.5t10.5 67.5zM64 700h70v-335q15 22 32 41.5t38 33.5t48 22t63 8
q52 0 93.5 -20.5t69.5 -54.5q28 -35 43 -80t15 -95q0 -49 -13.5 -96t-41.5 -83q-28 -37 -69.5 -59t-96.5 -22q-36 0 -64.5 9.5t-50.5 24.5q-23 15 -40.5 34t-30.5 37l2 -100h-67v735z" />
    <glyph glyph-name="c" unicode="c" horiz-adv-x="495" 
d="M445 393q-28 10 -54.5 16t-50.5 6q-109 0 -169 -50.5t-60 -151.5q0 -44 14 -81.5t43 -64.5q28 -27 71 -42t101 -15q23 0 57 7t63 18l7 -60q-34 -12 -70.5 -16t-66.5 -4q-66 0 -120 18t-92 52t-58.5 81.5t-20.5 106.5q0 62 20.5 110t58.5 81q37 32 91 49t121 17
q33 0 66.5 -6t58.5 -14z" />
    <glyph glyph-name="d" unicode="d" horiz-adv-x="575" 
d="M109 215q0 -32 10.5 -67.5t31.5 -64.5q21 -30 52 -49t72 -19q43 0 74.5 18.5t51.5 47.5t30 64.5t10 69.5q0 38 -10.5 74t-31.5 64t-52 45t-72 17q-42 0 -73 -17.5t-51 -45.5q-21 -29 -31.5 -64.5t-10.5 -72.5zM511 -35h-66l1 100q-14 -18 -31 -37t-39 -34
q-23 -15 -51.5 -24.5t-64.5 -9.5q-56 0 -97 22t-69 59q-28 36 -41.5 83t-13.5 96q0 50 15 95t43 80q28 34 69 54.5t94 20.5q36 0 63 -8t48 -22t38 -33.5t32 -41.5v335h70v-735z" />
    <glyph glyph-name="e" unicode="e" horiz-adv-x="555" 
d="M476 -14q-81 -31 -166 -31q-66 0 -117 18.5t-85 53.5q-35 34 -52.5 82.5t-17.5 107.5q0 54 18 100.5t51 80.5q32 33 77.5 52.5t100.5 19.5q61 0 105.5 -22t73.5 -59q28 -38 42 -87.5t15 -105.5h-412q1 -42 16 -76.5t41 -58.5q26 -25 63 -38t81 -13q50 0 91 11.5t67 25.5z
M450 250q-1 33 -13 62.5t-33 52.5q-22 23 -52 36.5t-67 13.5q-41 0 -72.5 -15t-53.5 -38q-23 -24 -36 -53.5t-16 -58.5h343zM476 -14q1 0 0 -1v1z" />
    <glyph glyph-name="f" unicode="f" horiz-adv-x="390" 
d="M154 404h-135v56h135v60q0 44 6 78.5t24 58.5q17 23 47.5 35.5t78.5 12.5q14 0 33 -1t33 -3l-4 -51q-11 2 -24.5 2.5t-22.5 0.5q-35 0 -55 -8.5t-30 -24.5t-13 -39t-3 -51v-70h147v-56h-147v-439h-70v439z" />
    <glyph glyph-name="g" unicode="g" horiz-adv-x="575" 
d="M511 35q0 -112 -60 -168.5t-191 -56.5q-38 0 -79.5 6.5t-95.5 24.5l3.5 31.5t3.5 29.5q24 -11 45.5 -18.5t42.5 -12.5q21 -4 42.5 -6.5t47.5 -2.5q81 0 126 46t45 137l-1 65q-30 -52 -73.5 -76t-109.5 -24q-53 0 -93.5 16.5t-67.5 46.5q-28 30 -42.5 71t-14.5 91
q0 49 13 92t40 75q27 31 68 49.5t97 18.5q63 0 110.5 -24t74.5 -61v75h69v-425zM109 240q0 -37 10.5 -69t31.5 -55q21 -24 52 -37.5t72 -13.5q37 0 68 13t53 36q21 23 33 55t12 71q0 34 -11 66t-32 56q-22 24 -53 38.5t-70 14.5q-41 0 -72 -15.5t-52 -39.5
q-21 -25 -31.5 -56.5t-10.5 -63.5z" />
    <glyph glyph-name="h" unicode="h" horiz-adv-x="570" 
d="M64 700h70l2 -335q38 58 84 81.5t95 23.5q92 0 146.5 -56t54.5 -154v-295h-70v255q0 195 -141 195q-39 0 -71 -16.5t-54 -46.5t-34 -71.5t-12 -90.5v-225h-70v735z" />
    <glyph glyph-name="i" unicode="i" horiz-adv-x="220" 
d="M75 460h70v-495h-70v495zM151 586h-82v86h82v-86z" />
    <glyph glyph-name="j" unicode="j" horiz-adv-x="230" 
d="M-17 -124q7 -1 14 -1.5t18 -0.5q41 0 60.5 18t19.5 75v493h70v-483q0 -32 -4.5 -62t-18.5 -53q-15 -23 -41.5 -37.5t-70.5 -14.5q-11 0 -27 1t-28 3zM171 586h-82v86h82v-86z" />
    <glyph glyph-name="k" unicode="k" horiz-adv-x="530" 
d="M64 700h70v-735h-70v735zM390 460h88l-236 -220q65 -69 135.5 -136.5t132.5 -138.5h-90l-260 275z" />
    <glyph glyph-name="l" unicode="l" horiz-adv-x="200" 
d="M65 700h70v-735h-70v735z" />
    <glyph glyph-name="m" unicode="m" 
d="M64 460h69l-1 -100q18 32 36 53.5t38 34.5q20 12 43 17t51 5q21 0 42.5 -5.5t42.5 -18.5q20 -14 37 -35.5t28 -53.5q15 33 33.5 55t39.5 35q20 13 42 18t45 5q45 0 78 -15t55 -40q22 -26 32.5 -61t10.5 -74v-315h-70v295q0 26 -6 53.5t-20 50.5q-14 22 -36 36.5t-54 14.5
q-36 0 -62 -18t-43 -47q-18 -29 -26.5 -65.5t-8.5 -74.5v-245h-70v295q0 26 -5 53.5t-17 50.5q-13 22 -34.5 36.5t-53.5 14.5q-36 0 -63 -18t-45 -47t-27 -65.5t-9 -74.5v-245h-72v495z" />
    <glyph glyph-name="n" unicode="n" horiz-adv-x="570" 
d="M64 460h69v-110q35 68 80 94t102 26q94 0 147.5 -56t53.5 -154v-295h-70v255q0 94 -31 144.5t-110 50.5q-39 0 -71 -17t-54 -46q-22 -30 -34 -70t-12 -87v-230h-70v495z" />
    <glyph glyph-name="o" unicode="o" horiz-adv-x="580" 
d="M39 213q0 57 18 104t51 82q32 34 78.5 53t103.5 19t103.5 -19t79.5 -53q32 -35 50 -82t18 -104q0 -54 -18 -101t-51 -82t-79.5 -55t-102.5 -20q-57 0 -103 20t-79 55t-51 82t-18 101zM111 213q0 -38 10 -74t32 -65t56 -46.5t81 -17.5q46 0 80 17.5t56 46.5t32.5 65
t10.5 74q0 40 -12 76.5t-35 64.5t-56 45t-76 17t-76 -17t-56 -45t-35 -64.5t-12 -76.5z" />
    <glyph glyph-name="p" unicode="p" horiz-adv-x="575" 
d="M466 230q0 32 -10.5 65t-31.5 60q-21 26 -52 43t-72 17q-43 0 -74.5 -16t-51.5 -42q-20 -27 -30 -60t-10 -67q0 -38 10.5 -72t31.5 -59t52 -39.5t72 -14.5q42 0 73 15t52 41q20 25 30.5 58.5t10.5 70.5zM64 465h68l-2 -95q13 19 30 37t40 32q22 14 50.5 22.5t64.5 8.5
q55 0 96.5 -20t69.5 -53q28 -34 41.5 -78.5t13.5 -93.5q0 -50 -15 -93t-43 -74q-28 -32 -69.5 -50t-93.5 -18q-71 0 -112.5 30t-68.5 75v-285h-70v655z" />
    <glyph glyph-name="q" unicode="q" horiz-adv-x="575" 
d="M109 230q0 -37 10.5 -70.5t31.5 -58.5q20 -26 51 -41t73 -15q41 0 72 14.5t52 39.5t31.5 59t10.5 72q0 34 -10 67t-30 60q-20 26 -51.5 42t-74.5 16q-41 0 -72 -17t-52 -43q-21 -27 -31.5 -60t-10.5 -65zM511 -190h-70v285q-27 -45 -68.5 -75t-112.5 -30q-53 0 -94 18
t-69 50q-28 31 -43 74t-15 93q0 49 13.5 93.5t41.5 78.5q28 33 69 53t97 20q36 0 64 -8.5t51 -22.5q22 -14 39.5 -32t30.5 -37l-2 95h68v-655z" />
    <glyph glyph-name="r" unicode="r" horiz-adv-x="420" 
d="M64 460h68v-110q37 58 87.5 89t95.5 31q21 0 45 -2.5t40 -7.5l-12 -69q-14 5 -32.5 8.5t-35.5 3.5q-39 0 -72.5 -14.5t-58.5 -41.5q-26 -27 -40.5 -66.5t-14.5 -90.5v-225h-70v495z" />
    <glyph glyph-name="s" unicode="s" horiz-adv-x="435" 
d="M48 40q18 -7 38 -12.5t40 -9.5q19 -4 36 -6t28 -2q21 0 44.5 3.5t43.5 12.5t33 24.5t13 40.5q0 18 -10 32.5t-27 27.5q-18 12 -40.5 23t-46.5 21q-25 10 -53 23t-52 29t-40 36.5t-16 46.5q0 37 16 63.5t44 43.5q27 17 63.5 25t77.5 8q34 0 69 -4.5t66 -12.5l-7 -59
q-13 4 -30.5 8t-35.5 7t-36 4.5t-31 1.5q-26 0 -48.5 -3.5t-38.5 -11.5q-17 -9 -27 -22.5t-10 -32.5q0 -18 11 -32.5t28 -25.5q17 -12 39 -21.5t43 -17.5l19 -7q25 -9 50.5 -21t46.5 -29q21 -18 34.5 -41t13.5 -54q0 -38 -16 -64.5t-42 -43.5t-61 -25t-72 -8t-81.5 5
t-79.5 20z" />
    <glyph glyph-name="t" unicode="t" horiz-adv-x="390" 
d="M351 405h-146v-280q0 -56 30 -81t75 -25q28 0 51 10v-54q-14 -5 -30 -7.5t-36 -2.5q-34 0 -63 8.5t-50 25.5q-22 18 -34.5 44t-12.5 62v300h-116v55h116v145h70v-145h146v-55z" />
    <glyph glyph-name="u" unicode="u" horiz-adv-x="570" 
d="M506 -35h-69v110q-35 -68 -80 -94t-102 -26q-94 0 -147.5 56t-53.5 154v295h70v-255q0 -94 31 -144.5t110 -50.5q39 0 71 17t54 47q22 29 34 69t12 87v230h70v-495z" />
    <glyph glyph-name="v" unicode="v" horiz-adv-x="540" 
d="M320 -35h-95q-49 123 -97.5 247.5t-97.5 247.5h75l171 -450l166 450h68z" />
    <glyph glyph-name="w" unicode="w" horiz-adv-x="811" 
d="M630 -35h-90l-135 465q-35 -115 -68.5 -233.5t-66.5 -231.5h-90l-76 248t-76 247h67l128 -450q35 116 67 226t65 224h100l132 -450q35 114 65.5 225.5t62.5 224.5h67z" />
    <glyph glyph-name="x" unicode="x" horiz-adv-x="520" 
d="M227 222l-176 238h79l132 -188l138 188h68l-175 -232q46 -62 95 -131t96 -132h-79l-147 213q-18 -24 -37.5 -51t-39.5 -55t-39.5 -55.5t-37.5 -51.5h-67z" />
    <glyph glyph-name="y" unicode="y" horiz-adv-x="540" 
d="M68 -132q8 -2 16 -3t16 -1q36 0 61.5 19.5t42.5 43.5q16 25 24 47t8 26t-2 12.5t-4 18.5l-6 18t-6 16l-186 395h74l169 -383q19 44 40 93t43 99q22 49 43 98t41 93h67l-200 -445q-15 -33 -32.5 -69t-41.5 -66t-54.5 -50t-70.5 -20q-15 0 -26.5 1.5t-22.5 3.5h-1z" />
    <glyph glyph-name="z" unicode="z" horiz-adv-x="510" 
d="M49 32l331 374h-316v54h387v-68l-336 -373h346v-54h-412v67z" />
    <glyph glyph-name="braceleft" unicode="{" horiz-adv-x="380" 
d="M320 696h-45q-18 0 -29.5 -7t-17.5 -19q-7 -12 -9.5 -27t-2.5 -30v-182q0 -29 -9.5 -49.5t-22.5 -34.5t-27.5 -22.5t-24.5 -14.5q10 -2 24.5 -9.5t28.5 -21.5q13 -15 22 -38t9 -55v-179q0 -15 2.5 -30t9.5 -27q6 -12 17.5 -19t29.5 -7h45v-56h-70q-17 0 -35 7.5t-33 22.5
q-16 15 -26 37t-10 52v183q0 25 -7.5 45t-19.5 34t-27.5 22.5t-31.5 10.5v56q16 2 31.5 10t27.5 22q12 13 19.5 32t7.5 43v188q0 30 10 52t26 37q15 15 33 22.5t35 7.5h70v-56z" />
    <glyph glyph-name="bar" unicode="|" horiz-adv-x="280" 
d="M110 780h60v-940h-60v940z" />
    <glyph glyph-name="braceright" unicode="}" horiz-adv-x="380" 
d="M60 752h70q16 0 34.5 -7.5t34.5 -22.5q15 -15 25 -37t10 -52v-188q0 -24 7.5 -43t19.5 -32q12 -14 27.5 -22t31.5 -10v-56q-16 -2 -31.5 -10.5t-27.5 -22.5t-19.5 -34t-7.5 -45v-183q0 -30 -10 -52t-25 -37q-16 -15 -34.5 -22.5t-34.5 -7.5h-70v56h45q18 0 29.5 7
t18.5 19q6 12 8.5 27t2.5 30v179q0 32 9 55t23 38q13 14 27 21.5t25 9.5q-10 6 -24.5 14.5t-27.5 22.5t-22.5 34.5t-9.5 49.5v182q0 15 -2.5 30t-8.5 27q-7 12 -18.5 19t-29.5 7h-45v56z" />
    <glyph glyph-name="asciitilde" unicode="~" horiz-adv-x="600" 
d="M407 292q31 0 50.5 20t36.5 44l27 -53q-15 -29 -43 -52t-72 -23q-24 0 -52 9.5t-55 20.5q-15 5 -32 14q-20 9 -39 16.5t-35 7.5q-31 0 -50.5 -20t-36.5 -45l-27 53q15 28 44 52t71 24q24 0 52 -9t55 -21q10 -5 17.5 -7.5t14.5 -6.5q20 -10 39 -17t35 -7z" />
    <glyph glyph-name="uni00A0" unicode="&#xa0;" horiz-adv-x="300" 
d="M0 0z" />
    <glyph glyph-name="exclamdown" unicode="&#xa1;" horiz-adv-x="400" 
d="M176 490h48l15 -530h-78zM239 615h-78v80h78v-80z" />
    <glyph glyph-name="currency" unicode="&#xa4;" horiz-adv-x="900" 
d="M146 320q0 55 19.5 107t54.5 94q-29 29 -48 47.5t-31 30.5l-19 19l-13 13l28 29l110 -113q42 36 94 57t109 21t108.5 -20.5t93.5 -55.5q26 27 54.5 56t54.5 55l27 -28l-110 -110q35 -42 56 -94t21 -108q0 -58 -20.5 -109t-56.5 -93l110 -110l-27 -28l-109 111
q-44 -35 -95.5 -55t-106.5 -20q-57 0 -109 20.5t-94 55.5q-26 -27 -55 -56t-55 -56l-27 28l111 112q-35 42 -55 92.5t-20 107.5zM191 320q0 -54 20 -101t56 -82q35 -36 82 -56t101 -20t101.5 20t82.5 56q35 35 55.5 82t20.5 101t-20.5 101.5t-55.5 82.5t-82.5 55.5
t-101.5 20.5t-101 -20.5t-82 -55.5q-36 -35 -56 -82.5t-20 -101.5z" />
    <glyph glyph-name="section" unicode="&#xa7;" horiz-adv-x="600" 
d="M296 713q35 0 63 -12t45 -33q6 -8 11.5 -18t7.5 -19q2 -10 -1 -18.5t-13 -14.5q-14 -9 -27.5 -5.5t-23.5 17.5q-8 12 -11.5 24.5t-3.5 24.5q0 23 -57 24q-56 1 -56 -71q0 -41 27.5 -82t82.5 -80q54 -39 82 -85t23 -94q-2 -20 -18.5 -39t-51.5 -35q23 -28 40.5 -57.5
t17.5 -58.5q0 -18 -5.5 -38.5t-19.5 -39.5q-20 -29 -48 -45t-63 -15q-72 1 -113 46q-31 37 -17 62l-1 -1q8 12 19.5 16t25.5 0q14 -8 23.5 -21t8.5 -25q-1 -10 -4 -16t8 -11q25 -13 52 -12.5t46 24.5q14 18 14.5 39.5t-5.5 40.5q-9 24 -26 47.5t-38 42.5q-28 24 -55 51
t-52 55q-15 19 -23 37t-8 38q0 27 14 53t40 34l35 10l-24 33q-33 40 -39 101q-3 27 5.5 50.5t25.5 40.5q16 16 38.5 25.5t48.5 9.5zM261 415q-20 5 -36.5 -2.5t-16.5 -28.5q0 -24 8.5 -43.5t22.5 -36.5q16 -19 33 -33t33 -23q15 -9 27.5 -13.5t20.5 -4.5q26 0 37.5 12.5
t9.5 29.5q-3 24 -15.5 43.5t-28.5 35.5q-19 20 -40 38t-55 26z" />
    <glyph glyph-name="dieresis" unicode="&#xa8;" horiz-adv-x="940" 
d="M190 405h90v-95h-90v95zM660 405h90v-95h-90v95z" />
    <glyph glyph-name="ordfeminine" unicode="&#xaa;" horiz-adv-x="900" 
d="M663 235q0 -24 4 -43t9 -31h-21.5t-44.5 -2q-7 15 -9.5 39t-2.5 54l-23 -23t-23 -22q-12 -11 -22.5 -19t-17.5 -12q-24 -13 -52 -22.5t-60 -10.5q-30 -2 -59.5 4.5t-53.5 21.5q-25 15 -42.5 38t-22.5 56q-2 9 -2 17.5v16.5q0 42 18 69.5t48 45.5q30 17 69.5 26.5
t83.5 15.5l27 3q25 2 47 6.5t52 19.5q33 16 33 56q0 30 -14 50t-36 33q-22 12 -48.5 17.5t-51.5 5.5q-24 0 -48.5 -5t-44.5 -17t-33.5 -31t-15.5 -47h-68q1 39 20 68.5t49 49.5q29 19 66 29t75 10q34 0 72 -9.5t70 -28.5q32 -20 52.5 -50.5t20.5 -71.5v-307zM598 460
q-38 -29 -75 -38t-74 -13q-28 -3 -57.5 -12t-52.5 -25q-24 -16 -37 -39t-8 -55q6 -41 40.5 -62t77.5 -18q86 6 138 56q48 48 48 91v115zM160 14h580v-46h-580v46z" />
    <glyph glyph-name="uni00AD" unicode="&#xad;" horiz-adv-x="900" 
d="M175 338h550v-66h-550v66z" />
    <glyph glyph-name="registered" unicode="&#xae;" horiz-adv-x="1000" 
d="M322 565h187q41 0 77.5 -6.5t64.5 -21.5q27 -16 43 -43.5t16 -69.5q0 -20 -9 -39t-25 -34q-16 -16 -36.5 -28.5t-44.5 -19.5q16 -10 31 -25.5t24 -32.5q23 -54 47 -105.5t47 -104.5h-74l-78 184q-17 37 -42.5 46.5t-55.5 9.5h-107v-240h-65v530zM387 332h129q28 0 51.5 7
t40.5 20t27 30t10 37q0 38 -30.5 59.5t-87.5 21.5h-140v-175zM55 300q0 92 35 173t96 142q60 60 141 95t173 35t173 -35t142 -95q60 -61 95 -142t35 -173t-35 -173t-95 -142q-61 -60 -142 -95t-173 -35t-173 35t-141 95q-61 61 -96 142t-35 173zM95 300q0 -84 32 -157.5
t87 -128.5t128.5 -87t157.5 -32t157.5 32t128.5 87t87 128.5t32 157.5t-32 157.5t-87 128.5t-128.5 87t-157.5 32t-157.5 -32t-128.5 -87t-87 -128.5t-32 -157.5z" />
    <glyph glyph-name="degree" unicode="&#xb0;" horiz-adv-x="500" 
d="M30 680q0 19 7.5 36.5t20.5 30.5t30.5 20.5t36.5 7.5t36.5 -7.5t30.5 -20.5t20.5 -30.5t7.5 -36.5t-7.5 -36.5t-20.5 -30.5t-30.5 -20.5t-36.5 -7.5t-36.5 7.5t-30.5 20.5t-20.5 30.5t-7.5 36.5zM65 680q0 -27 16.5 -43.5t43.5 -16.5t43.5 16.5t16.5 43.5t-16.5 43.5
t-43.5 16.5t-43.5 -16.5t-16.5 -43.5z" />
    <glyph glyph-name="plusminus" unicode="&#xb1;" horiz-adv-x="900" 
d="M175 478h242v232h66v-232h242v-66h-242v-232h-66v232h-242v66zM175 86h550v-66h-550v66z" />
    <glyph glyph-name="uni00B2" unicode="&#xb2;" horiz-adv-x="450" 
d="M115 589q-7 -8 -15 -19t-15 -25h142v-35h-197q2 29 16.5 56t49.5 55q23 18 39 30.5t26 22.5q10 9 14.5 17t5.5 17q1 20 -12.5 34t-34.5 14q-26 0 -39 -15t-15 -38h-45q1 18 10 34t23 29q14 12 31.5 19t35.5 7q17 0 33.5 -6t29.5 -17q12 -11 20 -26t8 -34q0 -35 -18 -51
q-4 -4 -9 -8t-14 -11q-10 -7 -26.5 -19t-43.5 -31z" />
    <glyph glyph-name="uni00B3" unicode="&#xb3;" horiz-adv-x="450" 
d="M69 590q2 -20 16.5 -33t40.5 -13q20 0 35 12t17 30q5 31 -39 45q-5 2 -15 2.5t-19 0.5v39h3q10 0 20.5 0.5t15.5 3.5q10 7 17.5 15.5t9.5 21.5q2 14 -11.5 28t-33.5 14q-26 0 -37 -11t-12 -31h-46q7 35 32 56.5t63 21.5q42 0 66 -22t24 -53q0 -22 -15 -38t-28 -24
q18 -11 34 -27.5t16 -39.5q0 -36 -27 -59.5t-70 -23.5q-18 0 -35.5 6t-31.5 17t-23.5 26.5t-12.5 35.5h46z" />
    <glyph glyph-name="acute" unicode="&#xb4;" horiz-adv-x="400" 
d="M113 506q4 14 20 57t39 98q8 17 16 32.5t17 27.5q10 15 23 18t27 -4l-1 1q26 -17 11 -49q-7 -15 -16.5 -30t-19.5 -28q-34 -45 -63.5 -80.5t-45.5 -47.5z" />
    <glyph glyph-name="paragraph" unicode="&#xb6;" horiz-adv-x="800" 
d="M538 730v-830h-32v799h-112v-799h-32v471q-89 6 -139.5 51.5t-50.5 130.5q0 36 14 68t38 56t55.5 38.5t65.5 14.5h193z" />
    <glyph glyph-name="periodcentered" unicode="&#xb7;" horiz-adv-x="400" 
d="M155 405h90v-95h-90v95z" />
    <glyph glyph-name="cedilla" unicode="&#xb8;" horiz-adv-x="400" 
d="M292 10l-142 -146l-41 41l113 105q-26 25 -56.5 53.5t-55.5 54.5l39 39z" />
    <glyph glyph-name="uni00B9" unicode="&#xb9;" horiz-adv-x="450" 
d="M95 510v188h-65v36q29 0 48 14q10 4 16 14.5t8 20.5h38v-273h-45z" />
    <glyph glyph-name="ordmasculine" unicode="&#xba;" horiz-adv-x="900" 
d="M680 423q0 -54 -13 -104t-41 -89t-71.5 -62.5t-104.5 -23.5q-57 0 -100.5 22.5t-71.5 61.5q-29 38 -43.5 88.5t-14.5 106.5q0 52 13.5 102t42.5 90q28 39 71.5 63t102.5 24q58 0 101 -22t72 -60q28 -39 42.5 -89.5t14.5 -107.5zM614 423q0 35 -9 74t-28 72
q-20 32 -51.5 53.5t-75.5 21.5q-42 0 -72.5 -21t-50.5 -53q-21 -33 -31 -72t-10 -75q0 -33 9.5 -71.5t29.5 -71.5q20 -34 51 -56t74 -22q42 0 73 20.5t52 52.5q20 32 29.5 71t9.5 77zM160 14h580v-46h-580v46z" />
    <glyph glyph-name="onequarter" unicode="&#xbc;" horiz-adv-x="900" 
d="M278 -86v60l193 249h57v-266h59v-43h-59v-52h-51v52h-199zM441 381v257h-93v37q16 1 34.5 5t35.5 14q11 8 20 21t11 28h48v-362h-56zM118 320h666v-30h-666v30zM477 150l-149 -193h149v193z" />
    <glyph glyph-name="onehalf" unicode="&#xbd;" horiz-adv-x="900" 
d="M431 -39q-20 -12 -33.5 -30.5t-21.5 -38.5h214v-40h-278q2 34 19.5 71.5t68.5 75.5q11 8 21 14.5t20 11.5q15 8 29 16.5t26 19.5t20.5 25.5t12.5 34.5q1 12 -3 24.5t-14 23.5q-10 10 -24.5 17t-34.5 7q-35 0 -55 -21.5t-23 -49.5h-56q1 25 13 45t31 34q18 14 41.5 21.5
t48.5 7.5q23 0 47.5 -6.5t44.5 -19.5q19 -13 31.5 -33.5t12.5 -47.5q0 -19 -6 -34t-16 -27q-11 -13 -24.5 -23.5t-28.5 -20.5h1zM436 381v258h-93v37q18 2 37.5 7t28.5 11q33 21 36 49h47v-362h-56zM118 320h666v-30h-666v30z" />
    <glyph glyph-name="threequarters" unicode="&#xbe;" horiz-adv-x="900" 
d="M278 -86v58q48 60 96.5 124t96.5 127h57v-267h59v-42h-59v-52h-51v52h-199zM477 149l-149 -193h149v193zM361 476q2 -29 28 -46t59 -17q39 0 62.5 19t25.5 46q2 20 -13 36.5t-42 27.5q-10 4 -25 4.5t-23 0.5v43q14 1 29.5 3.5t22.5 5.5q20 10 31.5 23t11.5 30
q0 32 -25 47t-55 15q-32 0 -51 -16t-22 -41h-56q1 22 13.5 39.5t31.5 29.5q18 12 40 18.5t44 6.5q21 0 44.5 -5.5t43.5 -16.5q20 -12 33 -30.5t13 -43.5q0 -13 -7 -26t-19 -24q-12 -12 -27.5 -21.5t-32.5 -15.5q44 -11 71.5 -36t27.5 -53q0 -27 -13.5 -47.5t-34.5 -33.5
q-21 -14 -47 -21t-51 -7t-49 6.5t-43 20.5q-20 13 -32.5 33t-15.5 46h52zM118 316h666v-30h-666v30z" />
    <glyph glyph-name="questiondown" unicode="&#xbf;" horiz-adv-x="940" 
d="M685 153q1 -53 -14 -94.5t-43 -70.5q-29 -28 -70 -43t-93 -15q-39 0 -76.5 12.5t-67.5 35.5q-30 24 -48 56t-18 71q0 31 9.5 59t25.5 52q16 23 37 41t45 30q29 15 47 42t18 62v124h70v-121q0 -54 -24.5 -91t-66.5 -61h1q-42 -22 -67 -59t-25 -83q0 -28 13.5 -49t35.5 -35
q21 -14 46.5 -21t49.5 -7q39 0 67 13t46 35q17 22 24 52t5 65h73zM517 615h-90v90h90v-90z" />
    <glyph glyph-name="AE" unicode="&#xc6;" horiz-adv-x="940" 
d="M853 674v-58h-379l111 -252h248v-58h-223q19 -46 40 -94.5t41 -93.5l41 -94h131v-58h-182l-84 190h-391q-26 -63 -43 -101.5t-28 -62.5q-4 -7 -6.5 -13t-5.5 -13h-79l308 708h501zM389 580l-158 -366h340l-160 366l-11 30z" />
    <glyph glyph-name="Eth" unicode="&#xd0;" horiz-adv-x="850" 
d="M268 269h250v-63h-248v-174h143q67 0 117.5 23t84.5 62t50.5 91.5t16.5 111.5q0 63 -17.5 116t-51.5 92q-34 38 -84 59t-116 21h-145v-339zM200 206h-158v63h158v405h223q74 0 135.5 -27.5t106.5 -75.5q44 -48 68.5 -112.5t24.5 -138.5q0 -81 -24 -146t-68 -111
q-44 -47 -106 -72t-137 -25h-223v240z" />
    <glyph glyph-name="multiply" unicode="&#xd7;" horiz-adv-x="900" 
d="M213 119l191 191l-191 191l46 46l191 -191l191 191l46 -46l-191 -191l191 -191l-46 -46l-191 191l-191 -191z" />
    <glyph glyph-name="Oslash" unicode="&#xd8;" horiz-adv-x="900" 
d="M450 -38q-59 0 -106 15.5t-83 42.5q-40 -54 -63.5 -86.5t-31.5 -44.5q-5 3 -6 3.5t-9 6.5l-17 12l98 134q-51 52 -75.5 124.5t-24.5 150.5q0 71 21.5 136t62.5 115q40 49 99.5 78t134.5 29q59 0 107.5 -18t86.5 -50l100 137l32 -23l-103 -141q47 -51 71 -119t24 -144
q0 -68 -18.5 -132.5t-57.5 -114.5t-99 -80.5t-143 -30.5zM450 612q-56 0 -101.5 -23t-78.5 -62q-33 -40 -51 -93.5t-18 -113.5q1 -58 18 -115.5t55 -101.5l329 451q-31 27 -69.5 42.5t-83.5 15.5zM450 28q67 0 114 26.5t77 68.5q29 42 43 94t15 103q0 60 -18 112.5t-50 92.5
l-26 -35q-98 -134 -173.5 -236t-129.5 -177q28 -23 64.5 -36t83.5 -13z" />
    <glyph glyph-name="Thorn" unicode="&#xde;" horiz-adv-x="700" 
d="M208 -83h-71v776h71v-219q35 49 82.5 76.5t104.5 27.5q55 0 98.5 -26t73.5 -68t45.5 -95t15.5 -107q0 -49 -14.5 -101t-43.5 -95t-72.5 -71t-102.5 -28q-57 0 -104.5 27.5t-82.5 76.5v-174zM381 509q-45 0 -78 -20.5t-54 -52.5q-21 -33 -31 -73.5t-10 -80.5q0 -38 9 -78
t30 -73q20 -33 53 -54t81 -21q45 0 77 21t53 54q21 32 31 72t10 79q0 36 -9 76t-29 74q-21 33 -53.5 55t-79.5 22z" />
    <glyph glyph-name="germandbls" unicode="&#xdf;" horiz-adv-x="700" 
d="M137 -53v544q-3 49 13.5 85t46.5 60q29 24 67 35.5t77 11.5h19q35 0 70 -10.5t63 -31.5q27 -21 45.5 -51t20.5 -69q3 -60 -24 -101.5t-90 -71.5q33 -15 59.5 -32t45.5 -39q18 -23 28 -52.5t10 -69.5q0 -51 -20 -87t-53 -58q-34 -23 -77.5 -33t-91.5 -10h-39v62h21
q38 0 72.5 6.5t60.5 22.5t41.5 42.5t15.5 66.5q0 38 -14 64.5t-39 42.5q-26 16 -61 23t-76 7h-11v64h6q34 0 64.5 7t53.5 23q22 15 35 40t13 61q0 63 -41.5 94t-111.5 31q-28 0 -52.5 -9.5t-42.5 -25.5q-18 -17 -28 -39t-10 -48v-555h-66z" />
    <glyph glyph-name="ae" unicode="&#xe6;" horiz-adv-x="710" 
d="M495 -43q-31 0 -64.5 22t-66.5 60q2 -17 3 -33.5t5 -32.5h-62l-4 21q0 2 -0.5 13.5t-0.5 13.5q-28 -25 -61 -43.5t-61 -20.5q-26 -2 -50.5 6t-43.5 23q-19 16 -30.5 39t-11.5 50q0 48 17 78.5t43 48.5t57.5 27t61.5 14q15 5 28.5 8.5t24.5 10.5q10 6 16 16.5t6 28.5
q0 19 -4.5 37t-14.5 32t-26.5 23t-39.5 9q-36 0 -60 -30t-23 -79h-68q0 36 12 66.5t33 52.5q20 22 47.5 34.5t58.5 12.5q52 0 88 -28t53 -75q26 46 57.5 74.5t80.5 28.5q75 0 121 -67.5t48 -198.5h-275q0 -88 30 -137t76 -49q37 0 55.5 27t26.5 65h71q-20 -66 -57.5 -107
t-95.5 -41zM304 206q-18 -5 -35 -9.5t-33 -5.5q-22 -3 -43.5 -9.5t-38.5 -18.5t-27.5 -30t-10.5 -43q0 -18 7.5 -31.5t19.5 -22.5q11 -9 25 -13.5t27 -4.5q18 0 37.5 7.5t35.5 20.5q16 12 26 29t10 35v96zM590 253q-2 67 -24.5 110t-70.5 43q-18 0 -35.5 -12t-31.5 -32
q-15 -21 -25.5 -49t-14.5 -60h202z" />
    <glyph glyph-name="eth" unicode="&#xf0;" horiz-adv-x="540" 
d="M240 272q-6 9 -11 17l-10 16l112 97q-15 7 -30.5 12t-30.5 5q-43 0 -77.5 -30t-51.5 -75h-76q31 71 85 111.5t120 40.5q27 0 52 -7t51 -24q23 20 44.5 39t44.5 38q8 -10 13.5 -16t12.5 -14l-81 -68q39 -36 61.5 -89t22.5 -116q0 -51 -16 -97t-45 -80q-30 -35 -70.5 -55
t-89.5 -20q-53 0 -94 21.5t-68 58.5q-28 36 -42 83.5t-12 98.5h366q-3 42 -17 81t-41 73zM128 174q3 -31 13.5 -61.5t27.5 -54.5q17 -25 42.5 -40t58.5 -15q54 0 91.5 45.5t48.5 125.5h-282z" />
    <glyph glyph-name="divide" unicode="&#xf7;" horiz-adv-x="900" 
d="M770 286h-640v58h640v-58zM390 590q0 25 17.5 42.5t42.5 17.5t42.5 -17.5t17.5 -42.5t-17.5 -42.5t-42.5 -17.5t-42.5 17.5t-17.5 42.5zM390 40q0 25 17.5 42.5t42.5 17.5t42.5 -17.5t17.5 -42.5t-17.5 -42.5t-42.5 -17.5t-42.5 17.5t-17.5 42.5z" />
    <glyph glyph-name="oslash" unicode="&#xf8;" horiz-adv-x="540" 
d="M93 -71q-10 7 -16.5 12.5t-14.5 10.5l57 76q-32 39 -48.5 85.5t-16.5 96.5q0 51 14.5 97.5t42.5 82.5q27 35 66.5 56t89.5 21q31 0 62.5 -10.5t60.5 -31.5q14 20 28 40.5t25 37.5l33 -21l-59 -88q35 -38 52 -86t17 -98q0 -51 -15.5 -97t-43.5 -80q-28 -35 -68.5 -55.5
t-89.5 -20.5q-63 0 -126 48zM267 4q41 0 69.5 20t46.5 51q17 30 25 66.5t8 68.5q0 29 -7 65t-26 71q-54 -76 -106 -148.5t-105 -149.5q22 -18 45 -31t50 -13zM267 418q-40 0 -67.5 -21t-44.5 -52q-17 -32 -24.5 -68.5t-7.5 -66.5t6 -64t21 -70q14 20 34.5 49t43.5 61
q22 32 44.5 64.5t41.5 59.5q18 26 30.5 44t14.5 21q-19 19 -44 31t-48 12z" />
    <glyph glyph-name="thorn" unicode="&#xfe;" horiz-adv-x="600" 
d="M84 673h67v-293q35 38 78.5 62.5t97.5 24.5q37 0 72 -14t62 -38q27 -25 43.5 -59.5t16.5 -74.5v-314h-67v303q0 66 -38 104.5t-101 38.5q-28 0 -57 -11t-53 -30t-39 -45.5t-15 -56.5v-303h-67v706z" />
    <glyph glyph-name="dcroat" unicode="&#x111;" horiz-adv-x="640" 
d="M281 369q-36 0 -64.5 -16t-47.5 -42q-20 -26 -30.5 -58.5t-10.5 -64.5q0 -35 11 -67t32 -56q20 -25 48 -39.5t62 -14.5q36 0 65.5 15t50.5 40t32.5 57t11.5 65q0 36 -12 68.5t-33 57.5q-22 25 -51.5 40t-63.5 15zM441 501h-302v50h302v122h67v-122h85v-50h-85v-528h-67
v75q-39 -47 -82.5 -69t-91.5 -22q-46 0 -84.5 19t-65.5 51q-28 31 -43 73t-15 88q0 50 15 93t42 75q27 31 65 49t83 18q47 0 92.5 -20t84.5 -73v171z" />
    <glyph glyph-name="Hbar" unicode="&#x126;" horiz-adv-x="740" 
d="M126 551v122h67v-122h354v122h67v-122h97v-50h-97v-534h-67v330h-354v-330h-67v534h-97v50h97zM193 501v-154h354v154h-354z" />
    <glyph glyph-name="hbar" unicode="&#x127;" horiz-adv-x="660" 
d="M149 673h67v-122h295v-50h-295v-171q35 38 78.5 62t97.5 24q37 0 72 -14t62 -38q27 -25 43.5 -59.5t16.5 -74.5v-263h-67v253q0 66 -38 104t-101 38q-28 0 -57 -11t-53 -30t-39 -45t-15 -56v-253h-67v534h-120v50h120v122z" />
    <glyph glyph-name="dotlessi" unicode="&#x131;" horiz-adv-x="300" 
d="M184 -33h-68v496h68v-496zM188 557h-76v81h76v-81z" />
    <glyph glyph-name="IJ" unicode="&#x132;" horiz-adv-x="710" 
d="M97 673h68v-706h-68v706zM305 184v-65q2 -54 29.5 -86.5t87.5 -32.5q27 0 49.5 8.5t39.5 24.5q16 16 25.5 38t9.5 49v553h68v-545q0 -45 -17 -79.5t-45 -57.5q-29 -22 -65.5 -33.5t-75.5 -11.5q-79 0 -126 49t-47 132v57h67z" />
    <glyph glyph-name="ij" unicode="&#x133;" horiz-adv-x="480" 
d="M166 -33h-67v496h67v-496zM170 557h-75v81h75v-81zM385 557h-73v81h73v-81zM381 -57q0 -20 -4.5 -38t-13.5 -32t-23 -22.5t-33 -8.5h-73v53h26q35 1 45.5 17t10.5 38v513h65v-520z" />
    <glyph glyph-name="kgreenlandic" unicode="&#x138;" horiz-adv-x="570" 
d="M149 -33h-65v496h65v-263l261 263h65l-200 -204q29 -34 61.5 -71t66.5 -74q34 -38 67.5 -75.5t63.5 -71.5h-75l-224 253l-86 -83v-170z" />
    <glyph glyph-name="Ldot" unicode="&#x13f;" horiz-adv-x="600" 
d="M166 673v-654h360v-52h-427v706h67zM423 253q0 21 15.5 36.5t36.5 15.5t36.5 -15.5t15.5 -36.5t-15.5 -36.5t-36.5 -15.5t-36.5 15.5t-15.5 36.5z" />
    <glyph glyph-name="ldot" unicode="&#x140;" horiz-adv-x="420" 
d="M171 673v-706h-67v706h67zM258 403q0 21 15.5 36.5t36.5 15.5t36.5 -15.5t15.5 -36.5t-15.5 -36.5t-36.5 -15.5t-36.5 15.5t-15.5 36.5z" />
    <glyph glyph-name="Lslash" unicode="&#x141;" horiz-adv-x="600" 
d="M279 475l29 -32l-118 -104v-320h356v-52h-422v313l-61 -54l-28 -24q-8 11 -12 17.5t-12 16.5l113 97v340h66v-279z" />
    <glyph glyph-name="lslash" unicode="&#x142;" horiz-adv-x="420" 
d="M37 145l-29 39l158 140v349h68v-295q33 29 66 59t65 59q8 -12 13.5 -18.5t13.5 -17.5l-158 -146v-347h-68v290z" />
    <glyph glyph-name="napostrophe" unicode="&#x149;" horiz-adv-x="600" 
d="M84 465h67v-65q34 35 78.5 57.5t97.5 22.5q37 0 72 -13.5t62 -37.5q27 -25 43.5 -58.5t16.5 -73.5v-330h-67v323q0 30 -10 56t-28 45q-19 18 -44.5 28.5t-56.5 10.5q-29 0 -58 -11t-52 -30q-24 -19 -39 -45.5t-15 -56.5v-320h-67v498z" />
    <glyph glyph-name="Eng" unicode="&#x14a;" horiz-adv-x="621" 
d="M302 -28q91 22 135.5 75t44.5 144q0 40 -10.5 79.5t-31.5 71.5q-22 31 -54 50.5t-75 19.5q-42 0 -70.5 -20.5t-45.5 -51.5q-18 -31 -26 -68t-8 -71v-200h-67v672h67v-283q32 35 71.5 55.5t78.5 20.5q57 0 102.5 -24t77.5 -63q31 -39 48 -88t17 -100q0 -62 -18.5 -109.5
t-52.5 -80.5q-34 -34 -80.5 -54t-102.5 -26v51z" />
    <glyph glyph-name="eng" unicode="&#x14b;" horiz-adv-x="600" 
d="M454 286q0 66 -38 104t-101 38q-29 -1 -58 -13t-52 -31q-24 -20 -39 -45t-15 -53v-319h-67v498h67v-65q37 42 81 60t95 18q37 0 72 -13t62 -37t43.5 -57.5t16.5 -74.5v-331q0 -22 -4 -43t-13 -38q-9 -16 -23.5 -26.5t-35.5 -10.5h-85v48h23t23 1q16 1 25.5 7.5t14.5 16.5
q5 11 6.5 24t1.5 25v317z" />
    <glyph glyph-name="OE" unicode="&#x152;" horiz-adv-x="850" 
d="M781 626h-325q50 -46 81 -115t38 -152h191v-48h-190q-9 -193 -121 -297h336v-47h-473q-69 5 -118.5 37.5t-80.5 81.5t-45.5 109.5t-14.5 122.5q0 64 17 125.5t50 110.5t81 81t110 38h464v-47zM317 620q-56 0 -93 -31t-59 -76q-22 -46 -30.5 -99t-8.5 -96q0 -47 9.5 -99.5
t32.5 -96.5q22 -44 58.5 -73t90.5 -29q37 0 65.5 14t50.5 38q21 23 36 53.5t24 63.5t13 66.5t4 62.5q0 46 -10 99t-33 98t-59.5 75t-90.5 30z" />
    <glyph glyph-name="oe" unicode="&#x153;" horiz-adv-x="710" 
d="M218 408q-21 0 -36.5 -11t-26.5 -29q-12 -18 -20 -40t-12 -44q-5 -22 -7 -41.5t-2 -31.5q0 -22 4.5 -55.5t16.5 -64.5q11 -32 31 -54.5t52 -22.5t53 23t33 55t16.5 65t4.5 54q0 22 -5.5 55.5t-17.5 65.5q-13 31 -33.5 53.5t-50.5 22.5zM600 255q-2 67 -26.5 110t-69.5 43
q-40 0 -71 -39.5t-38 -113.5h205zM214 466q43 0 80 -35t63 -92q28 57 67 92t80 35q79 0 124 -64.5t46 -201.5h-279q0 -24 5.5 -56t18.5 -61t33.5 -49t51.5 -20q37 0 55.5 27t30.5 64h74q-11 -30 -26 -56.5t-34 -46.5q-20 -21 -45 -33t-56 -12q-40 0 -77.5 34t-67.5 90
q-26 -56 -62.5 -90t-81.5 -34q-48 0 -80 25t-51 63q-20 38 -28 82.5t-8 83.5q0 41 9 86t30 83q20 37 51.5 61.5t76.5 24.5z" />
    <glyph glyph-name="Tbar" unicode="&#x166;" horiz-adv-x="670" 
d="M303 330h-221v55h221v235h-221v55h506v-55h-216v-235h216v-55h-216v-370h-69v370z" />
    <glyph glyph-name="tbar" unicode="&#x167;" horiz-adv-x="480" 
d="M204 325v125h-54v55h54v155h67v-155h59v-55h-59v-125h154v-55h-154v-214q0 -10 1 -17t8 -12q6 -5 27 -6t38 -1v-53h-68q-24 0 -38.5 9t-21.5 23q-8 15 -10.5 33t-2.5 36v202h-149v55h149z" />
    <glyph glyph-name="caron" unicode="&#x2c7;" horiz-adv-x="600" 
d="M300 598l-196 112q8 12 14 20.5t13 19.5l169 -95q23 14 48.5 28t50.5 28q18 11 35.5 19.5t34.5 19.5l26 -41z" />
    <glyph glyph-name="uni02D0" unicode="&#x2d0;" horiz-adv-x="600" 
d="M300 474l-67 121h134zM300 236l67 -121h-134z" />
    <glyph glyph-name="breve" unicode="&#x2d8;" horiz-adv-x="600" 
d="M511 716q-39 -45 -92.5 -72.5t-118.5 -27.5t-118.5 27.5t-92.5 72.5l49 34q28 -37 72.5 -61t89.5 -24q46 0 90.5 23.5t71.5 61.5z" />
    <glyph glyph-name="dotaccent" unicode="&#x2d9;" horiz-adv-x="600" 
d="M230 690q0 29 20.5 49.5t49.5 20.5t49.5 -20.5t20.5 -49.5t-20.5 -49.5t-49.5 -20.5t-49.5 20.5t-20.5 49.5z" />
    <glyph glyph-name="ring" unicode="&#x2da;" horiz-adv-x="600" 
d="M210 690q0 37 26.5 63.5t63.5 26.5t63.5 -26.5t26.5 -63.5t-26.5 -63.5t-63.5 -26.5t-63.5 26.5t-26.5 63.5zM240 690q0 -26 17 -43t43 -17t43 17t17 43t-17 43t-43 17t-43 -17t-17 -43z" />
    <glyph glyph-name="ogonek" unicode="&#x2db;" horiz-adv-x="600" 
d="M351 150l33 -32q-25 -25 -56 -54t-56 -54l112 -105l-34 -35l-136 140z" />
    <glyph glyph-name="hungarumlaut" unicode="&#x2dd;" horiz-adv-x="600" 
d="M153 559q5 18 18 57.5t33 87.5q13 31 29 56v-1q13 16 29 16q6 0 12 -2l12 -4h-1q19 -10 5 -35q-6 -15 -13.5 -30t-17.5 -28q-28 -39 -56 -72.5t-45 -47.5zM280 561q10 31 17 54t12 40q5 16 9 27.5t8 20.5q5 13 13 29t16 27q19 25 49 12q28 -13 14 -37q-6 -14 -14 -28.5
t-22 -29.5q-33 -42 -59.5 -74t-38.5 -44z" />
    <glyph glyph-name="Alpha" unicode="&#x391;" horiz-adv-x="700" 
d="M444 660q11 17 32 17q22 0 31 -15q29 -150 61 -306.5t58 -307.5q4 -23 15 -28.5t35 -7.5q6 -1 13 -1h16q-2 -14 -3.5 -23t-3.5 -22h-222q2 14 3.5 23t3.5 22h16t13 1q26 2 33.5 9.5t2.5 27.5q-8 35 -13.5 72.5t-13.5 73.5h-275q-14 -22 -22.5 -38t-15.5 -31
q-8 -15 -17.5 -32.5t-24.5 -43.5q-17 -29 -10.5 -34t43.5 -5h33l-13 -45h-214q2 12 5 23t5 22h16.5t14.5 1q25 2 36.5 12t22.5 26q2 2 5 7t14 24q10 18 31 55t59 105q37 67 93.5 169t137.5 250h-1zM455 536l-5 32l-18 -32q-39 -70 -82 -147t-80 -146h241z" />
    <glyph glyph-name="Beta" unicode="&#x392;" horiz-adv-x="750" 
d="M17 -34q4 13 8 23.5t8 22.5h27.5t20.5 2q13 1 21.5 3t14.5 7q5 4 8 11.5t5 19.5l98 528q5 25 -3 32.5t-33 9.5h-6l-47 3q2 14 4 23.5t4 22.5h315q39 0 80.5 -7.5t69.5 -29.5h-1q27 -23 42 -60.5t7 -78.5q-14 -55 -52 -99t-99 -63q26 -10 49.5 -23.5t41.5 -30.5t29 -39
t11 -49q0 -8 -0.5 -19t-2.5 -19q-11 -61 -47 -98t-84 -57q-49 -21 -103.5 -28t-101.5 -7h-284zM208 52q-6 -29 9 -34.5t49 -5.5q11 0 30.5 0.5t40.5 2.5q5 0 9.5 0.5t9.5 0.5q33 1 66 11.5t60 28.5t46 44t24 60l2 17q0 3 0.5 7t1.5 9q1 4 1 10q0 36 -22 56.5t-53 31.5
q-31 10 -64 12.5t-57 2.5h-107zM262 353h55q38 0 76.5 2.5t62.5 12.5h-1q20 7 40.5 19t38.5 28q17 16 29.5 35.5t16.5 40.5q2 7 2.5 15t0.5 15q0 25 -11 44.5t-29 32.5q-22 20 -65 25t-103 5q-22 0 -34 -0.5t-19 -4.5q-7 -5 -10 -14t-6 -27z" />
    <glyph glyph-name="Gamma" unicode="&#x393;" horiz-adv-x="740" 
d="M226 582q1 15 -1 23.5t-7 12.5t-14.5 5t-24.5 2q-2 0 -5 0.5t-5 0.5q-7 1 -18 1.5t-20 0.5l13 46h535q5 0 9 -8t5 -21q-8 -62 -14.5 -114t-14.5 -103h-35v2q0 6 0.5 15.5t0.5 22.5q0 56 -9 89t-25 45q-20 12 -76 19t-144 7q-20 0 -32 -1t-19 -5q-8 -5 -11.5 -13.5
t-5.5 -23.5l-91 -508q-3 -24 -3 -35q0 -17 8.5 -21.5t34.5 -6.5q8 -2 19 -2h23q-2 -12 -3.5 -23.5t-3.5 -22.5h-274l8 46q12 0 20 0.5t17 1.5q2 0 4.5 0.5t4.5 0.5q20 1 31.5 6t18.5 13q6 8 9 20t6 26z" />
    <glyph glyph-name="uni0394" unicode="&#x394;" horiz-adv-x="660" 
d="M403 555q-69 -130 -138.5 -252t-140.5 -249h1q-9 -14 -13 -22t-1 -11q2 -4 11.5 -4.5t27.5 -0.5h302q12 0 23 1t19 4t12 9.5t2 18.5zM593 49q2 -9 3 -19.5t1 -18.5q0 -18 -6 -31.5t-25 -13.5h-468q-29 0 -41 8.5t-12 23.5q0 11 4.5 24.5t12.5 27.5q85 148 171 303
t167 305q7 9 17.5 14.5t21.5 5.5q8 0 15.5 -5.5t9.5 -17.5z" />
    <glyph glyph-name="Epsilon" unicode="&#x395;" horiz-adv-x="750" 
d="M643 210l-51 -218q-4 -24 -18 -24h-550l9 46h26t22 2q25 3 37.5 9t15.5 28q10 61 22.5 128.5t24.5 135.5t24 135.5t23 130.5q2 18 -7.5 31.5t-31.5 13.5h-51q2 14 4 23.5t4 22.5h535q11 0 14 -6t1 -23q-5 -38 -10 -78.5t-10 -78.5q-2 -14 -3.5 -30t-3.5 -30h-26
q1 13 1 27.5v25.5q0 48 -7 78t-23 41q-23 14 -82.5 21t-150.5 7q-20 0 -33 -1t-21 -5q-8 -5 -12.5 -13.5t-6.5 -23.5q-9 -54 -19.5 -117.5t-18.5 -117.5q118 0 145 16q29 14 59 103h26l-51 -287h-25v33q0 62 -24 73q-23 15 -138 15l-46 -249q-2 -13 -2 -21t5 -12t17 -5.5
t33 -1.5q202 0 252 26q51 27 95 170h27z" />
    <glyph glyph-name="Zeta" unicode="&#x396;" horiz-adv-x="730" 
d="M442 628q-75 0 -125 -7.5t-73 -20.5q-34 -25 -80 -167q-8 -26 -24 -24q-11 1 -12 10t4 23q10 51 21 103t23 103q2 16 7.5 21t15.5 5h481q13 0 13 -13q0 -11 -12 -26q-131 -156 -265 -311t-265 -312h160q81 0 130 6.5t72 19.5q8 5 18 21t21 39q10 22 21 49t21 55
q4 8 11 16.5t12 7.5q11 -1 12.5 -9t-2.5 -19q-14 -53 -24.5 -104.5t-23.5 -103.5q-4 -24 -23 -24h-510q-14 0 -14 13q0 6 2.5 13t7.5 13q62 70 128 149t133 160q66 81 132 161t128 153h-121z" />
    <glyph glyph-name="Eta" unicode="&#x397;" horiz-adv-x="860" 
d="M600 363q8 45 18.5 98.5t19.5 99.5q11 42 -1 54q-6 6 -22.5 9.5t-50.5 3.5q2 14 4 23.5t4 22.5h255l-9 -46q-29 -1 -49.5 -5.5t-28.5 -9.5q-5 -5 -11 -20t-11 -33l-82 -485q-3 -20 -2 -31.5t7 -16.5q5 -6 14.5 -7.5t23.5 -2.5q7 -1 12.5 -1t15.5 -2q-2 -11 -2.5 -24
t-1.5 -24h-256q2 13 3.5 23.5t3.5 22.5q35 0 51 2t21 6q13 11 18.5 27t9.5 31l39 228h-334q-11 -57 -19.5 -115.5t-20.5 -115.5q-7 -40 1 -52q5 -4 23.5 -7t49.5 -4q-1 -14 -2.5 -23.5t-2.5 -22.5h-259l9 46q67 2 76 11q7 7 14 23t10 34q9 52 19.5 114t21.5 126t21.5 126
t19.5 114q5 21 5.5 35t-5.5 20t-25.5 9.5t-61.5 3.5l13 46h266l-8 -46q-65 -2 -76 -13q-8 -8 -14 -24.5t-11 -34.5l-35 -198h320z" />
    <glyph glyph-name="Theta" unicode="&#x398;" horiz-adv-x="760" 
d="M441 684q60 0 108 -25t82 -66q34 -42 52.5 -95.5t18.5 -110.5q0 -81 -31 -158t-84 -138t-123 -98t-148 -37q-64 0 -112.5 26t-80.5 68q-33 42 -49.5 95.5t-16.5 108.5q0 14 1.5 30.5t4.5 31.5q16 70 51 136.5t85 118.5q49 51 111 82t131 31zM424 631q-62 0 -109.5 -30
t-81.5 -76q-34 -47 -55 -102t-30 -104q-6 -35 -6 -76q0 -43 9 -85t31 -75q21 -33 56.5 -53.5t87.5 -20.5q66 0 115 29t83 75q34 45 54 100t28 107q2 16 3.5 33.5t1.5 35.5q0 43 -9.5 86.5t-30.5 78.5q-22 34 -58 55.5t-89 21.5zM545 400q-9 -41 -17 -79t-16 -78h-25
q0 30 -7 42.5t-21 12.5h-165q-17 0 -27 -11.5t-26 -43.5h-26l35 164h25q-1 -7 -1 -13v-10q0 -22 8 -26t21 -4h166q20 0 31 8t16 38h29z" />
    <glyph glyph-name="Iota" unicode="&#x399;" horiz-adv-x="470" 
d="M232 75q-8 -40 0 -53q8 -8 74 -10q-2 -13 -3.5 -23.5t-3.5 -22.5h-257q2 14 4 23.5t4 22.5q31 1 50.5 3.5t24.5 7.5q10 8 14 21.5t8 33.5q21 121 42.5 241t44.5 241q8 42 -1 56q-4 5 -22.5 8.5t-55.5 3.5q2 13 3.5 23.5t3.5 22.5h263l-9 -46q-65 -1 -77 -13
q-6 -6 -12.5 -23.5t-10.5 -35.5z" />
    <glyph glyph-name="Kappa" unicode="&#x39a;" horiz-adv-x="830" 
d="M241 183l-24 -119q-3 -15 -3 -23.5t5 -13.5q4 -6 15 -8t31 -3h13t20 -1q-2 -13 -5.5 -24t-6.5 -23h-254q2 14 4 23.5t4 22.5h20.5t17.5 2q19 1 30 6.5t18 14.5q6 8 9 19t5 23q21 124 36 208.5t25 139.5q9 54 14.5 83.5t7.5 43.5q3 15 3 19q5 26 -9 38.5t-40 14.5
q-5 1 -12 1.5t-15 0.5q2 13 3.5 23.5t3.5 22.5h251q-2 -11 -2.5 -23t-1.5 -23h-18t-15 -2q-38 -2 -50 -21.5t-16 -47.5l-54 -301l370 341q10 8 16 13t6 9q0 7 -22 8t-72 1q2 13 3.5 23.5t3.5 22.5h254q-2 -11 -2.5 -23t-1.5 -23h-19t-16 -2q-25 -2 -45 -11t-37 -24
q-60 -55 -123 -113.5t-123 -114.5q48 -79 99 -161t100 -159q4 -8 9 -13.5t14 -8.5t24.5 -5t39.5 -2q-2 -11 -2.5 -23t-1.5 -23h-266q2 11 2.5 23t1.5 23q30 0 48.5 2t28.5 5t12.5 8t-0.5 13q-18 28 -43 70l-50 84q-25 41 -45.5 75.5t-28.5 48.5z" />
    <glyph glyph-name="Lambda" unicode="&#x39b;" horiz-adv-x="740" 
d="M450 568q-42 -79 -76.5 -142t-67.5 -121q-33 -59 -67 -119.5t-74 -135.5q-9 -18 -5.5 -28.5t32.5 -10.5h40l-13 -45h-214q2 14 4.5 23.5t5.5 21.5q3 0 8 0.5t14 0.5q29 2 45 12t27 30q82 149 169.5 304.5t166.5 301.5q12 17 31 17q22 0 31 -15q29 -150 59.5 -307
t59.5 -307q5 -21 17 -27.5t35 -8.5q6 -1 12.5 -1h14.5q-2 -14 -3.5 -23t-3.5 -22h-222q2 14 3.5 23t3.5 22h16t13 1q26 2 33 10t3 26z" />
    <glyph glyph-name="Mu" unicode="&#x39c;" horiz-adv-x="880" 
d="M176 73q-1 -18 -1 -29.5t4 -17.5q3 -6 11.5 -9t24.5 -4h21q-2 -13 -3.5 -24t-3.5 -23h-206q2 14 4 23.5t4 22.5h11t11 1q18 1 27.5 7t14.5 15q4 8 6 19l4 22q19 126 32 213.5t22 145.5q9 57 13.5 89.5t7.5 48.5q2 16 2.5 20.5t0.5 6.5q0 14 -9 19t-33 7h-19q0 14 0.5 24
t0.5 24h175q8 0 11.5 -8.5t4.5 -19.5l102 -551q61 140 128 277.5t128 275.5q5 11 10.5 18.5t22.5 7.5h153l-9 -47h-15t-12 -1q-29 -2 -40.5 -12.5t-13.5 -33.5l-74 -503q-2 -12 -2.5 -23t3.5 -19q4 -9 12.5 -15t23.5 -7q7 -1 14.5 -1h17.5q-2 -13 -3.5 -23.5t-3.5 -22.5
h-233q2 13 3.5 23.5t3.5 22.5h16t14 1q31 3 42 21t16 47l74 509q-41 -90 -80 -170.5t-75 -154.5q-36 -75 -69 -145.5t-63 -139.5q-6 -14 -12 -21t-9 -7q-2 0 -7 7.5t-7 21.5l-104 557l-11 60l-11 -60z" />
    <glyph glyph-name="Nu" unicode="&#x39d;" horiz-adv-x="820" 
d="M649 561q4 25 1.5 38.5t-10.5 19.5q-9 6 -23 7t-33 1q2 11 4 23.5t4 23.5h201q-2 -14 -4 -24t-4 -23q-23 -1 -37.5 -4.5t-23.5 -11.5t-13.5 -21t-8.5 -32q-26 -143 -53.5 -293t-53.5 -293q-2 -7 -7.5 -12t-11.5 -5q-13 0 -21 14h1l-280 590l-18 43q-6 -32 -14.5 -78
t-17.5 -97q-10 -52 -19.5 -106t-17.5 -102q-9 -49 -15.5 -87t-9.5 -59t-1.5 -33.5t9.5 -18.5q7 -6 19.5 -8t32.5 -2h5q-2 -14 -3.5 -23t-3.5 -22h-204q2 12 5 23t5 22q24 1 39 4t25 10q9 7 14 19t9 31q19 116 41 243t42 243q3 18 3 31q0 25 -14 30t-50 5q2 14 4 24t4 23h148
q5 0 8.5 -6t7.5 -13l240 -510l19 -41z" />
    <glyph glyph-name="Xi" unicode="&#x39e;" horiz-adv-x="760" 
d="M79 -34q-9 0 -13.5 5.5t-6.5 21.5q7 53 14.5 104t14.5 104h33q-2 -11 -2 -25v-23q0 -41 7 -65.5t23 -37.5q15 -14 41 -18.5t65 -4.5h184q51 1 82.5 11.5t52.5 31.5q20 21 33.5 53.5t28.5 77.5h30l-51 -214l1 1q-4 -13 -9 -17.5t-18 -4.5h-510zM684 674q7 0 11.5 -5.5
t6.5 -22.5q-8 -52 -16 -106t-16 -106h-26q0 5 0.5 11t0.5 26q-1 42 -7 69t-21 44q-15 16 -41 22.5t-66 6.5h-131q-51 -1 -82.5 -11t-51.5 -31t-33 -54t-27 -78h-31q13 54 26 105t26 105v-1q5 17 8.5 21.5t15.5 4.5h454zM516 233v18q1 15 -2.5 27.5t-27.5 12.5h-200
q-14 0 -25 -10.5t-22 -43.5h-36q3 11 13 51.5t25 111.5h26q-2 -32 4 -41.5t25 -9.5h207q14 2 21 7t11 12t6 15.5t7 17.5h35q-7 -17 -13 -50t-13 -63q-8 -38 -13 -55h-28z" />
    <glyph glyph-name="Omicron" unicode="&#x39f;" horiz-adv-x="760" 
d="M441 684q60 0 108 -25t82 -66q34 -42 52.5 -95.5t18.5 -110.5q0 -81 -29.5 -158t-81.5 -138t-122.5 -98t-152.5 -37q-64 0 -112.5 26t-80.5 68q-33 42 -49.5 95.5t-16.5 108.5q0 14 1.5 30.5t4.5 31.5q16 75 49.5 141.5t82.5 117.5q48 50 110 79.5t136 29.5zM424 631
q-62 0 -109.5 -30t-81.5 -76q-34 -47 -55 -102t-30 -104q-6 -35 -6 -76q0 -43 9 -85t31 -75q21 -33 56.5 -53.5t87.5 -20.5q67 0 116.5 29t83.5 75q33 45 52.5 100t27.5 107q2 16 3.5 33.5t1.5 35.5q0 43 -9.5 86.5t-30.5 78.5q-22 34 -58 55.5t-89 21.5z" />
    <glyph glyph-name="Pi" unicode="&#x3a0;" horiz-adv-x="860" 
d="M823 674l-9 -46q-29 -1 -46 -4.5t-27 -10.5q-11 -8 -16.5 -21.5t-10.5 -34.5l-83 -481q-4 -23 -1.5 -36t11.5 -19q8 -6 22.5 -7.5t35.5 -1.5h4q-2 -11 -2.5 -23t-1.5 -23h-257q2 13 3.5 23.5t3.5 22.5q28 1 45 3t27 8t15.5 19t11.5 36l85 484q8 35 -6.5 49.5t-56.5 16.5
h-177q-41 0 -59 -15.5t-26 -54.5q-3 -14 -9 -49t-14 -81q-8 -47 -17 -100t-17 -102q-9 -49 -16 -89t-11 -61q-4 -24 -2 -37t11 -19q8 -6 22.5 -7t34.5 -1h8q-1 -14 -2.5 -23.5t-2.5 -22.5h-259l9 46q27 1 44 3.5t28 9.5q10 6 16.5 18.5t11.5 33.5l82 483q4 23 3 36.5
t-9 21.5q-9 7 -24.5 9t-39.5 1h-17l13 46h672z" />
    <glyph glyph-name="Rho" unicode="&#x3a1;" horiz-adv-x="710" 
d="M472 674q35 -1 71.5 -10.5t66.5 -28.5q30 -20 49 -50t19 -72q0 -17 -3 -33l1 1q-3 -9 -3 -12q-10 -48 -36 -84t-61 -60q-36 -25 -77.5 -37.5t-81.5 -12.5h-159q-11 -59 -20 -107t-17 -92q-3 -21 -1.5 -33.5t9.5 -19.5t24 -9t42 -2q0 -13 -1 -23.5t-1 -22.5h-261l6 46
q26 1 43.5 3.5t29.5 9.5q11 7 18 19.5t12 32.5q10 55 21.5 120.5t23.5 133.5q12 67 23 132t20 120q6 26 -11 40q-8 5 -68 5q2 14 4 23.5t4 22.5h314zM374 628q-19 0 -30 -1t-18 -5q-7 -5 -10 -13.5t-5 -23.5l-45 -263h85q46 0 86 7.5t71 25.5q31 17 51.5 46t28.5 72
q2 9 2.5 19.5t0.5 16.5q0 56 -38 87.5t-107 31.5h-72z" />
    <glyph glyph-name="Sigma" unicode="&#x3a3;" horiz-adv-x="720" 
d="M63 -34q-15 1 -20.5 5.5t-5.5 12.5q0 9 5 20t11 19l255 290l-150 308v-1q-8 21 -8 32q0 22 27 22h487q19 0 16 -29q-6 -52 -12.5 -105.5t-14.5 -103.5q-2 -11 -6.5 -19t-8.5 -8q-7 0 -8 28q-2 139 -43 165t-273 26h-10q-32 0 -45 -3t-2 -23v1q41 -83 64 -129.5t35 -69.5
t15.5 -30.5t6.5 -12.5q5 -8 8.5 -16t3.5 -16q0 -7 -3 -15t-12 -18q-56 -63 -115 -129t-115 -129h1q-16 -16 -11.5 -21t23.5 -5q261 0 327 24q37 14 63 54.5t49 108.5q7 22 18 22q5 0 8.5 -6.5t0.5 -19.5l1 1q-5 -29 -12.5 -60.5t-14.5 -59.5q-7 -29 -12.5 -52t-8.5 -34
q-5 -24 -21 -24h-493z" />
    <glyph glyph-name="Tau" unicode="&#x3a4;" horiz-adv-x="690" 
d="M629 674q6 0 10.5 -4.5t6.5 -23.5q-7 -55 -14.5 -109t-14.5 -109h-27v2q2 20 3 40.5t1 40.5q0 28 -4.5 52.5t-17.5 38.5q-27 30 -110 30q-17 0 -28.5 -1t-18.5 -5t-10.5 -11.5t-6.5 -19.5l-94 -528q-2 -13 -2.5 -22.5t3.5 -15.5q3 -6 11 -9.5t24 -4.5q11 0 21 -1.5
t21 -1.5q-2 -13 -3.5 -23.5t-3.5 -22.5h-257l9 46q8 0 18 0.5t16 1.5q29 0 43 15.5t18 42.5l0.5 3t3.5 18q2 15 8 46.5t17 90.5q10 58 26 148t39 220q3 21 -6 27.5t-44 6.5q-42 0 -69.5 -8t-44.5 -22q-35 -31 -83 -174h-24l47 221q3 16 9 20.5t13 4.5h515z" />
    <glyph glyph-name="Upsilon" unicode="&#x3a5;" horiz-adv-x="570" 
d="M216 39q1 -17 16.5 -22t45.5 -5q-2 -11 -2.5 -23t-1.5 -23h-230l9 46q28 1 43 3.5t22 9.5t9.5 19.5t6.5 33.5l42 265q8 45 12.5 85t4.5 72q0 36 -7.5 60t-23.5 39q-17 15 -42.5 21.5t-60.5 7.5l13 38q39 1 74 -9t62 -30q26 -20 41.5 -50.5t15.5 -71.5v-35
q54 97 114.5 152.5t133.5 55.5q33 0 49.5 -24.5t13.5 -65.5q-5 -23 -23 -37.5t-41 -14.5q-14 0 -26 13t-11 38l12 38q-44 -15 -81.5 -48t-66.5 -73q-30 -41 -48.5 -84t-24.5 -78z" />
    <glyph glyph-name="Phi" unicode="&#x3a6;" horiz-adv-x="725" 
d="M349 83q50 10 91 32t71 54q30 31 49.5 69.5t26.5 80.5q5 25 5 48q0 78 -42.5 126t-123.5 59zM378 551q-49 -9 -90 -31t-72 -53q-32 -32 -52.5 -70.5t-28.5 -79.5q-3 -18 -3 -39q0 -33 11 -64.5t33 -57.5t53 -45.5t72 -29.5zM260 19q9 3 15 10t11 15q-50 10 -94 29.5
t-77 49.5q-34 29 -53.5 67t-19.5 85q0 21 5 46q13 58 48 105.5t82 83.5q46 35 100 56.5t107 28.5q-2 9 -5.5 15t-11.5 10q-9 4 -24 6t-40 2q2 13 3.5 23.5t3.5 22.5h229q-2 -11 -2.5 -23t-1.5 -23q-26 -1 -46.5 -4t-27.5 -6q-7 -4 -12 -9t-10 -15q49 -5 93.5 -25.5
t78.5 -52.5q33 -32 52.5 -73t19.5 -88q0 -8 -1 -17t-3 -19q-11 -59 -44.5 -107t-79.5 -82q-47 -35 -101.5 -56.5t-105.5 -28.5q-6 -9 -2.5 -16.5t5.5 -9.5q7 -3 25.5 -4.5t47.5 -2.5q-2 -13 -3.5 -23.5t-3.5 -22.5h-228q2 11 2.5 23t1.5 23q29 0 41.5 1t26.5 6h-1z" />
    <glyph glyph-name="Chi" unicode="&#x3a7;" horiz-adv-x="755" 
d="M344 322q-37 76 -59 122.5t-35 73.5l-19.5 40.5t-11.5 24.5v-1q-6 13 -11.5 21t-12.5 13t-16 7t-22 3q-7 2 -15 2h-17q2 11 2.5 23t1.5 23h257q-2 -11 -2.5 -23t-1.5 -23q-30 0 -48 -1.5t-26 -5.5q-9 -5 -8.5 -12.5t7.5 -19.5h-1l98 -212q43 56 88 115.5t87 114.5
q5 11 -3 15t-31 4h-12t-16 1q2 11 2.5 23.5t1.5 23.5h209l-4 -46q-21 -1 -36.5 -3t-27.5 -7q-13 -5 -24.5 -13.5t-24.5 -22.5q-49 -59 -98.5 -122t-95.5 -121q30 -66 60 -132.5t61 -130.5q11 -23 21.5 -36t22.5 -19t27.5 -7.5t38.5 -1.5q-2 -13 -3.5 -23.5t-3.5 -22.5h-263
q2 13 3.5 23.5t3.5 22.5h24t20 2q18 1 26.5 4t11.5 8q2 5 0 11.5t-6 14.5l-105 225q-42 -57 -68.5 -93.5t-43.5 -59.5q-17 -24 -26.5 -37.5t-18.5 -24.5q-3 -5 -5.5 -7.5l-6.5 -6.5q-8 -8 -13.5 -14.5t-5.5 -11.5t7.5 -7.5t26.5 -2.5h47q-2 -13 -3.5 -23.5t-3.5 -22.5h-222
q2 13 3.5 23.5t3.5 22.5q24 1 42 5t33 12q15 7 28 19t27 30z" />
    <glyph glyph-name="Psi" unicode="&#x3a8;" horiz-adv-x="800" 
d="M366 216q45 7 86 22t62 38q20 23 30.5 62.5t12.5 88.5q4 54 11.5 95t21.5 67q22 39 48 61.5t62 22.5q24 0 39 -9.5t19 -25.5q8 -30 -3.5 -49.5t-32.5 -19.5q-13 1 -20 9t-11 18t-7 19.5t-7 13.5q-51 -11 -51 -106q0 -29 1 -44t1 -29q0 -63 -12.5 -112.5t-43.5 -82.5
q-20 -21 -45.5 -35t-53.5 -23t-57 -14t-56 -8q-8 -28 -11.5 -52t-7.5 -47q-2 -22 1 -34.5t11 -18.5q8 -7 21.5 -8t31.5 -1h13l-4 -48h-259l3.5 24.5t3.5 23.5q26 0 43.5 1t28.5 7q11 5 17.5 17.5t11.5 35.5l18 100q-26 3 -53.5 9t-51.5 17q-24 10 -44 26t-31 39
q-7 14 -12 37.5t-5 44.5q0 31 11.5 71.5t28.5 78.5q17 34 26 61t9 44q0 22 -31 25q-12 -6 -23 -17t-16 -22q-12 -23 -22 -23q-14 0 -25.5 12.5t-11.5 31.5q0 32 23.5 48t50.5 16q25 0 43 -9.5t30 -25.5t17.5 -37t5.5 -45q0 -29 -6.5 -62.5t-17.5 -66.5q-8 -29 -15 -57
t-7 -44q0 -25 11 -45t30 -34q18 -14 41.5 -23t47.5 -12l62 347q11 45 2 54l2 -1q-6 9 -25.5 12t-51.5 3q2 14 4 23.5t4 22.5h252q-2 -13 -3.5 -23.5t-3.5 -22.5q-69 -2 -78 -12q-5 -6 -12 -19.5t-12 -39.5z" />
    <glyph glyph-name="uni03A9" unicode="&#x3a9;" horiz-adv-x="750" 
d="M412 28h24q32 0 58 4t46 12q23 10 38 32.5t32 70.5q6 16 13 22t9 6q10 0 2 -32l-40 -151h1q-5 -13 -8.5 -19.5t-14.5 -6.5h-224l32 170q46 9 84.5 34.5t67.5 60.5q29 34 48 75t27 83q2 13 3 27.5t1 24.5q0 42 -13.5 79t-38.5 65q-25 27 -60 42.5t-78 15.5
q-51 0 -95 -23.5t-77 -59.5q-34 -37 -56.5 -82.5t-30.5 -90.5q-2 -14 -3 -28t-1 -25q0 -37 11 -70t32 -59q20 -26 49.5 -44t67.5 -24l-33 -171h-222q-25 0 -17 28q5 41 8 69t6 47q2 19 3.5 29.5l2.5 17.5q3 18 12 18q2 0 6.5 -4t5.5 -15q-5 -88 21 -105q43 -23 106 -23h28
q2 22 6.5 34.5t9.5 31.5q-40 13 -73.5 36t-57.5 54q-25 31 -39 68.5t-14 79.5q0 26 5 54q14 67 49.5 122t84.5 95q49 39 107.5 61t119.5 22q51 0 98.5 -17.5t84.5 -49.5t59.5 -76.5t22.5 -99.5q0 -15 -1 -28.5t-5 -27.5q-15 -50 -43.5 -97.5t-65.5 -87.5t-80.5 -68.5
t-88.5 -40.5z" />
    <glyph glyph-name="alpha" unicode="&#x3b1;" horiz-adv-x="630" 
d="M356 446q36 -17 55 -47t29 -72l5 -37l21 37q29 55 52 107q5 9 12.5 14t15.5 2h-1q37 -15 37 -46q0 -22 -12 -40q-16 -26 -37 -64.5t-39 -79.5t-29 -81t-7 -69q5 -19 24 -30t40 -12q26 2 35.5 -5.5t0.5 -28.5v1q-8 -15 -30.5 -21t-54.5 -4q-26 2 -48.5 21t-42.5 61
l-13 -20q-26 -27 -56.5 -46t-63.5 -27t-66.5 -4.5t-66.5 21.5q-39 33 -57 73.5t-19 84.5q-2 44 10 88.5t31 84.5q22 37 51.5 71t65.5 56q35 21 75.5 26t82.5 -14zM336 402q-36 12 -66.5 -2t-54.5 -41q-25 -27 -43 -61t-28 -61q-10 -24 -18 -54.5t-8 -60.5t11.5 -56t40.5 -39
q36 -18 67.5 -9t56.5 33q24 23 42 54.5t29 59.5q4 12 8.5 29t8.5 36q4 18 6.5 37t2.5 36q0 34 -11.5 60.5t-43.5 38.5z" />
    <glyph glyph-name="beta" unicode="&#x3b2;" horiz-adv-x="570" 
d="M118 -55q-4 -51 -10.5 -75t-23.5 -22q-20 1 -30.5 13t-11.5 29q5 81 17 166t28 161q13 75 28.5 159.5t36.5 158.5q19 68 58 104.5t92 36.5q39 -2 78 -14.5t70 -35.5q30 -24 49 -58t19 -79q0 -64 -34.5 -100t-87.5 -56q41 -39 63 -74.5t24 -73.5q1 -43 -8 -81.5t-29 -67.5
t-52.5 -46.5t-77.5 -18.5q-121 -4 -181 104q-7 -40 -11.5 -78t-5.5 -52zM296 319q-22 6 -39 18.5t-17 26.5q0 19 12 26t29 4h-1q17 -5 34.5 -9.5t31.5 -10.5q22 4 39.5 17t29.5 31q11 17 17 36.5t6 37.5q-1 48 -23 81t-60 46q-21 5 -43.5 -1.5t-41.5 -21.5
q-20 -15 -35.5 -38t-22.5 -51q-13 -47 -25.5 -109.5t-21.5 -122.5q-4 -27 -7.5 -53t-5.5 -47q-2 -22 -2 -38t2 -22h-1q6 -21 21.5 -37t36.5 -26q20 -10 43 -14.5t44 -2.5q36 4 58 20.5t34 40.5q11 24 15 53t4 59q0 12 -4.5 25.5t-11.5 27.5q-8 14 -17 27t-17 24
q-14 -1 -32 -0.5t-29 3.5z" />
    <glyph glyph-name="gamma" unicode="&#x3b3;" horiz-adv-x="590" 
d="M166 416q-27 12 -51.5 0.5t-35.5 -31.5q-27 -56 -32 -53q-10 4 -10 26q0 27 10.5 50.5t28.5 40.5t41 26.5t47 8.5q53 -8 89 -53.5t42 -120.5q4 -39 6 -75.5t5 -74.5l153 275q25 45 56 45q17 0 30 -11.5t13 -32.5q0 -24 -21 -53l1 1q-65 -82 -116 -156.5t-85 -154.5
q-11 -27 -19 -54.5t-15 -54.5q-8 -27 -17 -53.5t-23 -50.5q-15 -20 -38 -20t-36 14t-13 40q0 16 10 43.5t25 56.5q14 30 29 57.5t26 43.5q-6 37 -8 85.5t-9 94.5q-8 46 -26 84.5t-57 56.5z" />
    <glyph glyph-name="delta" unicode="&#x3b4;" horiz-adv-x="560" 
d="M397 409q53 -42 79 -95t26 -110q0 -47 -16 -92.5t-45 -80.5q-29 -36 -68.5 -58t-85.5 -22q-56 0 -101 18.5t-77 51.5t-49.5 79t-17.5 102q0 48 19 92.5t52 78.5q32 34 74.5 55t89.5 23q-26 30 -46.5 61t-31.5 66q-3 20 1 42.5t12 39.5q16 23 34 35.5t38 12.5q36 0 69 -16
t63 -40q29 -24 53.5 -53t42.5 -55q9 -14 14.5 -28t5.5 -27q0 -20 -10 -33l4 2q-17 -9 -28 -9q-10 0 -21 10.5t-20 27.5q-11 21 -27.5 46t-36.5 48q-21 23 -44.5 40t-47.5 21q-5 0 -14 -1l-18 -2q-10 -2 -17.5 -4.5t-9.5 -6.5q-12 -24 4 -56t43 -63t58 -58t50 -42zM282 406
q-40 0 -69.5 -25.5t-48.5 -61.5t-28.5 -75.5t-9.5 -67.5q0 -32 8.5 -63.5t26.5 -56.5q17 -26 43.5 -41.5t62.5 -15.5q41 0 69 25.5t45 62.5t24.5 76.5t7.5 68.5q0 31 -7 62t-22 56q-16 25 -41 40.5t-61 15.5z" />
    <glyph glyph-name="epsilon" unicode="&#x3b5;" horiz-adv-x="520" 
d="M262 438q-49 0 -81.5 -25.5t-32.5 -67.5q0 -23 12 -40.5t31 -28.5q18 -12 40.5 -17.5t42.5 -5.5q9 0 22.5 1.5t27.5 0.5q13 -1 22.5 -6t9.5 -17q0 -28 -73 -28q-27 0 -54 -4.5t-48 -15.5q-22 -11 -35 -30t-13 -49q0 -51 40 -80.5t118 -29.5q21 0 41.5 5t36.5 15
q15 9 25 24t10 36q0 13 3 24t9 20q6 8 14.5 11.5t19.5 1.5q22 -6 27.5 -22t1.5 -39q-8 -29 -27 -51t-45 -38q-26 -15 -57.5 -23t-65.5 -8q-238 0 -238 150q0 44 27 77t87 53q-98 32 -98 118q0 57 47.5 95t152.5 38q30 0 61.5 -4t59.5 -15q27 -12 48 -32.5t30 -52.5
q4 -17 -4.5 -33t-18.5 -20q-12 -1 -20.5 4t-13.5 13q-5 7 -7.5 16t-3.5 18q0 19 -16 31.5t-37 19.5q-22 6 -44 8.5t-34 2.5z" />
    <glyph glyph-name="zeta" unicode="&#x3b6;" horiz-adv-x="520" 
d="M224 705q0 -13 -7 -21t-15 -16h2q-2 -1 -6.5 -3.5t-6.5 -3.5q-20 -13 -33.5 -27.5t-17.5 -29.5t3.5 -30t29.5 -27q22 -8 49 6t65 46q14 12 30.5 24t34.5 22q17 10 34 16.5t33 6.5q9 0 20.5 -4.5t19.5 -12.5q12 -20 4.5 -39.5t-23.5 -36.5t-36 -30.5t-33 -20.5
q-14 -8 -28.5 -14.5t-32.5 -11.5q-19 -6 -43 -11t-55 -10q-19 -27 -39 -56t-36 -60q-17 -31 -28 -64t-11 -69q0 -38 13.5 -64.5t37.5 -42.5q23 -17 53.5 -24t64.5 -5q27 1 51.5 -5.5t45.5 -19.5q20 -13 34 -31.5t19 -41.5q8 -39 -7.5 -70.5t-44.5 -48.5q-31 -17 -62.5 -23
t-65.5 -6q-18 0 -37.5 2.5t-34.5 7.5q-16 6 -26.5 15t-10.5 22q-1 18 12 30t43 11q15 -1 38.5 -4.5t54.5 -8.5q34 -4 51 3.5t16 30.5q-1 15 -15.5 25t-33.5 16q-20 6 -39.5 8.5t-30.5 2.5q-83 12 -121 63t-46 137q-1 40 8 78t25 73t37 67.5t44 61.5q-37 17 -55 42t-21 67
q-1 19 8.5 44t25.5 47q15 22 34.5 37t38.5 15q10 0 16 -11.5t6 -22.5z" />
    <glyph glyph-name="eta" unicode="&#x3b7;" horiz-adv-x="570" 
d="M65 418q-17 -2 -25.5 1t-8.5 8q0 8 3.5 14t8.5 12q23 24 62 21q15 -1 30 -8t28 -19q12 -13 22 -30t14 -39q15 21 34.5 40t40.5 34q21 14 42.5 22t41.5 8q31 0 60.5 -11.5t52.5 -32.5t36 -49.5t10 -62.5q-23 -248 -121 -466q-11 -23 -28.5 -29t-36.5 -1h1
q-18 9 -20.5 27.5t4.5 33.5q18 42 39 94.5t37 103.5q21 66 34.5 130t13.5 123q0 18 -7 33.5t-19 27.5q-12 11 -28.5 17.5t-35.5 6.5q-27 0 -52.5 -16t-46.5 -39q-21 -24 -36.5 -51.5t-21.5 -49.5q-8 -48 -18 -91t-19 -87q-11 -54 -31 -81.5t-46 -20.5h2q-24 10 -24 46
q0 15 8.5 42t22.5 56q20 39 33 84t13 89q0 16 -1.5 37t-8.5 39q-7 17 -21 27.5t-38 6.5z" />
    <glyph glyph-name="theta" unicode="&#x3b8;" horiz-adv-x="520" 
d="M321 673q55 -21 87 -70.5t47 -109.5q14 -61 13.5 -124t-10.5 -110q-9 -45 -28.5 -97t-47.5 -96q-29 -45 -66 -75t-80 -30q-17 0 -35 6q-37 12 -63 39t-43 62q-18 35 -27.5 76t-13.5 82q-4 40 -3 78.5t6 68.5q8 49 27.5 102.5t48.5 98.5t67.5 74.5t85.5 29.5q9 0 17 -0.5
t18 -4.5zM390 352q1 13 1.5 31.5t0.5 36.5q0 30 -3.5 62.5t-12.5 61.5q-10 29 -26.5 52.5t-41.5 34.5q-25 3 -46 -10t-39 -36t-32 -53.5t-25 -62.5q-11 -33 -19 -63.5t-13 -53.5h256zM128 307q-2 -35 -1 -79.5t9 -86.5q7 -43 23.5 -77t45.5 -49q21 -10 41 0.5t39 34.5
q18 24 34.5 57.5t29.5 69.5q12 36 20.5 70.5t12.5 59.5h-254z" />
    <glyph glyph-name="iota" unicode="&#x3b9;" horiz-adv-x="310" 
d="M187 474q14 -4 21.5 -17t5.5 -32q-7 -51 -19 -98.5t-29 -92.5q-14 -39 -25.5 -80t-16.5 -79q-5 -40 51 -45q26 -2 46.5 4t31.5 17q9 9 18 12.5t12 -4.5q14 -32 -32 -68h1q-38 -30 -83 -30h-12t-14 2q-45 8 -67.5 46.5t-18.5 86.5q3 35 23 138q11 57 19.5 109t22.5 100
q1 6 5.5 13t12.5 12t19.5 7.5t27.5 -1.5z" />
    <glyph glyph-name="kappa" unicode="&#x3ba;" horiz-adv-x="540" 
d="M160 462q29 -3 44 -9.5t14 -23.5q-1 -12 -5.5 -34t-11.5 -46q-7 -25 -14.5 -48t-14.5 -38h51q37 0 56.5 25.5t40.5 72.5q24 53 54 80.5t69 20.5q11 -2 22 -8t20 -14q8 -9 13 -21t4 -26q-2 -24 -14 -33.5t-29 -9.5q-9 0 -17.5 4.5t-17.5 15.5q-6 9 -17.5 9.5t-25.5 -9.5
q-23 -23 -32 -48.5t-24 -51.5q-12 -20 -28.5 -30.5t-29.5 -16.5q20 -16 34 -32.5t17 -44.5q5 -48 16 -74.5t45 -34.5q16 -4 28 9t23 29q10 16 19 28t18 6q7 -5 9 -12t1 -14q-1 -8 -3.5 -16t-5.5 -14q-18 -38 -46.5 -64t-61.5 -26q-29 0 -52.5 13.5t-30.5 44.5
q-2 10 -5.5 33.5t-6.5 48.5q-4 25 -6.5 44t-2.5 20q-5 30 -44 30h-53q-10 -53 -16.5 -104t-20.5 -102q-4 -11 -13 -17.5t-23 -6.5q-13 0 -30 4q-8 5 -11 13.5t-3 18.5t1.5 20t3.5 17q26 100 43.5 195.5t37.5 191.5q7 37 32 35z" />
    <glyph glyph-name="lambda" unicode="&#x3bb;" horiz-adv-x="520" 
d="M155 692q14 8 23 8q12 0 27.5 -7t35.5 -20h-1q27 -20 42.5 -42.5t23.5 -47.5q7 -26 9 -53t3 -56q0 -31 3 -61q8 -106 43.5 -204t92.5 -180q7 -10 9.5 -20.5t2.5 -21.5q0 -18 -10 -29.5t-30 -11.5q-14 0 -28 14.5t-26 35.5q-13 21 -23 44t-17 40q-11 29 -24 78t-17 103
q-1 10 -1.5 25.5t-0.5 31.5q-1 16 -1.5 30.5t-0.5 23.5q-55 -75 -100 -154.5t-59 -154.5q-24 -131 -75 -117h1q-21 7 -21 41q0 15 5.5 34t14.5 39q8 20 18 39t20 36q47 80 94 152.5t94 146.5q-2 19 -4 38.5t-7 37.5q-5 17 -15 32t-28 26q-14 7 -30.5 16t-30.5 20t-24 23
t-10 25q0 11 5 21.5t18 18.5h-1z" />
    <glyph glyph-name="uni03BC" unicode="&#x3bc;" horiz-adv-x="560" 
d="M147 412q18 50 53 50q18 0 31 -11.5t13 -35.5q-4 -41 -18 -77t-31 -69q-13 -27 -21.5 -50t-14.5 -45q-6 -23 -11.5 -46t-12.5 -48q20 -26 45.5 -43.5t62.5 -15.5q25 2 44.5 10.5t34.5 21.5q14 13 22.5 27.5t13.5 28.5q11 32 16.5 64.5t12.5 79.5q5 38 13.5 80t19.5 76
q8 19 21.5 30.5t28.5 11.5q26 0 32.5 -14t5.5 -37q-2 -20 -7.5 -45.5t-12.5 -51.5q-8 -27 -17 -51.5t-16 -42.5q-6 -15 -14.5 -37t-14.5 -44t-8 -41.5t5 -28.5q19 -25 52 -25q15 0 25.5 6t16.5 11q6 4 9 3t3 -15q0 -15 -7 -30.5t-20 -26.5t-30.5 -16.5t-38.5 -0.5
q-17 4 -31.5 21t-25.5 37l-12 21l-14 -21q-21 -31 -47.5 -47.5t-58.5 -16.5q-29 0 -56.5 17.5t-64.5 56.5q-5 -25 -11.5 -62t-8.5 -68q-2 -25 -6 -41t-10 -26q-6 -9 -12 -12t-10 -2q-26 3 -37 16t-11 36q0 13 4 26.5t10 28.5q36 88 55 181t32 184q5 31 11.5 62.5t17.5 56.5z
" />
    <glyph glyph-name="nu" unicode="&#x3bd;" horiz-adv-x="470" 
d="M88 463q11 5 25 -5.5t27 -30.5q28 -46 33 -114q1 -22 -4.5 -55.5t-14.5 -69.5q-10 -37 -22 -73.5t-24 -64.5q50 24 98.5 58.5t86.5 76.5q37 42 60 90t22 98q-1 40 6.5 65t18.5 25q10 0 14 -37t6 -94q1 -61 -16 -113.5t-49 -95.5t-76.5 -75.5t-96.5 -54.5
q-35 -14 -63 -21.5t-42 -7.5q-13 0 -17.5 8t-4.5 18q0 11 3 22t6 17q11 23 17.5 50.5t10.5 55.5q3 27 4 54.5t1 50.5q0 47 -12 89.5t-21 85.5q-8 38 24 48z" />
    <glyph glyph-name="xi" unicode="&#x3be;" horiz-adv-x="519" 
d="M383 301q-26 8 -64.5 13t-74.5 9q-11 1 -23.5 2.5t-20.5 2.5q-24 -17 -44 -38t-34 -42q-14 -22 -22 -43t-6 -39q5 -39 38.5 -59t87.5 -17q58 2 91 -23.5t36 -75.5q2 -35 -9 -62t-31 -46q-20 -18 -47 -27.5t-55 -9.5q-14 0 -22 8.5t-10 21.5q-2 19 11.5 31.5t42.5 12.5
q62 0 62 31q0 10 -12 18.5t-31 12.5q-23 2 -49.5 7.5t-52.5 16.5v-1q-23 10 -41.5 27t-30.5 39q-13 21 -19.5 45.5t-6.5 49.5q0 66 31.5 114.5t81.5 83.5q-19 20 -30 39.5t-11 46.5q0 49 22.5 79t56.5 54q-6 31 6.5 59t34.5 48t49.5 32t52.5 12q36 0 41 -44q0 -38 -77 -36
q-35 1 -50.5 -10.5t-13.5 -40.5q48 14 101.5 14t100.5 -12q14 -5 22 -19.5t6 -28.5q-2 -20 -14.5 -33.5t-32.5 -13.5t-39.5 3.5t-37.5 7.5q-19 4 -37.5 7t-37.5 2q-21 -1 -42 -5t-37 -13q-17 -9 -27.5 -23.5t-9.5 -35.5q3 -26 17.5 -37t42.5 -10q53 0 98 3t88 -9
q19 -5 31.5 -21.5t10.5 -36.5q-9 -52 -62 -41h2z" />
    <glyph glyph-name="omicron" unicode="&#x3bf;" horiz-adv-x="530" 
d="M326 453q37 -10 67 -34t51 -56q21 -33 32.5 -71t11.5 -76q0 -55 -24.5 -109.5t-64.5 -94.5q-41 -40 -92.5 -57.5t-105.5 1.5q-36 13 -65.5 37.5t-49.5 57.5q-21 32 -32.5 68.5t-11.5 73.5q0 55 24.5 108.5t64.5 92.5q39 39 90 57t105 2zM316 408q-33 8 -59.5 -1
t-46.5 -29q-21 -20 -36.5 -48t-25.5 -58q-10 -31 -15 -61t-5 -54q0 -23 6 -48.5t18 -47.5q11 -22 28.5 -39t41.5 -23q37 -10 66.5 4t51.5 40q21 26 35.5 59t21.5 61q6 34 8 71.5t-5 71.5t-26.5 61t-56.5 41h-1z" />
    <glyph glyph-name="pi" unicode="&#x3c0;" horiz-adv-x="560" 
d="M54 328q-19 17 15 77q32 59 85 57q55 0 102 -3t92 -3q48 0 88.5 3t69.5 13h-1q18 5 27 -11.5t6 -48.5q-2 -28 -14.5 -37t-43.5 -9q-26 0 -48 3.5t-46 -1.5q-6 -20 -13.5 -61.5t-15.5 -89.5q-6 -35 -8.5 -63.5t-2.5 -49.5q0 -12 3.5 -26.5t11.5 -25.5q7 -12 19 -17t28 2
q20 10 28 10q5 0 5.5 -7.5t-2.5 -25.5q-3 -16 -14 -26.5t-25 -16.5t-30 -7.5t-28 0.5q-25 6 -34.5 33t-9.5 69q0 15 2 35t5 42t7 45.5t9 45.5q12 54 18 91t6 51q-32 -4 -59 -3.5t-56 3.5q-5 -23 -10 -48t-10 -48q-11 -51 -24 -102t-26 -93q-8 -26 -22 -54t-26 -42
q-9 -12 -20.5 -17.5t-21.5 -5.5q-12 0 -21 8.5t-9 28.5q0 18 6 35t16 33q10 15 22 29t23 26h-1q23 26 37.5 55t23.5 60q9 30 14.5 62t10.5 63q-37 7 -70.5 -0.5t-50.5 -29.5q-9 -14 -17 -8z" />
    <glyph glyph-name="rho" unicode="&#x3c1;" horiz-adv-x="580" 
d="M320 -10q-32 0 -61 7t-52 21q-24 14 -41 35t-24 50l-14 57q-8 -41 -12.5 -71.5t-6.5 -54.5q-3 -24 -4 -43.5t-1 -37.5v-55t-2 -38q-2 -23 -11 -36.5t-22 -12.5q-20 3 -30.5 24t-11.5 49q9 104 26 202.5t43 185.5q13 43 34 81t50 67q28 29 64 46t78 17q45 0 84 -18t68 -49
q28 -31 44.5 -72t16.5 -87q0 -50 -16 -98t-45 -85q-29 -38 -68.5 -61t-85.5 -23zM331 437q-30 0 -54.5 -17.5t-43.5 -42.5q-19 -26 -33 -55t-21 -53q-7 -33 -5.5 -73t15.5 -74q13 -35 39 -58t69 -23q40 0 69 25.5t48 62.5t28.5 77t9.5 70q0 27 -7 55.5t-22 52.5
q-15 23 -38 38t-54 15z" />
    <glyph glyph-name="sigma" unicode="&#x3c3;" horiz-adv-x="500" 
d="M387 407q-10 2 -25 3.5t-32 1.5t-34 -1.5t-30 -5.5l39 -3q54 -4 88.5 -39t49.5 -83t12 -101.5t-24 -94.5q-14 -27 -35 -50.5t-46 -40.5q-26 -17 -53.5 -27t-53.5 -10q-43 0 -80 19.5t-64 52.5q-27 32 -42 73t-15 84q0 57 21.5 108.5t57.5 91.5q35 39 81.5 62t97.5 23
q45 0 74 -3.5t45 -8.5h-1q14 -6 21.5 -14t5.5 -21q-1 -12 -7.5 -16.5t-15.5 -4.5q-9 -1 -18.5 1t-16.5 4zM226 10q23 0 44 11.5t39 29.5q17 18 30.5 39t21.5 40q13 33 18 73.5t-3 76.5q-9 36 -33.5 60.5t-70.5 24.5q-21 0 -41.5 -9.5t-38.5 -25.5t-33.5 -37.5t-25.5 -45.5
q-14 -31 -18 -72t6 -77q9 -37 34.5 -62.5t70.5 -25.5z" />
    <glyph glyph-name="tau" unicode="&#x3c4;" horiz-adv-x="510" 
d="M206 73q-5 -22 7.5 -34t32.5 -16q19 -5 40 -3.5t33 6.5q18 8 26.5 5t8.5 -12q0 -18 -11 -32.5t-26 -24.5q-16 -10 -34.5 -15t-33.5 -5q-53 0 -75.5 26t-22.5 71q0 25 5.5 48.5t12.5 46.5l53 233q-5 2 -23.5 3.5t-39.5 0.5q-13 0 -27.5 -2t-27.5 -5q-14 -4 -25.5 -11
t-17.5 -17q-5 -8 -10.5 -8t-10.5 5q-6 5 -9 14t-3 18q0 11 3.5 25t11.5 27q13 24 43 36.5t69 9.5q25 -2 68.5 -3t122.5 -1q33 0 57.5 4.5t41.5 10.5q38 13 38 -61q0 -17 -4.5 -26t-11.5 -13q-8 -4 -18 -4.5t-20 -0.5q-29 0 -53.5 2t-48.5 2q-17 0 -30.5 -1.5t-20.5 -7.5z
" />
    <glyph glyph-name="upsilon" unicode="&#x3c5;" horiz-adv-x="540" 
d="M130 462q24 0 34 -15.5t9 -47.5q-2 -51 -13 -100t-29 -86q-11 -29 -20 -56.5t-9 -52.5q0 -26 13.5 -49.5t39.5 -38.5q34 -15 67 -9t62 25q28 18 51 45t38 56q23 59 37 117t-1 113q-2 9 -4.5 22.5t-1.5 26.5q1 12 6.5 20.5t18.5 7.5q33 -2 54 -34.5t21 -80.5
q0 -51 -17.5 -101.5t-37.5 -93.5q-22 -45 -54 -83.5t-66 -61.5q-48 -32 -97.5 -36t-97.5 19q-45 28 -68.5 61t-21.5 71q2 29 6 59.5t11 68.5q7 37 13 79t4 80q0 32 13 53.5t40 21.5z" />
    <glyph glyph-name="phi" unicode="&#x3c6;" horiz-adv-x="540" 
d="M34 224q0 50 19 95.5t52 80.5q33 34 76 54.5t91 20.5q14 -3 20.5 -9t6.5 -12q0 -17 -31 -22q-37 -6 -65.5 -33t-47.5 -62q-20 -36 -30 -74.5t-10 -67.5q0 -38 16.5 -76.5t63.5 -72.5q17 69 30.5 136t30.5 133q9 35 25 63t33 45q22 20 40.5 21t43.5 -13q23 -15 42.5 -36
t34.5 -45q14 -25 22.5 -52.5t8.5 -54.5q0 -33 -8 -65t-23 -60q-15 -29 -35.5 -53t-45.5 -40q-33 -19 -76 -29.5t-81 -3.5q-14 -75 -23 -112.5t-17 -43.5q-17 -13 -28 -8l1 -1q-16 7 -22 16.5t-6 22.5q0 21 5.5 39t14.5 35q7 14 13.5 31.5t9.5 32.5q-34 13 -61.5 36.5
t-47.5 53.5q-20 29 -31 62.5t-11 67.5zM238 33q52 6 88.5 30.5t59.5 58.5q23 33 33.5 72.5t10.5 75.5q0 38 -11 74t-40 62q-17 14 -36.5 -2t-30.5 -49q-5 -17 -11 -40.5t-14 -60.5q-9 -37 -21 -91t-28 -130z" />
    <glyph glyph-name="chi" unicode="&#x3c7;" horiz-adv-x="480" 
d="M195 187q-2 21 -6.5 52t-11.5 62q-8 31 -18.5 56t-23.5 33q-14 9 -26 3.5t-21 -15.5q-11 -14 -20 -20t-14 -1q-9 9 -7 27.5t18 40.5q15 20 33.5 35t35.5 15q30 0 49.5 -24t32.5 -58q12 -35 18.5 -72t11.5 -64q21 23 38 48t33 51q16 25 31.5 49t35.5 46q12 13 19 13
q17 0 30 -14.5t13 -30.5q0 -17 -9.5 -29t-19.5 -22q-48 -46 -89 -87.5t-68 -83.5q6 -21 12 -46t15 -49t21.5 -43.5t31.5 -28.5q17 -8 33 -0.5t24 18.5q18 27 27 18q9 -8 4.5 -26.5t-14.5 -37.5q-11 -20 -24.5 -35.5t-23.5 -18.5q-31 -8 -55 8t-42 45q-19 28 -32 63t-22 66
q-31 -41 -63.5 -82.5t-57.5 -70.5q-8 -9 -16 -15t-13 -6q-15 0 -23 15t-8 27q0 17 10 30z" />
    <glyph glyph-name="psi" unicode="&#x3c8;" horiz-adv-x="550" 
d="M116 134q0 -31 16.5 -56t63.5 -45q12 52 20 100.5t14 95.5q5 47 10.5 94t13.5 95q4 24 17.5 35t28.5 6q13 -4 19 -16.5t6 -31.5q0 -11 -2.5 -25.5t-6.5 -30.5l-10 -32t-9 -29q-24 -75 -37 -139.5t-27 -125.5q75 15 121 68.5t45 133.5q0 30 5.5 66t19.5 69q13 33 36 59.5
t58 36.5q21 -2 21 -9q0 -8 -14.5 -20.5t-29.5 -26.5q-17 -15 -21 -35.5t-4 -41.5q0 -32 5 -60t5 -56q0 -54 -22.5 -93t-57.5 -65q-36 -27 -80 -42t-87 -21q-6 -18 -8 -36.5t-4 -37.5q-3 -18 -6.5 -36.5t-11.5 -35.5q-15 -27 -33 -24q-15 3 -24 15.5t-5 30.5q8 35 20 66
t23 63q-30 10 -56 22.5t-45 29.5t-30 39t-11 51q0 32 7.5 60t18.5 55q11 30 23.5 59.5t12.5 58.5q0 14 -5.5 26t-20.5 23q-17 14 -17 31q0 7 7.5 10.5t22.5 -0.5q31 -8 44 -42t13 -75q0 -30 -5 -61.5t-10 -51.5q-8 -26 -12.5 -50.5t-4.5 -47.5z" />
    <glyph glyph-name="omega" unicode="&#x3c9;" horiz-adv-x="600" 
d="M250 437q4 -20 -50 -56q-28 -18 -45.5 -48t-27.5 -64q-10 -35 -13.5 -69.5t-3.5 -61.5q0 -20 2.5 -41t11.5 -37q8 -17 22.5 -26t38.5 -5q32 9 56 30.5t27 56.5q5 43 8.5 78t8.5 64q10 57 31.5 88.5t40.5 26.5l-2 1q14 -7 21.5 -27t1.5 -49q-6 -27 -13.5 -51.5
t-19.5 -48.5q-14 -26 -24 -55.5t-18 -56.5q-6 -22 -2 -40t24 -31q26 -17 53 -10.5t49 38.5q36 54 51.5 114t15.5 120q0 46 -12 87q-4 14 -8 28.5t-6 27.5q-3 12 -2.5 20t4.5 9q10 2 16.5 -3t12.5 -16q6 -12 13 -29.5t18 -40.5q15 -32 23 -69t8 -71q0 -42 -13.5 -89
t-38.5 -86t-61 -64.5t-81 -25.5q-26 0 -56 23t-43 62q-29 -34 -59 -51.5t-55 -17.5q-33 0 -55.5 16.5t-36.5 42.5t-19.5 58t-5.5 63q4 94 43 166.5t108 112.5q8 5 18 11t19 9t15.5 1t9.5 -14z" />
    <glyph glyph-name="uni0401" unicode="&#x401;" horiz-adv-x="620" 
d="M170 777q0 20 13.5 33.5t33.5 13.5t33.5 -13.5t13.5 -33.5t-13.5 -33.5t-33.5 -13.5t-33.5 13.5t-13.5 33.5zM366 777q0 20 13.5 33.5t33.5 13.5t33.5 -13.5t13.5 -33.5t-13.5 -33.5t-33.5 -13.5t-33.5 13.5t-13.5 33.5zM85 649h462v-52h-399v-247h384v-52h-384v-274h413
v-52h-476v677z" />
    <glyph glyph-name="uni0410" unicode="&#x410;" horiz-adv-x="730" 
d="M556 159h-384q-17 -44 -36.5 -92t-42.5 -95h-61q71 177 140 348.5t143 347.5h97q66 -162 111.5 -272.5t77.5 -187.5q31 -78 53.5 -132.5t43.5 -103.5h-66zM198 214h335l-172 404z" />
    <glyph glyph-name="uni0411" unicode="&#x411;" horiz-adv-x="670" 
d="M148 26h233q33 0 64 8t54 25t37 44.5t14 65.5q1 66 -43.5 104t-122.5 38h-236v-285zM84 668h481v-54h-417v-248h221q53 0 100.5 -13.5t83.5 -40.5q35 -27 54 -67t15 -92q-3 -44 -24.5 -77.5t-54.5 -56.5q-34 -23 -75.5 -35t-83.5 -12h-300v696z" />
    <glyph glyph-name="uni0412" unicode="&#x412;" horiz-adv-x="670" 
d="M84 -28v696h308q88 0 136 -42q64 -52 64 -131q0 -30 -10 -53t-26 -41q-17 -18 -39 -32t-46 -25q25 -11 53.5 -26.5t51.5 -38.5q22 -23 35.5 -54t10.5 -72q-4 -45 -26.5 -79t-55.5 -56q-34 -23 -75 -34.5t-81 -11.5h-300zM148 366h221q75 0 114 34.5t39 94.5
q0 55 -38.5 87t-113.5 32h-222v-248zM148 26h233q36 0 66.5 9t53.5 27q23 17 36 44t13 63q1 66 -43.5 104t-122.5 38h-236v-285z" />
    <glyph glyph-name="uni0413" unicode="&#x413;" horiz-adv-x="610" 
d="M85 668h482v-54h-419v-642h-63v696z" />
    <glyph glyph-name="uni0414" unicode="&#x414;" horiz-adv-x="740" 
d="M112 65q76 127 84 324q7 93 10 172t3 147h383v-643h77v-208h-60v155h-488v-155h-63v208h54zM529 65v589h-253q0 -29 -2.5 -73t-5.5 -94q-2 -25 -3.5 -52.5t-3.5 -57.5q-5 -88 -23.5 -165.5t-52.5 -146.5h344z" />
    <glyph glyph-name="uni0415" unicode="&#x415;" horiz-adv-x="650" 
d="M85 668h482v-54h-419v-251h401v-54h-401v-283h431v-54h-494v696z" />
    <glyph glyph-name="uni0416" unicode="&#x416;" horiz-adv-x="940" 
d="M435 668h62v-380l269 380h67l-207 -301q63 -97 132.5 -198t135.5 -197h-79l-231 338l-87 -123v-215h-62v213q-19 31 -41.5 62.5t-43.5 62.5q-25 -40 -53.5 -83t-57.5 -86q-30 -44 -60 -87t-57 -82h-74l266 395q-51 73 -106 150t-110 151h76l261 -383v383z" />
    <glyph glyph-name="uni0417" unicode="&#x417;" horiz-adv-x="610" 
d="M132 131q17 -65 61 -89.5t109 -24.5q35 0 66.5 10t55.5 29q23 19 37 47.5t14 64.5q0 35 -18.5 61.5t-46.5 43.5q-29 17 -62.5 24t-62.5 4h-15v57q23 0 48 3.5t40 11.5q43 18 67 50t24 76q0 52 -36.5 88t-114.5 36q-27 0 -52 -5t-45 -16q-20 -12 -33 -31t-16 -47h-65
q3 40 23 69t50 49q30 19 66.5 28.5t72.5 9.5q39 0 79 -13t73 -36q32 -24 52.5 -57.5t20.5 -74.5q0 -52 -32 -95.5t-89 -67.5q61 -20 100.5 -65.5t39.5 -106.5q0 -51 -21.5 -89t-55.5 -63q-35 -26 -79 -39t-88 -13q-100 0 -161.5 46.5t-72.5 124.5h67z" />
    <glyph glyph-name="uni0418" unicode="&#x418;" horiz-adv-x="710" 
d="M170 -28h-85v696h63v-625l90 144q52 82 126 201t176 280h85v-696h-63v628z" />
    <glyph glyph-name="uni0419" unicode="&#x419;" horiz-adv-x="710" 
d="M170 -28h-85v696h63v-626l125 203l132 214t135 209h85v-696h-63v628zM506 805q-20 -48 -60.5 -74t-92.5 -26q-51 0 -90.5 27t-61.5 73h50q15 -29 44 -44.5t58 -15.5q32 0 59.5 15.5t46.5 44.5h47z" />
    <glyph glyph-name="uni041A" unicode="&#x41a;" horiz-adv-x="710" 
d="M149 214q0 -60 -0.5 -121t-0.5 -121h-63v696h63v-374q69 68 125 123.5t102 101.5q46 45 84 81.5t70 67.5h81l-287 -285q45 -56 90.5 -112.5t89.5 -109.5q43 -53 82.5 -101.5t72.5 -87.5h-77l-306 366z" />
    <glyph glyph-name="uni041B" unicode="&#x41b;" horiz-adv-x="650" 
d="M190 614v-480q-2 -75 -36.5 -121t-110.5 -50v55q24 4 40.5 16t26.5 29t14 38t4 43v524h434v-696h-63v642h-309z" />
    <glyph glyph-name="uni041C" unicode="&#x41c;" 
d="M664 668h91v-696h-63v603q-33 -89 -63 -169t-57 -154t-52.5 -143.5t-50.5 -136.5h-97l-224 603v-603h-63v696h91l242 -653z" />
    <glyph glyph-name="uni041D" unicode="&#x41d;" horiz-adv-x="700" 
d="M555 313h-407v-341h-63v696h63v-300h407v300h60v-696h-60v341z" />
    <glyph glyph-name="uni041E" unicode="&#x41e;" horiz-adv-x="690" 
d="M345 676q70 0 124.5 -29t91.5 -78q36 -50 55 -114.5t19 -134.5q0 -74 -20.5 -138.5t-57.5 -112.5q-38 -49 -91.5 -77t-120.5 -28q-69 0 -123 30t-91 80q-37 49 -56.5 113t-19.5 133q0 74 20 139t58 113q37 48 91 76t121 28zM345 622q-59 0 -100 -27t-67 -70
q-27 -44 -39 -98t-12 -107q0 -59 13.5 -113t40.5 -96t68 -67t96 -25q58 0 99.5 26t68.5 69q27 42 39.5 96t12.5 110q0 60 -13.5 114.5t-40.5 96.5q-28 41 -69.5 66t-96.5 25z" />
    <glyph glyph-name="uni041F" unicode="&#x41f;" horiz-adv-x="680" 
d="M148 614v-642h-63v696h510v-696h-63v642h-384z" />
    <glyph glyph-name="uni0420" unicode="&#x420;" horiz-adv-x="640" 
d="M85 668h288q48 0 90.5 -13t73.5 -38q31 -26 49 -63.5t18 -86.5q0 -51 -19 -89.5t-51 -64.5t-73.5 -39t-87.5 -13h-225v-289h-63v696zM148 315h225q36 0 66.5 10t53.5 30q22 19 35 47.5t13 64.5q0 38 -13.5 65.5t-36.5 45.5q-24 18 -54.5 27t-63.5 9h-225v-299z" />
    <glyph glyph-name="uni0421" unicode="&#x421;" horiz-adv-x="675" 
d="M617 185q-10 -50 -35.5 -90t-61.5 -68q-36 -29 -80 -44.5t-92 -15.5q-75 0 -130 31.5t-91 82.5q-36 50 -54 113.5t-18 128.5q0 72 19.5 136t57.5 113q37 49 91.5 77.5t124.5 28.5q47 0 90 -14.5t78 -40.5q35 -27 60.5 -63.5t38.5 -79.5h-68q-18 32 -37 58t-42 44t-52 28
t-68 10q-62 0 -105 -29t-69 -73t-37.5 -96t-11.5 -99q0 -52 13 -105t40 -96t69 -70t101 -27q36 0 68.5 13t58.5 35q26 21 45 50t29 62h68z" />
    <glyph glyph-name="uni0422" unicode="&#x422;" horiz-adv-x="645" 
d="M291 614h-248v54h559v-54h-248v-642h-63v642z" />
    <glyph glyph-name="uni0423" unicode="&#x423;" horiz-adv-x="550" 
d="M274 213q19 53 41 111t44 118q22 59 44 116.5t42 109.5h64l-235 -617q-10 -26 -23 -41.5t-30 -23.5t-38 -11t-47 -3h-22v46h33q32 0 51 15.5t25 35.5l22 69q-50 134 -99.5 266t-103.5 264h67z" />
    <glyph glyph-name="uni0424" unicode="&#x424;" horiz-adv-x="790" 
d="M422 89q115 11 180.5 69.5t65.5 160.5q0 103 -63.5 159.5t-182.5 73.5v-463zM359 552q-54 -6 -98 -24.5t-76 -47.5t-49.5 -69.5t-17.5 -91.5t17.5 -91t49.5 -69q32 -30 76 -47.5t98 -22.5v463zM359 27q-65 10 -120.5 34t-95.5 61q-41 37 -64.5 86.5t-23.5 110.5
q0 64 26.5 114.5t69.5 87.5q42 37 96.5 59t111.5 28v71h63v-71q64 -6 120.5 -29t99.5 -60t68 -87.5t25 -112.5q0 -66 -26.5 -117t-69.5 -87q-44 -36 -100.5 -58t-116.5 -29v-66h-63v65z" />
    <glyph glyph-name="uni0425" unicode="&#x425;" horiz-adv-x="675" 
d="M333 282q-55 -77 -108 -156t-109 -154h-72l252 363q-51 79 -111.5 164t-124.5 169h77l196 -284q22 34 48 70.5t52 73.5t52 72.5t50 67.5h76l-237 -333q60 -90 124.5 -181.5t131.5 -181.5h-77z" />
    <glyph glyph-name="uni0426" unicode="&#x426;" horiz-adv-x="720" 
d="M148 44h377v624h63v-624h77v-175h-67v121h-513v678h63v-624z" />
    <glyph glyph-name="uni0427" unicode="&#x427;" horiz-adv-x="720" 
d="M635 -28h-63v328q-24 -32 -55 -52t-65 -31q-35 -11 -72 -15t-73 -4q-44 0 -85 14t-73 40q-32 25 -51.5 61.5t-19.5 81.5v273h63v-236q0 -57 16 -92t45 -54t69.5 -24.5t90.5 -4.5q33 1 69.5 10.5t68.5 28.5q31 18 51.5 46t20.5 65v261h63v-696z" />
    <glyph glyph-name="uni0428" unicode="&#x428;" horiz-adv-x="830" 
d="M678 26v642h67v-696h-660v696h63v-642h232v642h65v-642h233z" />
    <glyph glyph-name="uni0429" unicode="&#x429;" horiz-adv-x="850" 
d="M85 -28v696h63v-642h232v642h65v-642h233v642h67v-642h72v-172h-63v118h-669z" />
    <glyph glyph-name="uni042A" unicode="&#x42a;" horiz-adv-x="820" 
d="M325 326v-300h225q33 0 61.5 11t50.5 31q22 19 34.5 46t12.5 59q0 35 -12.5 63.5t-33.5 48.5q-22 20 -51 30.5t-62 10.5h-225zM258 614h-215v54h282v-287h225q48 0 89.5 -15t72.5 -42q30 -27 47.5 -65.5t17.5 -85.5q0 -50 -18.5 -88t-49.5 -63q-32 -25 -73 -37.5
t-86 -12.5h-292v642z" />
    <glyph glyph-name="uni042B" unicode="&#x42b;" horiz-adv-x="860" 
d="M702 668h63v-696h-63v696zM85 -28v696h63v-287h224q45 0 87 -15.5t75 -43.5q32 -28 51 -66t19 -83q0 -48 -20.5 -85t-53.5 -63t-74.5 -39.5t-83.5 -13.5h-287zM148 326v-300h224q34 0 64 10.5t52 29.5t35 46.5t13 60.5q0 37 -13 65.5t-35 48.5q-22 19 -52 29t-64 10h-224
z" />
    <glyph glyph-name="uni042C" unicode="&#x42c;" horiz-adv-x="650" 
d="M85 -28v696h63v-287h225q48 0 90 -15t74 -42q31 -27 49 -65.5t18 -85.5q0 -51 -19 -89t-51 -63t-74 -37t-87 -12h-288zM148 326v-300h225q34 0 64.5 10t53.5 29t36.5 46.5t13.5 61.5q0 37 -13.5 66t-36.5 48t-53.5 29t-64.5 10h-225z" />
    <glyph glyph-name="uni042D" unicode="&#x42d;" horiz-adv-x="675" 
d="M190 290v58h356q-4 47 -17.5 95.5t-39.5 87.5q-27 39 -67.5 64t-97.5 25q-39 0 -68 -9.5t-52 -26.5q-23 -18 -42 -43.5t-37 -57.5h-68q13 43 38.5 79t60.5 62t78 40t90 14q70 0 124.5 -28.5t92.5 -77.5q37 -49 56.5 -113t19.5 -136q0 -65 -18 -128.5t-54 -113.5
q-36 -51 -91 -82.5t-130 -31.5q-48 0 -92 15t-80 44q-36 28 -61.5 67.5t-35.5 89.5h68q10 -33 29 -61.5t45 -49.5q26 -22 58.5 -34.5t68.5 -12.5q52 0 91.5 22.5t66.5 60.5q27 37 42.5 84.5t20.5 97.5h-355z" />
    <glyph glyph-name="uni042E" unicode="&#x42e;" horiz-adv-x="910" 
d="M574 629q-64 0 -106.5 -29.5t-67.5 -74.5t-35.5 -99.5t-10.5 -104.5q0 -54 11.5 -108.5t37.5 -98.5t68 -71.5t103 -27.5t102.5 30t67.5 75t37.5 99t11.5 102q0 51 -12 105.5t-38 99.5q-27 45 -68.5 74t-100.5 29zM147 294v-322h-62v696h62v-320h143q4 66 24.5 126.5
t56.5 107.5q35 46 86 73.5t117 27.5q73 0 126 -33t88 -85q34 -53 50.5 -117.5t16.5 -126.5q0 -69 -18 -134t-53 -115q-36 -50 -88.5 -80t-121.5 -30q-70 0 -122 29t-87 77q-35 47 -53.5 106.5t-21.5 119.5h-143z" />
    <glyph glyph-name="uni042F" unicode="&#x42f;" horiz-adv-x="670" 
d="M246 282q-38 9 -71 27t-57 43t-37.5 55.5t-13.5 65.5q0 47 20.5 83.5t53.5 61.5q33 24 74 37t83 13h285v-696h-63v307h-198q-51 -75 -105 -153.5t-102 -153.5h-79zM520 333v280h-222q-33 0 -62 -9.5t-50 -27.5q-22 -18 -34.5 -44t-12.5 -59q0 -34 13.5 -60t35.5 -44
t51 -27t59 -9h222z" />
    <glyph glyph-name="uni0430" unicode="&#x430;" horiz-adv-x="510" 
d="M448 53q1 -21 2.5 -41t4.5 -40h-64q-1 3 -0.5 2t-0.5 1q-1 4 -2 6.5t-2 7.5q-2 6 -3 14.5t-2 24.5q-34 -34 -75.5 -55t-95.5 -21q-29 0 -59.5 7.5t-55.5 22.5q-26 15 -43 39t-18 57q-1 26 7 50.5t23 45.5t34.5 36.5t41.5 23.5q26 9 53.5 12t55.5 5q27 2 54 6.5t51 17.5
q28 16 28 46q0 27 -9.5 49.5t-26.5 39.5t-40.5 26.5t-52.5 9.5q-26 0 -49.5 -8.5t-41.5 -24.5q-18 -17 -28 -40t-9 -53h-68q1 43 19 76t46 55t62.5 33t68.5 11q37 0 72 -11.5t63 -33.5q27 -23 43.5 -55t16.5 -74v-268zM382 234q-25 -14 -49.5 -19t-48.5 -7t-47 -4t-46 -9
q-42 -14 -66.5 -44.5t-22.5 -61.5q1 -21 11 -37.5t25 -27.5t34.5 -16.5t40.5 -5.5q25 0 51 8t49 22q23 13 41.5 32t27.5 41v129z" />
    <glyph glyph-name="uni0431" unicode="&#x431;" horiz-adv-x="520" 
d="M260 451q-42 0 -71 -22t-46 -55q-18 -33 -26 -72.5t-8 -75.5q0 -38 8.5 -77t27.5 -70q18 -32 46.5 -51.5t68.5 -19.5q41 0 70 20.5t47 52.5t26 70.5t8 74.5q0 37 -8.5 77t-26.5 73q-19 33 -47.5 54t-68.5 21zM334 635q26 0 46.5 11.5t32.5 43.5h61q-8 -35 -24 -61
t-53 -38q-27 -8 -54.5 -8t-55.5 4q-30 4 -55.5 -7.5t-46.5 -33.5t-37 -51.5t-26 -60.5q45 36 82 51t56 15q52 0 92.5 -24t68.5 -62q27 -39 41 -88t14 -100q0 -55 -14.5 -103.5t-42.5 -84.5t-68 -57t-91 -21q-54 0 -94.5 22t-67.5 59t-40.5 85t-13.5 100q0 51 2.5 103
t10.5 98q7 42 26 81t47 68q27 29 61.5 46.5t73.5 17.5z" />
    <glyph glyph-name="uni0432" unicode="&#x432;" horiz-adv-x="490" 
d="M80 -30v520h183q30 0 56.5 -9.5t46.5 -25.5t32.5 -38t13.5 -47q2 -44 -11.5 -77t-51.5 -52q23 -14 39.5 -25.5t27.5 -26.5q10 -15 14.5 -34.5t4.5 -47.5q0 -29 -13.5 -53.5t-36.5 -43.5t-53 -29.5t-62 -10.5h-190zM145 262h80q31 0 53.5 7.5t37.5 20.5q15 12 23 27.5
t10 31.5q2 26 -10.5 43.5t-31.5 28.5q-20 11 -42.5 16t-39.5 5h-80v-180zM145 17h80q25 0 49.5 5t45.5 17q20 12 33 31.5t14 47.5q2 40 -35.5 68t-106.5 28h-80v-197z" />
    <glyph glyph-name="uni0433" unicode="&#x433;" horiz-adv-x="440" 
d="M84 490h332v-47h-266v-473h-66v520z" />
    <glyph glyph-name="uni0434" unicode="&#x434;" horiz-adv-x="570" 
d="M123 160q17 45 27.5 98.5t15.5 106.5q5 60 7 121t2 109h263v-435h83v-190h-65v144h-348v-144h-64v190h79zM373 160v390h-136q0 -29 -2 -77.5t-6 -107.5q-4 -60 -14.5 -112t-27.5 -93h186z" />
    <glyph glyph-name="uni0435" unicode="&#x435;" horiz-adv-x="520" 
d="M258 500q53 0 94 -24.5t69 -63.5q28 -40 42.5 -90.5t14.5 -101.5h-368q3 -36 13 -73.5t28 -68.5t44.5 -50.5t62.5 -19.5q56 0 86.5 30t45.5 79h74q-28 -70 -79 -113.5t-127 -43.5q-52 0 -92.5 23.5t-67.5 61.5q-28 38 -42 86t-14 98q0 51 15 100t44 87q28 38 67.5 61
t89.5 23zM408 270q-6 40 -20 73.5t-33 57.5q-20 24 -44.5 37.5t-52.5 13.5q-26 0 -49.5 -13.5t-42.5 -37.5t-33 -57.5t-20 -73.5h295z" />
    <glyph glyph-name="uni0436" unicode="&#x436;" horiz-adv-x="750" 
d="M341 -30v174q-12 13 -18.5 20t-12.5 14q-6 6 -12.5 14.5t-18.5 24.5q-45 -61 -88.5 -123.5t-87.5 -123.5h-73l212 291q-22 25 -46.5 54t-49.5 59t-49.5 59.5t-46.5 56.5h64l227 -268v268h67v-262q57 67 111.5 131.5t111.5 130.5h65l-191 -229q45 -62 96.5 -133.5
t97.5 -135.5l16 -22h-72l-176 247l-59 -72v-175h-67z" />
    <glyph glyph-name="uni0437" unicode="&#x437;" horiz-adv-x="430" 
d="M112 127q2 -58 25.5 -89.5t80.5 -31.5q45 0 71.5 27t29.5 77q-2 32 -23 62t-52 38h-62v48h27q38 4 64 30.5t28 64.5q-1 43 -23 71.5t-62 28.5q-41 0 -62 -29t-23 -69h-65q3 34 16 61t34 46q20 19 46.5 28.5t55.5 9.5q28 0 55 -11t48 -30q20 -20 32.5 -46.5t12.5 -56.5
q0 -40 -21.5 -70.5t-43.5 -48.5q39 -25 60.5 -55.5t22.5 -71.5q-2 -32 -15 -59.5t-34 -47.5q-22 -20 -52.5 -31.5t-66.5 -11.5q-74 0 -120.5 44.5t-49.5 122.5h66z" />
    <glyph glyph-name="uni0438" unicode="&#x438;" horiz-adv-x="580" 
d="M157 -30h-73v520h65v-434l280 434h67v-520h-66v420z" />
    <glyph glyph-name="uni0439" unicode="&#x439;" horiz-adv-x="580" 
d="M427 625q-18 -48 -54 -74t-83 -26q-46 0 -81.5 27.5t-55.5 72.5h44q13 -27 39.5 -45t53.5 -18q32 0 56.5 17t40.5 46h40zM157 -30h-73v520h65v-434l280 434h67v-520h-66v420z" />
    <glyph glyph-name="uni043A" unicode="&#x43a;" horiz-adv-x="530" 
d="M150 115v-145h-66v520h66v-305l270 305h70l-210 -232q60 -70 121 -144.5t119 -143.5h-70l-209 246z" />
    <glyph glyph-name="uni043B" unicode="&#x43b;" horiz-adv-x="520" 
d="M154 103q0 -72 -30 -103t-95 -35v51q33 4 46.5 24t13.5 47v403h342v-520h-65v470h-212v-337z" />
    <glyph glyph-name="uni043C" unicode="&#x43c;" horiz-adv-x="640" 
d="M498 490h63v-520h-65v390l-158 -390h-36l-158 390v-390h-65v520h63l178 -435z" />
    <glyph glyph-name="uni043D" unicode="&#x43d;" horiz-adv-x="550" 
d="M407 220h-263v-250h-65v520h65v-222h263v222h64v-520h-64v250z" />
    <glyph glyph-name="uni043E" unicode="&#x43e;" horiz-adv-x="520" 
d="M259 500q56 0 97 -25.5t68 -65.5q26 -40 39 -88.5t13 -94.5q0 -51 -14.5 -99t-42.5 -85t-68 -59.5t-92 -22.5q-56 0 -96.5 24.5t-66.5 62.5q-27 38 -39.5 85.5t-12.5 93.5q0 51 14 100t41 88t67 62.5t93 23.5zM257 452q-43 0 -71.5 -23.5t-45.5 -57.5q-17 -35 -24 -74.5
t-7 -70.5q0 -34 7.5 -72t25.5 -70q17 -33 45.5 -54.5t69.5 -21.5q43 0 72 22t47 55q17 33 24.5 71t7.5 70q0 34 -7.5 73.5t-25.5 73.5t-47 56.5t-71 22.5z" />
    <glyph glyph-name="uni043F" unicode="&#x43f;" horiz-adv-x="550" 
d="M144 440v-470h-65v520h392v-520h-64v470h-263z" />
    <glyph glyph-name="uni0440" unicode="&#x440;" horiz-adv-x="580" 
d="M149 -170h-65v660h65v-80q35 53 77 76.5t97 23.5q51 0 90.5 -23.5t66.5 -60.5q27 -38 40.5 -85t13.5 -95q0 -51 -14.5 -99t-41.5 -85t-66.5 -59.5t-88.5 -22.5q-48 0 -91.5 23t-82.5 77v-250zM305 460q-40 0 -69.5 -20t-48.5 -51q-19 -32 -28.5 -69.5t-9.5 -72.5
q0 -38 9.5 -76.5t29.5 -69.5q19 -31 48.5 -50t68.5 -19q42 0 71.5 20t49.5 52q19 31 28 69t9 74q0 37 -10 75t-29 69q-20 31 -50 50t-69 19z" />
    <glyph glyph-name="uni0441" unicode="&#x441;" horiz-adv-x="510" 
d="M466 125q-25 -78 -81 -121.5t-125 -43.5q-52 0 -92 22.5t-67 60.5q-28 37 -42 84.5t-14 97.5q0 53 14.5 102.5t42.5 88.5q28 38 68 61t90 23q38 0 72 -12.5t61 -35.5t46 -55.5t26 -72.5h-68q-18 57 -51 91.5t-86 34.5q-40 0 -68 -23t-45 -56q-18 -34 -26 -73.5t-8 -72.5
q0 -35 9 -73t27 -69q18 -32 45.5 -52.5t65.5 -20.5q53 0 85.5 31.5t49.5 83.5h71z" />
    <glyph glyph-name="uni0442" unicode="&#x442;" horiz-adv-x="470" 
d="M202 440h-160v50h386v-50h-160v-470h-66v470z" />
    <glyph glyph-name="uni0443" unicode="&#x443;" horiz-adv-x="540" 
d="M260 75q21 48 43 100.5t45 106.5q22 53 43.5 106t41.5 102h72l-239 -550q-12 -28 -21.5 -47t-20.5 -31t-27.5 -17t-41.5 -5h-37v50h29q23 0 32 12t15 26l38 82q-50 122 -99.5 239.5t-98.5 240.5h56z" />
    <glyph glyph-name="uni0444" unicode="&#x444;" horiz-adv-x="800" 
d="M364 640h68l-1 -231q31 46 67.5 60.5t71.5 14.5q47 0 83.5 -23.5t61.5 -59.5q24 -37 37 -82.5t13 -88.5q0 -47 -13 -92t-38 -80q-25 -36 -61.5 -58t-82.5 -22q-16 0 -35 4t-38 12q-19 9 -36 22t-29 30v-236h-68v232q-28 -32 -67 -48t-72 -16q-47 0 -82.5 23.5t-59.5 60.5
q-24 36 -36 81t-12 87q0 45 13 90t38 82q24 36 59 59t80 23q16 0 35 -3t38 -10q19 -8 36 -21.5t30 -33.5v224zM565 439q-39 0 -64.5 -21t-40.5 -52q-15 -32 -21.5 -68.5t-6.5 -67.5q0 -33 6.5 -70t22.5 -67q16 -31 41 -51.5t63 -20.5q39 0 64.5 21.5t40.5 53.5
q15 31 21 67.5t6 66.5q0 33 -7 69.5t-22 67.5q-16 31 -41 51.5t-62 20.5zM232 439q-38 0 -62.5 -21.5t-38.5 -53.5q-15 -32 -21 -68.5t-6 -65.5q0 -31 6.5 -67.5t21.5 -67.5q15 -32 39.5 -53t60.5 -21q39 0 64.5 21.5t40.5 53.5q15 31 21 67.5t6 66.5q0 45 -9.5 81t-26.5 68
q-35 60 -96 60z" />
    <glyph glyph-name="uni0445" unicode="&#x445;" horiz-adv-x="540" 
d="M45 490h83l141 -196q30 42 51 72.5t36 53.5q15 22 26.5 38.5t22.5 31.5h65l-170 -239q38 -53 62.5 -87.5t45.5 -63.5t43 -58.5t54 -71.5h-87l-160 222l-158 -222h-65q63 85 110 150t82 115z" />
    <glyph glyph-name="uni0446" unicode="&#x446;" horiz-adv-x="570" 
d="M149 20h245v470h65v-470h82v-135h-63v85h-394v520h65v-470z" />
    <glyph glyph-name="uni0447" unicode="&#x447;" horiz-adv-x="550" 
d="M467 -30h-64v218q-35 -41 -78 -60.5t-97 -17.5q-35 1 -68 13t-58 34q-26 22 -41.5 53t-15.5 71v209h66v-190q3 -75 41.5 -107.5t105.5 -30.5q22 0 47.5 10t47.5 27q21 16 35.5 38t14.5 47v206h64v-520z" />
    <glyph glyph-name="uni0448" unicode="&#x448;" horiz-adv-x="650" 
d="M500 20v470h66v-520h-482v520h65v-470h140v470h69v-470h142z" />
    <glyph glyph-name="uni0449" unicode="&#x449;" horiz-adv-x="670" 
d="M84 -30v520h65v-470h140v470h69v-470h142v470h66v-470h75v-135h-65v85h-492z" />
    <glyph glyph-name="uni044A" unicode="&#x44a;" horiz-adv-x="580" 
d="M228 18h100q28 0 54.5 6.5t46.5 20.5t32 35.5t12 51.5q0 31 -12.5 53.5t-32.5 37.5q-21 15 -47 22t-53 7h-100v-234zM160 -30v470h-138v50h206v-190h130q39 0 72.5 -13.5t58.5 -37.5t38 -56.5t11 -71.5q-2 -36 -17.5 -64t-39.5 -47q-24 -20 -54.5 -30t-62.5 -10h-204z
" />
    <glyph glyph-name="uni044B" unicode="&#x44b;" horiz-adv-x="670" 
d="M149 18h96q34 0 61.5 9t46.5 25q19 15 29 36t10 44q0 30 -14 52.5t-36 37.5t-47.5 22.5t-49.5 7.5h-96v-234zM149 490v-190h125q36 -1 71 -14t62 -36q27 -24 42 -57t12 -74q-3 -35 -18.5 -62.5t-39.5 -46.5t-55 -29.5t-64 -10.5h-200v520h65zM520 490h66v-520h-66v520z
" />
    <glyph glyph-name="uni044C" unicode="&#x44c;" horiz-adv-x="500" 
d="M149 18h96q34 0 61.5 9t46.5 25q19 15 29 36t10 44q0 31 -14 53.5t-36 37.5t-47.5 22t-49.5 7h-96v-234zM149 490v-190h125q39 -2 74.5 -15t62.5 -36q26 -23 40 -56t10 -73q-3 -35 -18.5 -62.5t-38.5 -46.5q-24 -20 -54.5 -30.5t-63.5 -10.5h-202v520h65z" />
    <glyph glyph-name="uni044D" unicode="&#x44d;" horiz-adv-x="500" 
d="M230 205v49h166q-2 35 -11 70t-27 63t-45.5 45.5t-66.5 17.5q-50 0 -85 -34.5t-55 -91.5h-71q9 38 29.5 70.5t48.5 56.5q27 23 61 36t72 13q55 0 96 -25t68 -64t40.5 -87.5t13.5 -94.5q0 -51 -14 -99t-42 -86t-68.5 -61t-93.5 -23q-38 0 -71.5 12.5t-60.5 35.5
q-27 22 -46.5 54t-27.5 70h70q17 -62 51.5 -92t84.5 -30q63 0 101.5 52t47.5 143h-165z" />
    <glyph glyph-name="uni044E" unicode="&#x44e;" horiz-adv-x="702" 
d="M442 454q-43 0 -71.5 -23.5t-45.5 -57.5q-18 -34 -25 -73.5t-7 -70.5q0 -35 7 -74.5t25 -72.5q17 -34 45.5 -56t71.5 -22q44 0 73.5 23t47.5 57q18 33 25.5 72.5t7.5 72.5q0 34 -8.5 73.5t-26.5 73.5q-19 33 -48.5 55.5t-70.5 22.5zM149 260h75q6 48 23 91.5t45 77.5
q28 33 65.5 53t84.5 20q54 0 95.5 -25t69.5 -64q28 -40 42.5 -88.5t14.5 -95.5q0 -51 -15 -100t-43 -87q-29 -38 -70.5 -61.5t-93.5 -23.5q-50 0 -89.5 22.5t-66.5 59.5q-28 36 -43.5 81.5t-18.5 91.5h-75v-238h-65v516h65v-230z" />
    <glyph glyph-name="uni044F" unicode="&#x44f;" horiz-adv-x="500" 
d="M173 188q-48 20 -75 59t-27 92q0 34 11.5 61.5t32.5 47.5q20 20 48.5 31t61.5 11h191v-520h-65v214h-109q-7 -13 -27 -45t-42 -66q-22 -35 -41 -64.5t-24 -38.5h-74zM351 232v210h-80q-64 0 -100.5 -25.5t-36.5 -82.5q0 -30 12 -49.5t32 -31.5q19 -12 43.5 -16.5
t49.5 -4.5h80z" />
    <glyph glyph-name="uni0451" unicode="&#x451;" horiz-adv-x="510" 
d="M253 500q53 0 94 -23.5t69 -61.5t42.5 -88t14.5 -102h-368q3 -37 13 -75.5t28 -69.5q18 -32 44.5 -52t62.5 -20q57 0 87 28.5t45 77.5h74q-28 -69 -79.5 -111.5t-126.5 -42.5q-52 0 -92.5 23.5t-67.5 61.5q-28 38 -42 86.5t-14 99.5q0 52 15 100.5t44 86.5
q28 37 67.5 59.5t89.5 22.5zM403 269q-6 41 -20 75t-33 58q-20 24 -44.5 37.5t-52.5 13.5q-26 0 -49.5 -13.5t-42.5 -37.5t-33 -58t-20 -75h295zM124 606q0 17 12.5 29.5t29.5 12.5q18 0 30.5 -12.5t12.5 -29.5q0 -18 -12.5 -30t-30.5 -12q-17 0 -29.5 12t-12.5 30zM295 606
q0 17 12.5 29.5t29.5 12.5q18 0 30.5 -12.5t12.5 -29.5q0 -18 -12.5 -30t-30.5 -12q-17 0 -29.5 12t-12.5 30z" />
    <glyph glyph-name="uni2015" unicode="&#x2015;" horiz-adv-x="900" 
d="M830 328v-38h-760v38h760z" />
    <glyph glyph-name="quoteleft" unicode="&#x2018;" horiz-adv-x="400" 
d="M318 506q-3 8 -7.5 28.5t-8.5 43.5q-5 23 -8.5 43t-4.5 27q-2 10 -3 21.5t-1 22.5q0 23 9 42.5t36 20.5q20 -3 27.5 -17t7.5 -37q0 -11 -2 -26.5t-4 -29.5q-3 -15 -7 -34l-8 -38q-5 -19 -10 -37t-9 -31z" />
    <glyph glyph-name="quoteright" unicode="&#x2019;" horiz-adv-x="400" 
d="M68 506q-3 8 -7.5 28.5t-8.5 43.5q-5 23 -8.5 43t-4.5 27q-2 10 -3 21.5t-1 22.5q0 23 9 42.5t36 20.5q20 -3 27.5 -17t7.5 -37q0 -11 -2 -26.5t-4 -29.5q-3 -15 -7 -34l-8 -38q-5 -19 -10 -37t-9 -31z" />
    <glyph glyph-name="quotedblleft" unicode="&#x201c;" horiz-adv-x="400" 
d="M318 506q-3 8 -7.5 28.5t-8.5 43.5q-5 23 -8.5 43t-4.5 27q-2 10 -3 21.5t-1 22.5q0 23 9 42.5t36 20.5q20 -3 27.5 -17t7.5 -37q0 -11 -2 -26.5t-4 -29.5q-3 -15 -7 -34l-8 -38q-5 -19 -10 -37t-9 -31zM198 506q-3 8 -7.5 28.5t-8.5 43.5q-5 23 -8.5 43t-4.5 27
q-2 10 -3 21.5t-1 22.5q0 23 9 42.5t36 20.5q20 -3 27.5 -17t7.5 -37q0 -11 -2 -26.5t-4 -29.5q-3 -15 -7 -34l-8 -38q-5 -19 -10 -37t-9 -31z" />
    <glyph glyph-name="quotedblright" unicode="&#x201d;" horiz-adv-x="400" 
d="M68 506q-3 8 -7.5 28.5t-8.5 43.5q-5 23 -8.5 43t-4.5 27q-2 10 -3 21.5t-1 22.5q0 23 9 42.5t36 20.5q20 -3 27.5 -17t7.5 -37q0 -11 -2 -26.5t-4 -29.5q-3 -15 -7 -34l-8 -38q-5 -19 -10 -37t-9 -31zM188 506q-3 8 -7.5 28.5t-8.5 43.5q-5 23 -8.5 43t-4.5 27
q-2 10 -3 21.5t-1 22.5q0 23 9 42.5t36 20.5q20 -3 27.5 -17t7.5 -37q0 -11 -2 -26.5t-4 -29.5q-3 -15 -7 -34l-8 -38q-5 -19 -10 -37t-9 -31z" />
    <glyph glyph-name="dagger" unicode="&#x2020;" horiz-adv-x="800" 
d="M427 533q27 4 47 10h-1q23 6 45.5 10.5t45.5 0.5q16 -2 28.5 -10t12.5 -22q0 -15 -12 -24t-29 -12q-20 -1 -38.5 1.5t-36.5 6.5q-18 3 -35.5 7t-35.5 6q0 -26 4.5 -51.5t14.5 -38.5q14 -20 15 -29t-3 -14q-7 -9 -11 -20q-8 -29 -15.5 -71.5t-7.5 -112.5q0 -11 0.5 -22.5
t0.5 -22.5q0 -18 0.5 -36.5t0.5 -36.5q0 -36 -1.5 -71.5t-5.5 -69.5q-2 -41 -10 -41t-10 43q-5 29 -6.5 56t-1.5 53q0 17 0.5 38t1.5 38q1 18 1 36v36q0 17 -0.5 41.5t-2.5 50.5q-3 26 -7 50.5t-10 42.5l-11 20q-5 7 -5.5 15t16.5 29q8 13 14 37t7 52q-40 -7 -80.5 -17
t-79.5 -5h1q-32 6 -32 36q0 13 8.5 21.5t22.5 10.5q15 2 36.5 0t44.5 -5q23 -4 45 -9.5t37 -10.5q-7 36 -16.5 72.5t-9.5 71.5q0 12 1.5 24.5t5.5 22.5q3 10 10.5 16.5t19.5 6.5q29 0 33 -38q2 -22 -1.5 -44t-8.5 -45q-4 -20 -7 -38.5t-1 -35.5z" />
    <glyph glyph-name="daggerdbl" unicode="&#x2021;" horiz-adv-x="800" 
d="M386 514q-27 0 -42.5 -3t-29.5 -7q-23 -6 -42 -8.5t-40 1.5q-32 6 -32 32q0 13 8.5 21.5t22.5 10.5q25 5 49 1t48 -10h-1q11 -3 24.5 -6t36.5 -6q-2 13 -5.5 33t-6.5 33q-6 26 -10 51t-1 50q4 36 35 36q28 0 33 -36q3 -26 -1.5 -47.5t-9.5 -40.5q-5 -17 -7.5 -34.5
t2.5 -43.5q14 1 23.5 2.5t16.5 3.5q6 1 11.5 2.5t11.5 3.5q22 6 43.5 9t44.5 -1q32 -4 32 -32q0 -26 -32 -32q-26 -5 -49 -1t-45 11q-14 4 -26.5 6.5t-29.5 -0.5v-102q22 3 36 5.5t25 5.5q23 5 45.5 9t43.5 0q32 -4 32 -31t-32 -35q-20 -5 -39.5 -1.5t-37.5 9.5
q-16 5 -32.5 8t-40.5 1q0 -24 4.5 -47t14.5 -36q11 -16 12.5 -23t-3.5 -15l-7 -17q-11 -33 -19 -75t-8 -99q0 -40 -1 -79.5t-1 -79.5q-1 -41 -10 -41q-4 0 -6.5 11t-3.5 30q-1 17 -2 52.5t-1 106.5q1 52 -6 94t-18 71l-12 26q-5 8 -4 11.5t10 17.5v-1l6 9q9 15 15.5 39.5
t7.5 45.5q-25 2 -43 -2t-35 -9q-19 -6 -37.5 -9.5t-38.5 2.5q-32 8 -32 35q0 28 31 31q23 2 45.5 -1.5t45.5 -8.5q13 -2 32 -5t32 -5v103z" />
    <glyph glyph-name="twodotenleader" unicode="&#x2025;" horiz-adv-x="900" 
d="M178 352h94v-94h-94v94zM628 352h94v-94h-94v94z" />
    <glyph glyph-name="ellipsis" unicode="&#x2026;" horiz-adv-x="930" 
d="M110 405h90v-95h-90v95zM420 405h90v-95h-90v95zM730 405h90v-95h-90v95z" />
    <glyph glyph-name="perthousand" unicode="&#x2030;" horiz-adv-x="940" 
d="M160 410q-31 0 -53 11t-35 29q-14 17 -20 38t-6 42t6 42t20 39q13 17 35 28t53 11t53 -11t36 -28q13 -18 19 -39t6 -42t-6 -42t-19 -38q-14 -18 -36 -29t-53 -11zM490 10q-31 0 -53 11t-35 29q-14 17 -20 38t-6 42t6 42t20 39q13 17 35 28t53 11t53 -11t36 -28
q13 -18 19 -39t6 -42t-6 -42t-19 -38q-14 -18 -36 -29t-53 -11zM750 10q-31 0 -53 11t-35 29q-14 17 -20 38t-6 42t6 42t20 39q13 17 35 28t53 11t53 -11t36 -28q13 -18 19 -39t6 -42t-6 -42t-19 -38q-14 -18 -36 -29t-53 -11zM523 674h45l-432 -698h-46zM160 456
q38 0 51.5 22.5t13.5 51.5t-13.5 51.5t-51.5 22.5t-51.5 -22.5t-13.5 -51.5t13.5 -51.5t51.5 -22.5zM490 56q38 0 51.5 22.5t13.5 51.5t-13.5 51.5t-51.5 22.5t-51.5 -22.5t-13.5 -51.5t13.5 -51.5t51.5 -22.5zM750 56q38 0 51.5 22.5t13.5 51.5t-13.5 51.5t-51.5 22.5
t-51.5 -22.5t-13.5 -51.5t13.5 -51.5t51.5 -22.5z" />
    <glyph glyph-name="minute" unicode="&#x2032;" horiz-adv-x="500" 
d="M27 520l77 230h83l-133 -230h-27z" />
    <glyph glyph-name="second" unicode="&#x2033;" horiz-adv-x="500" 
d="M27 520l77 230h83l-133 -230h-27zM147 520l77 230h83l-133 -230h-27z" />
    <glyph glyph-name="uni203B" unicode="&#x203b;" horiz-adv-x="800" 
d="M676 557l-243 -245l126 -127l117 -118l-32 -33l-245 245l-247 -246l-33 34l243 245l-126 127v-1l-117 119q8 10 16.5 18.5t16.5 17.5l247 -248l126 128l119 120zM131 315q0 20 14 35t35 15q20 0 35 -15t15 -35q0 -21 -15 -35t-35 -14q-21 0 -35 14t-14 35zM351 95
q0 20 14 35t35 15q20 0 35 -15t15 -35q0 -21 -15 -35t-35 -14q-21 0 -35 14t-14 35zM571 315q0 20 14 35t35 15q20 0 35 -15t15 -35q0 -21 -15 -35t-35 -14q-21 0 -35 14t-14 35zM351 535q0 20 14 35t35 15q20 0 35 -15t15 -35q0 -21 -15 -35t-35 -14q-21 0 -35 14t-14 35z
" />
    <glyph glyph-name="uni2074" unicode="&#x2074;" horiz-adv-x="450" 
d="M25 549v49l17 22q30 42 58 80.5t53 81.5h47v-196h36v-37h-36v-40h-45v40h-130zM155 711l-88 -125h88v125z" />
    <glyph glyph-name="uni207F" unicode="&#x207f;" horiz-adv-x="450" 
d="M35 780h54v-29q41 38 92 34q16 -2 29.5 -10.5t23.5 -21.5q9 -13 14 -29.5t5 -32.5v-182h-50v163q0 73 -50 73q-70 0 -70 -79v-157h-48v271z" />
    <glyph glyph-name="uni2081" unicode="&#x2081;" horiz-adv-x="450" 
d="M95 -86v188h-65v36q26 1 46.5 12.5t25.5 36.5h38v-273h-45z" />
    <glyph glyph-name="uni2082" unicode="&#x2082;" horiz-adv-x="450" 
d="M115 -8q-7 -8 -15 -19t-15 -25h142v-35h-197q2 29 16.5 56t49.5 55q23 18 39 30.5t26 22.5q10 9 14.5 17t5.5 17q1 20 -12.5 34t-34.5 14q-26 0 -39 -15t-15 -38h-45q1 18 10 34t23 29q14 12 31.5 19t35.5 7q17 0 33.5 -6t29.5 -17q12 -11 20 -26t8 -34q0 -35 -18 -51
q-4 -4 -9 -8t-14 -11q-10 -7 -26.5 -19t-43.5 -31z" />
    <glyph glyph-name="uni2083" unicode="&#x2083;" horiz-adv-x="450" 
d="M69 -7q2 -20 16.5 -33t40.5 -13q20 0 35 12t17 30q5 31 -39 45q-5 2 -15 2.5t-19 0.5v39h3q10 0 20.5 0.5t15.5 3.5q10 7 17.5 15.5t9.5 21.5q2 14 -11.5 28t-33.5 14q-26 0 -37 -11t-12 -31h-46q8 33 32.5 55.5t62.5 22.5q42 0 66 -22t24 -53q0 -22 -15 -38t-28 -24
q18 -11 34 -27.5t16 -39.5q0 -36 -27 -59.5t-70 -23.5q-18 0 -35 6t-31 17q-15 11 -24.5 26.5t-12.5 35.5h46z" />
    <glyph glyph-name="uni2084" unicode="&#x2084;" horiz-adv-x="450" 
d="M25 -46v49q43 58 73 99.5t55 84.5h47v-196h36v-37h-36v-40h-45v40h-130zM155 116l-88 -125h88v125z" />
    <glyph glyph-name="Euro" unicode="&#x20ac;" horiz-adv-x="800" 
d="M70 190v60h81q-2 17 -3 34.5t-1 35.5q0 41 6 80h-83v60h96q14 46 37.5 85.5t56.5 68.5t76 45t96 16q49 0 90 -15t74 -41q32 -26 55.5 -61t37.5 -74h-65q-22 67 -73 101t-118 34q-42 0 -74.5 -12.5t-56.5 -33.5q-25 -22 -42 -51t-27 -62h227v-60h-241q-4 -20 -5 -40
t-1 -40q0 -18 1 -35.5t3 -34.5h243v-60h-230q10 -36 27.5 -66.5t42.5 -52.5q24 -23 57.5 -36t75.5 -13q35 0 67 11t58 32q25 20 43.5 47.5t26.5 60.5l64 1q-12 -47 -36.5 -85.5t-58.5 -65.5q-35 -28 -77 -43t-88 -15q-56 0 -100 17.5t-77 48.5q-34 30 -56.5 71t-35.5 88h-93
z" />
    <glyph glyph-name="uni2103" unicode="&#x2103;" horiz-adv-x="800" 
d="M732 180q-10 -49 -34 -89.5t-58 -69.5q-35 -29 -77 -45t-88 -16q-71 0 -123 31.5t-86 82.5q-35 51 -52 115t-17 129q0 72 18.5 137t54.5 114q36 48 87.5 77t117.5 29q46 0 87 -14.5t75 -40.5q33 -27 57 -63.5t36 -80.5h-65q-17 31 -35 56.5t-40 43.5t-50 27.5t-65 9.5
q-59 0 -99.5 -28.5t-64.5 -72.5q-25 -44 -36 -96t-11 -98q0 -52 12.5 -104.5t38.5 -94.5q25 -43 65 -70t95 -27q34 0 64.5 13t55.5 35t43.5 50.5t28.5 59.5h65zM40 690q0 37 26.5 63.5t63.5 26.5t63.5 -26.5t26.5 -63.5t-26.5 -63.5t-63.5 -26.5t-63.5 26.5t-26.5 63.5z
M75 690q0 -23 16 -39t39 -16t39 16t16 39t-16 39t-39 16t-39 -16t-16 -39z" />
    <glyph glyph-name="uni2109" unicode="&#x2109;" horiz-adv-x="820" 
d="M304 670h454v-58h-388v-247h370v-58h-370v-337h-66v700zM40 690q0 37 26.5 63.5t63.5 26.5t63.5 -26.5t26.5 -63.5t-26.5 -63.5t-63.5 -26.5t-63.5 26.5t-26.5 63.5zM75 690q0 -23 16 -39t39 -16t39 16t16 39t-16 39t-39 16t-39 -16t-16 -39z" />
    <glyph glyph-name="uni2113" unicode="&#x2113;" horiz-adv-x="600" 
d="M403 51q-22 -42 -54.5 -68t-77.5 -26q-52 0 -115 78q-25 -6 -50.5 -12t-49.5 -7q-3 11 -6 27.5t-6 29.5q18 0 30 1t22 2q9 1 17 3t18 5q-11 29 -19.5 57.5t-13.5 62.5q-6 33 -8.5 74.5t-2.5 96.5q0 29 4 65.5t13 73.5q9 36 22.5 71t32.5 62t43.5 43.5t54.5 16.5
q25 0 43 -14.5t31 -37.5q12 -23 19.5 -51.5t11.5 -56.5q4 -29 5 -54.5t1 -42.5q0 -51 -9 -105t-28 -105t-48.5 -96t-69.5 -77q17 -35 41.5 -48t51.5 1q13 7 28 23.5t26 40.5zM259 648q-22 2 -39.5 -13.5t-30.5 -40.5q-13 -26 -22 -58.5t-14 -65.5q-6 -34 -8.5 -64t-1.5 -51
q2 -74 11.5 -135t30.5 -108q32 28 56 73.5t40 96.5q15 50 23 99t8 84q0 11 -1.5 40.5t-6.5 60.5q-6 31 -16.5 55.5t-28.5 26.5z" />
    <glyph glyph-name="uni2116" unicode="&#x2116;" horiz-adv-x="950" 
d="M50 670h81l263 -610v610h55v-700h-78l-266 616v-616h-55v700zM500 215q0 55 12.5 102t36.5 81q23 34 55.5 53t73.5 19t74 -19t57 -53q23 -34 35.5 -81t12.5 -102q0 -53 -13 -99t-36 -81q-24 -35 -57 -55t-73 -20t-73 20t-56 55t-36 81t-13 99zM556 215q0 -36 7 -71.5
t22 -62.5q15 -28 38 -45.5t55 -17.5t55 17.5t38 45.5q15 27 22.5 62.5t7.5 71.5q0 38 -8.5 73.5t-23.5 63.5q-16 27 -39 43.5t-52 16.5t-51.5 -16.5t-38.5 -43.5q-16 -28 -24 -63.5t-8 -73.5zM845 -4q0 23 11.5 39.5t28.5 16.5t28.5 -16.5t11.5 -39.5t-11.5 -39.5
t-28.5 -16.5t-28.5 16.5t-11.5 39.5z" />
    <glyph glyph-name="uni2121" unicode="&#x2121;" horiz-adv-x="1000" 
d="M236 600h-196v70h458v-70h-197v-630h-65v630zM747 -9q-6 -3 -8 -3h-1q-23 -11 -51 -19.5t-73 -8.5q-104 0 -159 70t-55 190q0 55 14 101t40 79t61.5 51.5t79.5 18.5q49 0 84 -20.5t58 -56.5q22 -36 32.5 -85.5t11.5 -107.5h-317q1 -39 13 -72.5t32 -57.5t46.5 -38
t58.5 -14q39 0 72 14t54 30zM718 252q-2 30 -11.5 58.5t-25.5 51.5q-17 22 -38.5 36t-47.5 14q-29 0 -51.5 -15t-39.5 -38t-27.5 -51.5t-14.5 -55.5h256zM848 700h62v-730h-62v730z" />
    <glyph glyph-name="trademark" unicode="&#x2122;" horiz-adv-x="940" 
d="M143 679h-115v45h280v-45h-116v-283h-49v283zM354 724h78l95 -268q21 61 36.5 105t26.5 75t18 52l12 36h77v-328h-46v274l-101 -274h-48l-100 274v-274h-48v328z" />
    <glyph glyph-name="Omega" unicode="&#x2126;" horiz-adv-x="700" 
d="M375 97q0 18 10 25t18 9q42 12 72.5 37.5t50.5 59.5q19 33 28.5 73t9.5 80q0 48 -15 94.5t-42 83.5q-28 36 -68 58.5t-89 22.5q-52 0 -92 -23.5t-67 -60.5q-27 -38 -41 -84t-14 -91q0 -89 41.5 -155t123.5 -95q5 -1 14.5 -7.5t9.5 -26.5v-92q0 -5 -1 -12t-5 -13
t-12.5 -10.5t-22.5 -4.5h-139v47h120v71q-48 18 -84.5 49t-60.5 71q-25 39 -37.5 84.5t-12.5 93.5q0 60 21 116t59 99q37 43 88.5 68.5t111.5 25.5q64 0 116 -27t89 -70q36 -44 55.5 -99.5t19.5 -112.5q0 -47 -13.5 -93t-38.5 -86q-26 -40 -62.5 -71t-81.5 -47l1 -72h120
v-47h-139q-14 0 -22.5 3.5t-12.5 8.5q-4 6 -5 13t-1 15v92z" />
    <glyph glyph-name="uni212B" unicode="&#x212b;" horiz-adv-x="700" 
d="M496 119h-290q-8 -16 -17.5 -35.5t-18.5 -39.5t-18 -39t-17 -35h-64l257 540h49l252 -540h-65zM230 165h249l-14 28t-22 46q-13 26 -27 55.5t-26 57.5q-13 27 -24 49.5t-16 34.5zM260 665q0 37 26.5 63.5t63.5 26.5t63.5 -26.5t26.5 -63.5t-26.5 -63.5t-63.5 -26.5
t-63.5 26.5t-26.5 63.5zM300 665q0 -22 14 -36t36 -14t36 14t14 36t-14 36t-36 14t-36 -14t-14 -36z" />
    <glyph glyph-name="onethird" unicode="&#x2153;" horiz-adv-x="900" 
d="M436 381v257h-93v37q16 1 34.5 5t35.5 14q11 8 20 21t11 28h48v-362h-56zM361 -32q2 -29 28 -46t59 -17q39 0 62.5 19t25.5 46q2 20 -13 36.5t-42 27.5q-10 4 -25 4.5t-23 0.5v43q14 1 29.5 3.5t22.5 5.5q20 10 31.5 23t11.5 30q0 32 -25 47.5t-55 15.5q-32 0 -51 -16.5
t-22 -41.5h-56q1 22 13.5 39.5t31.5 29.5q18 12 40 18.5t44 6.5q21 0 44.5 -5.5t43.5 -16.5q20 -12 33 -30.5t13 -43.5q0 -13 -7 -26t-19 -24q-12 -12 -27.5 -21.5t-32.5 -15.5q44 -11 71.5 -36t27.5 -53q0 -27 -13.5 -47.5t-34.5 -34.5q-21 -13 -47 -20t-51 -7t-49 6.5
t-43 19.5q-20 14 -32.5 34t-15.5 46h52zM118 326h666v-30h-666v30z" />
    <glyph glyph-name="twothirds" unicode="&#x2154;" horiz-adv-x="900" 
d="M361 -32q2 -29 28 -46t59 -17q39 0 62.5 19t25.5 46q2 20 -13 36.5t-42 27.5q-10 4 -25 4.5t-23 0.5v43q14 1 29.5 3.5t22.5 5.5q20 10 31.5 23t11.5 30q0 32 -25 47.5t-55 15.5q-32 0 -51 -16.5t-22 -41.5h-56q1 22 13.5 39.5t31.5 29.5q18 12 40 18.5t44 6.5
q21 0 44.5 -5.5t43.5 -16.5q20 -12 33 -30.5t13 -43.5q0 -13 -7 -26t-19 -24q-12 -12 -27.5 -21.5t-32.5 -15.5q44 -11 71.5 -36t27.5 -53q0 -27 -13.5 -47.5t-34.5 -34.5q-21 -13 -47 -20t-51 -7t-49 6.5t-43 19.5q-20 14 -32.5 34t-15.5 46h52zM431 486
q-18 -12 -32.5 -31.5t-22.5 -39.5h214v-40h-278q2 34 19.5 71.5t68.5 75.5q11 8 21 14.5t20 11.5q15 8 29 16.5t26 19.5t20.5 25.5t12.5 34.5q1 12 -3 24.5t-14 23.5q-10 10 -24.5 17t-34.5 7q-35 0 -55 -21.5t-23 -49.5h-56q1 25 13 45t31 34q18 14 41.5 21.5t48.5 7.5
q23 0 47.5 -6.5t44.5 -19.5q19 -13 31.5 -33.5t12.5 -47.5q0 -19 -6 -34t-16 -27q-11 -13 -24.5 -23.5t-28.5 -20.5h1zM118 320h666v-30h-666v30z" />
    <glyph glyph-name="oneeighth" unicode="&#x215b;" horiz-adv-x="900" 
d="M526 65q35 -15 56 -43t21 -54q0 -27 -15 -46.5t-37 -33.5q-23 -13 -50 -19.5t-51 -6.5q-22 0 -48 6.5t-48 19.5q-23 13 -38 33t-15 47t23.5 53t56.5 42q-27 16 -46 39t-19 46q0 24 13 41.5t33 29.5q19 12 42.5 18t45.5 6q21 0 45.5 -5t46.5 -16q21 -12 35.5 -30t14.5 -44
q0 -22 -17.5 -43.5t-48.5 -39.5zM450 38q-46 0 -70.5 -19t-24.5 -50q0 -25 24.5 -44t70.5 -19t72.5 19t26.5 44q0 31 -26.5 50t-72.5 19zM450 199q-38 0 -57.5 -16t-19.5 -40q0 -27 19.5 -42t57.5 -15q41 0 61 15t20 42q0 24 -20 40t-61 16zM436 381v257h-93v37q16 1 34.5 5
t35.5 14q11 8 20 21t11 28h48v-362h-56zM118 326h666v-30h-666v30z" />
    <glyph glyph-name="threeeighths" unicode="&#x215c;" horiz-adv-x="900" 
d="M361 478q2 -29 28 -46t59 -17q39 0 62.5 19t25.5 46q2 20 -13 36.5t-42 27.5q-10 4 -25 4.5t-23 0.5v43q14 1 29.5 3.5t22.5 5.5q20 10 31.5 23t11.5 30q0 32 -25 47.5t-55 15.5q-32 0 -51 -16.5t-22 -41.5h-56q1 22 13.5 39.5t31.5 29.5q18 12 40 18.5t44 6.5
q21 0 44.5 -5.5t43.5 -16.5q20 -12 33 -30.5t13 -43.5q0 -13 -7 -26t-19 -24q-12 -12 -27.5 -21.5t-32.5 -15.5q44 -11 71.5 -36t27.5 -53q0 -27 -13.5 -47.5t-34.5 -33.5q-21 -14 -47 -21t-51 -7t-49 6.5t-43 20.5q-20 13 -32.5 33t-15.5 46h52zM526 65q35 -15 56 -43
t21 -54q0 -27 -15 -46.5t-37 -33.5q-23 -13 -50 -19.5t-51 -6.5q-22 0 -48 6.5t-48 19.5q-23 13 -38 33t-15 47t23.5 53t56.5 42q-27 16 -46 39t-19 46q0 24 13 41.5t33 29.5q19 12 42.5 18t45.5 6q21 0 45.5 -5t46.5 -16q21 -12 35.5 -30t14.5 -44q0 -22 -17.5 -43.5
t-48.5 -39.5zM450 38q-46 0 -70.5 -19t-24.5 -50q0 -25 24.5 -44t70.5 -19t72.5 19t26.5 44q0 31 -26.5 50t-72.5 19zM450 199q-38 0 -57.5 -16t-19.5 -40q0 -27 19.5 -42t57.5 -15q41 0 61 15t20 42q0 24 -20 40t-61 16zM118 322h666v-30h-666v30z" />
    <glyph glyph-name="fiveeighths" unicode="&#x215d;" horiz-adv-x="900" 
d="M311 560q8 48 16.5 91.5t16.5 91.5h217v-43h-173l-18 -106q20 9 43 15.5t46 6.5t45.5 -8.5t40.5 -23.5q17 -16 28 -37.5t11 -47.5q0 -27 -12.5 -50.5t-32.5 -39.5q-21 -17 -47 -26.5t-53 -9.5q-45 0 -84 25t-52 72h50q7 -25 29 -38.5t55 -13.5q39 0 63.5 21t27.5 58
q0 39 -23 62t-65 23q-15 0 -33 -6t-29 -16h-67zM526 65q35 -15 56 -43t21 -54q0 -27 -15 -46.5t-37 -33.5q-23 -13 -50 -19.5t-51 -6.5q-22 0 -48 6.5t-48 19.5q-23 13 -38 33t-15 47t23.5 53t56.5 42q-27 16 -46 39t-19 46q0 24 13 41.5t33 29.5q19 12 42.5 18t45.5 6
q21 0 45.5 -5t46.5 -16q21 -12 35.5 -30t14.5 -44q0 -22 -17.5 -43.5t-48.5 -39.5zM450 38q-46 0 -70.5 -19t-24.5 -50q0 -25 24.5 -44t70.5 -19t72.5 19t26.5 44q0 31 -26.5 50t-72.5 19zM450 199q-38 0 -57.5 -16t-19.5 -40q0 -27 19.5 -42t57.5 -15q41 0 61 15t20 42
q0 24 -20 40t-61 16zM118 326h666v-30h-666v30z" />
    <glyph glyph-name="seveneighths" unicode="&#x215e;" horiz-adv-x="900" 
d="M318 738h279v-49q-18 -19 -42 -49.5t-50 -73.5q-33 -54 -47 -98t-16 -79h-62q4 25 18 66.5t42 86.5q24 38 50.5 75.5t63.5 76.5h-236v44zM526 65q35 -15 56 -43t21 -54q0 -27 -15 -46.5t-37 -33.5q-23 -13 -50 -19.5t-51 -6.5q-22 0 -48 6.5t-48 19.5q-23 13 -38 33
t-15 47t23.5 53t56.5 42q-27 16 -46 39t-19 46q0 24 13 41.5t33 29.5q19 12 42.5 18t45.5 6q21 0 45.5 -5t46.5 -16q21 -12 35.5 -30t14.5 -44q0 -22 -17.5 -43.5t-48.5 -39.5zM450 38q-46 0 -70.5 -19t-24.5 -50q0 -25 24.5 -44t70.5 -19t72.5 19t26.5 44q0 31 -26.5 50
t-72.5 19zM450 199q-38 0 -57.5 -16t-19.5 -40q0 -27 19.5 -42t57.5 -15q41 0 61 15t20 42q0 24 -20 40t-61 16zM118 326h666v-30h-666v30z" />
    <glyph glyph-name="uni2160" unicode="&#x2160;" horiz-adv-x="940" 
d="M505 7q0 -8 12.5 -12.5t27.5 -4.5v-30h-150v30q15 0 27.5 4.5t12.5 12.5v626q0 8 -12.5 12.5t-27.5 4.5v30h150v-30q-15 0 -27.5 -4.5t-12.5 -12.5v-626z" />
    <glyph glyph-name="uni2161" unicode="&#x2161;" horiz-adv-x="940" 
d="M415 7q0 -8 12.5 -12.5t27.5 -4.5v-30h-150v30q15 0 27.5 4.5t12.5 12.5v626q0 8 -12.5 12.5t-27.5 4.5v30h150v-30q-15 0 -27.5 -4.5t-12.5 -12.5v-626zM595 7q0 -8 12.5 -12.5t27.5 -4.5v-30h-150v30q15 0 27.5 4.5t12.5 12.5v626q0 8 -12.5 12.5t-27.5 4.5v30h150v-30
q-15 0 -27.5 -4.5t-12.5 -12.5v-626z" />
    <glyph glyph-name="uni2162" unicode="&#x2162;" horiz-adv-x="940" 
d="M505 7q0 -8 10.5 -12.5t25.5 -4.5v-30h-142v30q15 0 25.5 4.5t10.5 12.5v626q0 8 -10.5 12.5t-25.5 4.5v30h142v-30q-15 0 -25.5 -4.5t-10.5 -12.5v-626zM345 7q0 -8 10.5 -12.5t25.5 -4.5v-30h-146v30q15 0 27.5 4.5t12.5 12.5v626q0 8 -12.5 12.5t-27.5 4.5v30h146v-30
q-15 0 -25.5 -4.5t-10.5 -12.5v-626zM665 7q0 -8 12.5 -12.5t27.5 -4.5v-30h-146v30q15 0 25.5 4.5t10.5 12.5v626q0 8 -10.5 12.5t-25.5 4.5v30h146v-30q-15 0 -27.5 -4.5t-12.5 -12.5v-626z" />
    <glyph glyph-name="uni2163" unicode="&#x2163;" horiz-adv-x="940" 
d="M250 7q0 -8 12.5 -12.5t27.5 -4.5v-30h-150v30q15 0 27.5 4.5t12.5 12.5v626q0 8 -12.5 12.5t-27.5 4.5v30h273v-31q-9 0 -16.5 -2.5t-7.5 -8.5l146 -548q18 57 36.5 129t36.5 146t36.5 145.5t36.5 128.5q-2 5 -9 7.5t-15 2.5v31h138v-30q-8 0 -21 -2.5t-19 -12.5
q-25 -75 -48.5 -161.5t-47.5 -175.5q-24 -90 -47.5 -176.5t-48.5 -161.5h-56l-191 674q-5 8 -15 11.5t-19 4.5q-13 -2 -22.5 -6t-9.5 -11v-626z" />
    <glyph glyph-name="uni2164" unicode="&#x2164;" horiz-adv-x="940" 
d="M470 70l185 570q-1 5 -8.5 7t-16.5 2v31h140v-30q-8 0 -21 -2.5t-20 -13.5l-229 -674h-60l-229 675q-7 10 -20 12.5t-21 2.5v30h140v-31q-10 0 -17.5 -1.5t-6.5 -9.5z" />
    <glyph glyph-name="uni2165" unicode="&#x2165;" horiz-adv-x="940" 
d="M685 633q0 7 -10 11t-23 6q-9 -1 -18.5 -4.5t-14.5 -11.5l-191 -674h-56q-25 75 -48.5 161.5t-47.5 176.5q-24 89 -47.5 175.5t-48.5 161.5q-6 10 -19 12.5t-21 2.5v30h138v-31q-8 0 -15 -2.5t-9 -7.5q18 -57 36.5 -128.5t36.5 -145.5t36.5 -146t36.5 -129l146 548
q0 6 -7.5 8.5t-16.5 2.5v31h273v-30q-15 0 -27.5 -4.5t-12.5 -12.5v-626q0 -8 12.5 -12.5t27.5 -4.5v-30h-150v30q15 0 27.5 4.5t12.5 12.5v626z" />
    <glyph glyph-name="uni2166" unicode="&#x2166;" horiz-adv-x="940" 
d="M447 639q-2 5 -8.5 7.5t-14.5 2.5v31h374v-30q-14 0 -26 -4.5t-12 -12.5v-626q0 -8 12 -12.5t26 -4.5v-30h-275v30q14 0 26 4.5t12 12.5v626q0 5 -7 9.5t-17 6.5q-6 -2 -11.5 -5t-8.5 -8l-163 -676h-53l-162 675q-6 10 -18.5 12.5t-20.5 2.5v30h131v-31q-8 0 -14.5 -2.5
t-7.5 -7.5l119 -539zM693 633q0 8 -9.5 12.5t-23.5 4.5t-23.5 -4.5t-9.5 -12.5v-626q0 -8 9.5 -12.5t23.5 -4.5t23.5 4.5t9.5 12.5v626z" />
    <glyph glyph-name="uni2167" unicode="&#x2167;" horiz-adv-x="940" 
d="M354 639q-1 7 -7 8.5t-15 1.5v31h233v-30q-27 0 -27 -17v-626q0 -17 27 -17v-30h-126v30q14 0 25 4.5t11 12.5v626q0 6 -8.5 10.5t-19.5 5.5q-8 -1 -15.5 -3.5t-11.5 -9.5l-126 -676h-52l-125 675q-6 10 -17.5 12.5t-19.5 2.5v30h124v-31q-8 0 -14 -2.5t-7 -7.5
q10 -56 20.5 -123t21.5 -137q10 -70 21 -137t22 -122zM778 7q0 -8 11 -12.5t25 -4.5v-30h-126v30q27 0 27 17v626q0 17 -27 17v30h126v-30q-14 0 -25 -4.5t-11 -12.5v-626zM595 633q0 17 -27 17v30h117v-30q-27 0 -27 -17v-626q0 -17 27 -17v-30h-117v30q27 0 27 17v626z
" />
    <glyph glyph-name="uni2168" unicode="&#x2168;" horiz-adv-x="940" 
d="M754 12q8 -11 25.5 -16.5t33.5 -5.5v-30h-152v30q12 0 17.5 4.5t6.5 10.5q-43 78 -77 147t-62 122l-136 -269q1 -6 5.5 -10.5t17.5 -4.5v-30h-283v30q14 0 27 4.5t13 12.5v626q0 8 -13 12.5t-27 4.5v30h147v-30q-14 0 -27 -4.5t-13 -12.5v-626q0 -7 10 -11t23 -6
q13 2 27 6.5t22 14.5l170 333q-30 58 -51.5 102t-37.5 78t-28.5 59t-23.5 45q-8 8 -26.5 15t-32.5 7v30h154v-30q-11 0 -17.5 -4.5t-7.5 -9.5l109 -220l110 219q-1 7 -6 11t-18 4v30h152v-30q-14 0 -32 -6.5t-26 -14.5l-143 -282z" />
    <glyph glyph-name="uni2169" unicode="&#x2169;" horiz-adv-x="940" 
d="M605 636q-2 14 -25 14v30h160v-30q-17 0 -36 -6.5t-25 -15.5l-170 -285l199 -331q8 -8 26.5 -15t35.5 -7v-30h-160v30q23 0 25 13q-52 81 -92.5 151t-73.5 124l-164 -275q2 -13 25 -13v-30h-160v30q17 0 36 6.5t25 15.5l198 330q-35 58 -60.5 102t-44.5 78t-34 59.5
t-28 46.5q-8 8 -27 15t-35 7v30h160v-30q-23 0 -25 -13l135 -230z" />
    <glyph glyph-name="uni2170" unicode="&#x2170;" horiz-adv-x="940" 
d="M410 627q0 23 16 39t39 16t39 -16t16 -39t-16 -39t-39 -16t-39 16t-16 39zM505 470v-463q0 -8 12.5 -12.5t27.5 -4.5v-30h-150v30q15 0 27.5 4.5t12.5 12.5v416q0 8 -12.5 12.5t-27.5 4.5v30h110z" />
    <glyph glyph-name="uni2171" unicode="&#x2171;" horiz-adv-x="940" 
d="M325 627q0 23 16 39t39 16t39 -16t16 -39t-16 -39t-39 -16t-39 16t-16 39zM420 470v-463q0 -8 12.5 -12.5t27.5 -4.5v-30h-150v30q15 0 27.5 4.5t12.5 12.5v416q0 8 -12.5 12.5t-27.5 4.5v30h110zM505 627q0 23 16 39t39 16t39 -16t16 -39t-16 -39t-39 -16t-39 16t-16 39
zM600 470v-463q0 -8 12.5 -12.5t27.5 -4.5v-30h-150v30q15 0 27.5 4.5t12.5 12.5v416q0 8 -12.5 12.5t-27.5 4.5v30h110z" />
    <glyph glyph-name="uni2172" unicode="&#x2172;" horiz-adv-x="940" 
d="M415 627q0 23 16 39t39 16t39 -16t16 -39t-16 -39t-39 -16t-39 16t-16 39zM510 470v-463q0 -8 12.5 -12.5t27.5 -4.5v-30h-150v30q15 0 27.5 4.5t12.5 12.5v416q0 8 -12.5 12.5t-27.5 4.5v30h110zM585 627q0 23 16 39t39 16t39 -16t16 -39t-16 -39t-39 -16t-39 16t-16 39
zM680 470v-463q0 -8 12.5 -12.5t27.5 -4.5v-30h-150v30q15 0 27.5 4.5t12.5 12.5v416q0 8 -12.5 12.5t-27.5 4.5v30h110zM245 627q0 23 16 39t39 16t39 -16t16 -39t-16 -39t-39 -16t-39 16t-16 39zM340 470v-463q0 -8 12.5 -12.5t27.5 -4.5v-30h-150v30q15 0 27.5 4.5
t12.5 12.5v416q0 8 -12.5 12.5t-27.5 4.5v30h110z" />
    <glyph glyph-name="uni2173" unicode="&#x2173;" horiz-adv-x="940" 
d="M540 80l98 349q-2 5 -9.5 7.5t-16.5 2.5v31h138v-30q-8 0 -21 -2.5t-19 -12.5q-19 -55 -37 -114t-35 -119q-18 -60 -36 -119t-37 -113h-50l-144 464q-7 11 -20 13.5t-21 2.5v30h138v-31q-9 0 -17 -2.5t-9 -8.5zM195 627q0 23 16 39t39 16t39 -16t16 -39t-16 -39t-39 -16
t-39 16t-16 39zM290 470v-463q0 -8 12.5 -12.5t27.5 -4.5v-30h-150v30q15 0 27.5 4.5t12.5 12.5v416q0 8 -12.5 12.5t-27.5 4.5v30h110z" />
    <glyph glyph-name="uni2174" unicode="&#x2174;" horiz-adv-x="940" 
d="M470 65l124 363q-1 6 -8.5 8.5t-15.5 2.5v31h140v-30q-9 0 -22 -2t-19 -13l-169 -465h-60l-169 464q-7 11 -20 13.5t-21 2.5v30h140v-31q-9 0 -16 -3t-8 -8z" />
    <glyph glyph-name="uni2175" unicode="&#x2175;" horiz-adv-x="940" 
d="M390 80l98 349q-2 5 -9.5 7.5t-16.5 2.5v31h138v-30q-8 0 -21 -2.5t-19 -12.5q-19 -55 -37 -114t-35 -119q-18 -60 -36 -119t-37 -113h-50l-144 464q-7 11 -20 13.5t-21 2.5v30h138v-31q-9 0 -17 -2.5t-9 -8.5zM645 627q0 23 16 39t39 16t39 -16t16 -39t-16 -39t-39 -16
t-39 16t-16 39zM740 470v-463q0 -8 12.5 -12.5t27.5 -4.5v-30h-150v30q15 0 27.5 4.5t12.5 12.5v416q0 8 -12.5 12.5t-27.5 4.5v30h110z" />
    <glyph glyph-name="uni2176" unicode="&#x2176;" horiz-adv-x="940" 
d="M615 470v-463q0 -7 10.5 -11.5t24.5 -5.5q15 0 27.5 4.5t12.5 12.5v416q0 8 -12.5 12.5t-27.5 4.5v30h110v-463q0 -8 12.5 -12.5t27.5 -4.5v-30h-295v30q15 0 27.5 4.5t12.5 12.5v416q0 8 -12.5 12.5t-27.5 4.5v30h110zM300 80l88 349q-2 5 -9.5 7.5t-16.5 2.5v31h138
v-30q-8 0 -21 -2.5t-19 -12.5q-19 -55 -35.5 -114t-31.5 -119q-16 -60 -32.5 -119t-35.5 -113h-50l-134 464q-7 11 -20 13.5t-21 2.5v30h138v-31q-9 0 -17 -2.5t-9 -8.5zM665 627q0 23 16 39t39 16t39 -16t16 -39t-16 -39t-39 -16t-39 16t-16 39zM520 627q0 23 16 39t39 16
t39 -16t16 -39t-16 -39t-39 -16t-39 16t-16 39z" />
    <glyph glyph-name="uni2177" unicode="&#x2177;" horiz-adv-x="940" 
d="M260 90l70 339q-2 5 -9.5 7.5t-16.5 2.5v31h229v-463q0 -7 9.5 -11t23.5 -6q13 2 23 6t10 11v416q0 8 -12.5 12.5t-27.5 4.5v30h105v-463q0 -7 9.5 -11t23.5 -6q13 2 23 6t10 11v416q0 8 -12.5 12.5t-27.5 4.5v30h105v-463q0 -8 12.5 -12.5t27.5 -4.5v-30h-407v30
q15 0 27.5 4.5t12.5 12.5v416q0 7 -12 11.5t-27 5.5q-9 -1 -18 -4t-11 -11l-115 -465h-50l-115 464q-3 12 -17.5 14t-22.5 2v30h136v-31q-9 0 -17 -2.5t-9 -8.5zM705 607q0 23 14 39t36 16t36 -16t14 -39t-14 -39t-36 -16t-36 16t-14 39zM574 607q0 23 14 39t36 16t36 -16
t14 -39t-14 -39t-36 -16t-36 16t-14 39zM443 607q0 23 14 39t36 16t36 -16t14 -39t-14 -39t-36 -16t-36 16t-14 39z" />
    <glyph glyph-name="uni2178" unicode="&#x2178;" horiz-adv-x="940" 
d="M461 5q1 -6 5.5 -10.5t17.5 -4.5v-30h-294v30q15 0 27.5 4.5t12.5 12.5v416q0 8 -12.5 12.5t-27.5 4.5v30h110v-463q0 -6 9.5 -10.5t22.5 -6.5q14 0 32 6.5t26 14.5l128 220l-109 187q-7 9 -25 15.5t-33 6.5v30h152v-30q-13 0 -17.5 -4.5t-5.5 -10.5l75 -131l77 131
q-1 7 -6 11t-18 4v30h152v-30q-15 0 -32.5 -6.5t-25.5 -14.5l-110 -188l128 -219q8 -8 25.5 -15t33.5 -7v-30h-152v30q12 0 17.5 4.5t6.5 10.5l-96 162zM205 627q0 23 16 39t39 16t39 -16t16 -39t-16 -39t-39 -16t-39 16t-16 39z" />
    <glyph glyph-name="uni2179" unicode="&#x2179;" horiz-adv-x="940" 
d="M355 5q1 -6 6 -10.5t19 -4.5v-30h-160v30q16 0 35.5 7t27.5 15h-1l149 217l-129 189q-8 8 -26.5 15t-35.5 7v30h160v-30q-14 0 -19 -4.5t-6 -10.5l95 -139l95 139q-1 6 -6 10.5t-19 4.5v30h160v-30q-17 0 -36 -7t-27 -15l-129 -188l150 -218q8 -8 26.5 -15t35.5 -7v-30
h-160v30q14 0 19 4.5t6 10.5l-116 168z" />
    <glyph glyph-name="arrowleft" unicode="&#x2190;" horiz-adv-x="1000" 
d="M940 286h-720l90 -80l-5 -6l-235 110l235 110l5 -6l-90 -80h720v-48z" />
    <glyph glyph-name="arrowup" unicode="&#x2191;" horiz-adv-x="1000" 
d="M476 -130v720l-80 -90l-6 5l110 235l110 -235l-6 -5l-80 90v-720h-48z" />
    <glyph glyph-name="arrowright" unicode="&#x2192;" horiz-adv-x="1000" 
d="M60 334h720l-90 80l5 6l235 -110q-63 -27 -117.5 -55t-117.5 -55l-5 6l90 80h-720v48z" />
    <glyph glyph-name="arrowdown" unicode="&#x2193;" horiz-adv-x="1000" 
d="M524 740v-720l80 90l6 -5l-110 -235l-110 235l6 5l80 -90v720h48z" />
    <glyph glyph-name="arrowboth" unicode="&#x2194;" horiz-adv-x="1000" 
d="M300 206l-5 -6l-235 110l235 110l5 -6l-90 -80h580l-90 80l5 6l235 -110q-63 -27 -117.5 -55t-117.5 -55l-5 6l90 80h-580z" />
    <glyph glyph-name="arrowupdn" unicode="&#x2195;" horiz-adv-x="1000" 
d="M476 600l-80 -90l-6 5l110 235l110 -235l-6 -5l-80 90v-590l80 90l6 -5l-110 -235l-110 235l6 5l80 -90v590z" />
    <glyph glyph-name="uni2196" unicode="&#x2196;" horiz-adv-x="1000" 
d="M861 -79l-677 676l7 -120l-7 -1l-89 244l244 -88l-1 -8l-120 7l677 -676z" />
    <glyph glyph-name="uni2197" unicode="&#x2197;" horiz-adv-x="1000" 
d="M105 -45l677 676l-120 -7l-1 8l244 88l-89 -244l-7 1l7 120l-677 -676z" />
    <glyph glyph-name="uni2198" unicode="&#x2198;" horiz-adv-x="1000" 
d="M139 709l677 -676l-7 120l7 1l89 -244l-244 88l1 8l120 -7l-677 676z" />
    <glyph glyph-name="uni2199" unicode="&#x2199;" horiz-adv-x="1000" 
d="M895 675l-677 -676l120 7l1 -8l-244 -88l89 244l7 -1l-7 -120l677 676z" />
    <glyph glyph-name="arrowdblright" unicode="&#x21d2;" horiz-adv-x="1000" 
d="M580 494l28 32l317 -216l-317 -216q-8 11 -14 16.5t-14 15.5l139 95h-644v41h704l71 48l-77 52h-698v41h638z" />
    <glyph glyph-name="arrowdblboth" unicode="&#x21d4;" horiz-adv-x="1000" 
d="M610 494l28 32l317 -216l-317 -216q-8 11 -14 16.5t-14 15.5l139 95h-503l139 -95q-8 -10 -14 -15.5t-14 -16.5l-317 216l317 216l28 -32l-133 -91h491zM809 262l71 48l-77 52h-611l-77 -52l71 -48h623z" />
    <glyph glyph-name="universal" unicode="&#x2200;" horiz-adv-x="750" 
d="M110 675q3 -8 7 -19t13 -32q8 -22 22 -58t37 -96h363l83 205h78q-75 -176 -148.5 -355t-148.5 -355h-93q-74 177 -143.5 355t-143.5 355h74zM528 410h-315l156 -395z" />
    <glyph glyph-name="partialdiff" unicode="&#x2202;" horiz-adv-x="500" 
d="M353 305q-32 -2 -66.5 -11t-62.5 -24q-29 -15 -48 -37t-19 -51q0 -23 8 -36.5t33 -13.5q27 0 52.5 19.5t46.5 46.5t35.5 56.5t20.5 50.5zM274 451q-27 0 -51.5 -10.5t-42.5 -29.5q-32 -35 -50 -22q-17 14 30 65q22 24 54 36t73 12q32 0 57 -13t43 -35q17 -22 26.5 -49.5
t9.5 -55.5q0 -35 -13 -73t-35 -73t-51.5 -63.5t-62.5 -43.5q-34 -15 -69 -13t-69 28q-14 10 -21.5 24t-9.5 30q-3 16 -1 32t8 30q9 21 24.5 38t35.5 30q19 13 41 22t42 15q29 8 60.5 9t53.5 1q2 22 -3 41.5t-15 34.5q-11 15 -27 24t-37 9z" />
    <glyph glyph-name="existential" unicode="&#x2203;" horiz-adv-x="600" 
d="M530 -35h-470v60h400v275h-370v60h370v255h-395v60h465v-710z" />
    <glyph glyph-name="gradient" unicode="&#x2207;" horiz-adv-x="900" 
d="M450 -21q-45 79 -89 154.5t-88 150.5t-88 151t-89 155h710zM173 546l127 -219q35 -61 74.5 -129t75.5 -129q32 57 67.5 120t66.5 119l133 238h-544z" />
    <glyph glyph-name="element" unicode="&#x2208;" horiz-adv-x="900" 
d="M372 87h418v-48h-407q-58 0 -109.5 18.5t-89.5 52.5q-39 34 -61.5 82t-22.5 108q0 62 23 111.5t62 83.5t90 52t108 18h407v-48h-419q-36 0 -73.5 -13t-68.5 -37q-31 -25 -53 -60t-27 -79h636v-48h-636q4 -48 25.5 -84.5t52.5 -60.5t69 -36t76 -12z" />
    <glyph glyph-name="suchthat" unicode="&#x220b;" horiz-adv-x="900" 
d="M528 87q38 0 76 12t69 36t52 60.5t26 84.5h-636v48h636q-5 44 -27 79t-53 60q-31 24 -68.5 37t-73.5 13h-419v48h407q57 0 108 -18t90 -52t62 -83.5t23 -111.5q0 -60 -22.5 -108t-60.5 -82q-39 -34 -90.5 -52.5t-109.5 -18.5h-407v48h418z" />
    <glyph glyph-name="product" unicode="&#x220f;" horiz-adv-x="900" 
d="M790 610v-50h-172v-590h-56v590h-224v-590h-56v590h-172v50h680z" />
    <glyph glyph-name="summation" unicode="&#x2211;" horiz-adv-x="900" 
d="M698 670v-220h-52v172h-432q30 -35 63.5 -73t67.5 -77l68 -78t64 -74l-262 -303h441v173h52v-220h-543q-13 0 -18.5 7.5t-7.5 15.5q-2 7 7.5 20.5t20.5 24.5l241 283l-251 284v65h541z" />
    <glyph glyph-name="radical" unicode="&#x221a;" horiz-adv-x="900" 
d="M58 203l86 66l81 -153q20 125 44 248.5t45 245.5h496v-47h-458l-102 -548q-1 -9 -6.5 -10.5t-10.5 2.5l-105 195l-47 -35z" />
    <glyph glyph-name="proportional" unicode="&#x221d;" horiz-adv-x="900" 
d="M780 435q-22 11 -44 19t-47 8q-43 0 -74.5 -20.5t-52.5 -56.5q-11 -18 -18.5 -31.5l-12.5 -22.5q-6 -11 -11 -18q4 -20 18.5 -44.5t23.5 -40.5q20 -35 53 -52t75 -17q25 0 46.5 6t43.5 17l23 -37q-27 -17 -53.5 -25t-59.5 -8q-107 0 -155 68q-11 17 -21.5 35t-21.5 35
q-5 -9 -13.5 -23t-13.5 -22q-27 -44 -73.5 -68.5t-96.5 -24.5q-42 0 -77.5 16t-61.5 43q-27 27 -41.5 63t-14.5 76q0 41 16 77t43 63q26 27 61.5 42.5t74.5 15.5q111 0 155 -74l42 -69q11 18 21.5 35t21.5 33q26 37 64 56t91 19q67 0 114 -39zM147 310q0 -32 12.5 -59.5
t33.5 -47.5q20 -21 47.5 -32.5t57.5 -11.5q41 0 77 21t56 52q12 19 21.5 38t18.5 39l-41 78q-20 35 -53 54.5t-79 19.5q-32 0 -59.5 -12.5t-47.5 -33.5q-21 -21 -32.5 -48t-11.5 -57z" />
    <glyph glyph-name="infinity" unicode="&#x221e;" horiz-adv-x="900" 
d="M485 418q23 32 54.5 48.5t77.5 16.5q36 0 68 -14t56 -38q23 -24 37 -55.5t14 -65.5q0 -36 -14.5 -66.5t-38.5 -53.5q-25 -23 -56.5 -36t-65.5 -13q-43 0 -77.5 15t-56.5 47q-1 1 -6 10t-11 20q-6 10 -11 18.5l-5 8.5q-7 -11 -20 -30.5t-20 -30.5q-19 -30 -53 -44t-80 -14
q-36 0 -67 13.5t-54 37.5q-23 23 -36.5 53.5t-13.5 64.5q0 36 14 67.5t38 55.5q23 23 54 36.5t65 13.5q47 0 79.5 -16.5t53.5 -48.5q6 -9 9.5 -15t7.5 -12q3 -6 8 -13.5t14 -19.5q19 32 25.5 43.5t10.5 16.5zM741 310q0 27 -10.5 50t-27.5 40q-18 17 -41 26.5t-48 9.5
q-72 0 -102 -62l-32 -64q14 -34 32 -64q34 -58 102 -58q27 0 50 9.5t40 26.5q17 16 27 38t10 48zM157 310q0 -26 9.5 -48t26.5 -38q16 -17 38 -26.5t46 -9.5q75 0 105 59q15 28 24 45q5 10 9 17q-4 8 -9.5 18t-8.5 17l-15 30q-32 62 -105 62q-26 0 -48 -10.5t-38 -28.5
t-25 -40.5t-9 -46.5z" />
    <glyph glyph-name="angle" unicode="&#x2220;" horiz-adv-x="900" 
d="M180 54h590v-44h-659q-8 0 -14.5 3.5t-6.5 11.5q0 6 7 15.5t12 14.5q137 140 277 280.5t275 277.5l39 -34z" />
    <glyph glyph-name="uni2225" unicode="&#x2225;" horiz-adv-x="900" 
d="M340 740h48v-870h-48v870zM512 740h48v-870h-48v870z" />
    <glyph glyph-name="logicaland" unicode="&#x2227;" horiz-adv-x="900" 
d="M178 -11l-46 25q20 41 47 96t56 115t58.5 120.5t55.5 113.5q25 53 44.5 93.5t28.5 60.5q5 9 11 17t17 8q7 0 13 -6.5t11 -14.5l294 -603q-14 -8 -23.5 -13.5t-22.5 -12.5q-11 21 -31.5 64t-46.5 98q-26 54 -55 114.5t-55 117.5q-27 56 -49 102.5t-35 72.5z" />
    <glyph glyph-name="logicalor" unicode="&#x2228;" horiz-adv-x="900" 
d="M450 61q14 28 36 74t48 101t54 114t54 113q25 54 46 98t34 70l46 -27l-294 -603q-5 -8 -10.5 -14.5t-13.5 -6.5q-11 0 -17 8t-11 17q-9 20 -28.5 60.5t-44.5 93.5q-25 52 -54.5 112.5t-58.5 120.5t-56 115.5t-48 97.5l46 25z" />
    <glyph glyph-name="intersection" unicode="&#x2229;" horiz-adv-x="900" 
d="M450 602q-53 1 -93 -17t-66 -49q-27 -32 -40 -74t-13 -88v-404h-51v395q0 60 18 112t52 91q34 38 83 60t110 22q62 0 111 -23.5t83 -62.5t51.5 -90.5t17.5 -108.5v-395h-51v405q0 53 -17.5 95t-46.5 71q-30 29 -68 44.5t-80 16.5z" />
    <glyph glyph-name="union" unicode="&#x222a;" horiz-adv-x="900" 
d="M450 8q42 1 80 16.5t68 44.5q29 29 46.5 71t17.5 95v405h51v-395q0 -57 -17.5 -108.5t-51.5 -90.5t-83 -62.5t-111 -23.5q-61 0 -110 22t-83 61q-34 38 -52 90t-18 112v395h51v-404q0 -46 13 -88t40 -73q26 -32 66 -50t93 -17z" />
    <glyph glyph-name="integral" unicode="&#x222b;" horiz-adv-x="900" 
d="M416 430q11 109 43.5 181t87.5 89h-1q15 3 28.5 -1.5t21.5 -16.5h-1q13 -23 2 -42h1q-21 -33 -41 -18q-20 13 -32 8q-17 -9 -28 -28t-12 -49q-2 -64 -5.5 -121t-5.5 -114q-2 -33 -3.5 -65.5t-6.5 -59.5q-9 -52 -20.5 -96.5t-27.5 -78.5t-37 -57t-47 -31
q-16 -4 -29.5 -0.5t-21.5 14.5q-15 22 -2 44q10 18 18.5 21t16.5 0q8 -4 16 -10t18 -6q23 0 33 24t11 56q1 66 6 149q2 42 6.5 95t11.5 113z" />
    <glyph glyph-name="uni222C" unicode="&#x222c;" horiz-adv-x="900" 
d="M526 430q11 109 43.5 181t87.5 89h-1q15 3 28.5 -1.5t21.5 -16.5h-1q13 -23 2 -42h1q-21 -33 -41 -18q-20 13 -32 8q-17 -9 -28 -28t-12 -49q-1 -32 -2.5 -71.5t-3.5 -80.5q-4 -54 -5 -105.5t-10 -102.5q-15 -105 -47 -175.5t-85 -87.5q-16 -4 -29.5 -0.5t-21.5 14.5
q-15 22 -2 44q10 18 18.5 21t16.5 0q8 -4 16 -10t18 -6q23 0 33 24t11 56q1 66 6 149q2 42 6.5 95t11.5 113zM326 430q11 109 43.5 181t87.5 89h-1q15 3 28.5 -1.5t21.5 -16.5h-1q13 -23 2 -42h1q-21 -33 -41 -18q-20 13 -32 8q-17 -9 -28 -28t-12 -49q-1 -32 -2.5 -71.5
t-3.5 -80.5q-4 -54 -5 -105.5t-10 -102.5q-15 -105 -47 -175.5t-85 -87.5q-16 -4 -29.5 -0.5t-21.5 14.5q-15 22 -2 44q10 18 18.5 21t16.5 0q8 -4 16 -10t18 -6q23 0 33 24t11 56q1 66 6 149q2 42 6.5 95t11.5 113z" />
    <glyph glyph-name="uni222E" unicode="&#x222e;" horiz-adv-x="900" 
d="M296 37q12 3 25 24.5t24 49.5q11 27 19 53t8 37q-28 17 -45 48t-17 66q0 25 13 49.5t34 43.5q21 18 47 27.5t53 6.5q7 25 19.5 59.5t30.5 64.5q17 30 40.5 49.5t52.5 14.5q21 -3 35.5 -19.5t14.5 -33.5t-16 -26q-16 -10 -34 4t-22 38q-14 -15 -25.5 -37t-20.5 -45
q-10 -24 -17 -46t-10 -36q29 -17 49.5 -49t20.5 -65q0 -31 -13 -55t-34 -40q-21 -17 -48 -26t-55 -9q-9 -27 -21.5 -61t-29.5 -63q-18 -29 -41.5 -47.5t-54.5 -13.5q-21 3 -36 19.5t-15 33.5q0 18 21 27q18 6 32.5 -2.5t15.5 -25.5v-15zM357 311q0 -17 6.5 -34t25.5 -36
q14 41 24.5 77.5t24.5 83.5q-38 -8 -59.5 -32.5t-21.5 -58.5zM528 315q0 18 -9.5 36.5t-26.5 36.5q-12 -39 -23.5 -78t-25.5 -77q41 8 63 30t22 52z" />
    <glyph glyph-name="therefore" unicode="&#x2234;" horiz-adv-x="900" 
d="M399 549q0 21 15 36t36 15t36 -15t15 -36t-15 -36t-36 -15t-36 15t-15 36zM634 109q0 21 15 36t36 15t36 -15t15 -36t-15 -36t-36 -15t-36 15t-15 36zM164 109q0 21 15 36t36 15t36 -15t15 -36t-15 -36t-36 -15t-36 15t-15 36z" />
    <glyph glyph-name="uni2235" unicode="&#x2235;" horiz-adv-x="900" 
d="M399 101q0 21 15 36t36 15t36 -15t15 -36t-15 -36t-36 -15t-36 15t-15 36zM634 541q0 21 15 36t36 15t36 -15t15 -36t-15 -36t-36 -15t-36 15t-15 36zM164 541q0 21 15 36t36 15t36 -15t15 -36t-15 -36t-36 -15t-36 15t-15 36z" />
    <glyph glyph-name="similar" unicode="&#x223c;" horiz-adv-x="900" 
d="M75 220q7 45 27.5 85.5t50.5 71.5t68.5 48.5t83.5 14.5q48 -7 91 -35.5t69 -71.5q53 -86 135 -92q39 -3 67.5 10.5t48.5 37.5q19 24 31.5 56t20.5 65h57q-12 -47 -32 -89.5t-49 -73.5q-30 -31 -68.5 -47t-87.5 -10q-48 6 -91.5 34.5t-71.5 71.5q-26 39 -59.5 65.5
t-66.5 30.5q-37 1 -67 -12t-51 -36q-22 -24 -35.5 -56t-18.5 -68h-52z" />
    <glyph glyph-name="uni223D" unicode="&#x223d;" horiz-adv-x="900" 
d="M634 482q39 0 71 -15.5t56 -41.5q23 -27 35.5 -61t12.5 -71q0 -34 -13 -64.5t-35 -53.5t-51.5 -36.5t-62.5 -13.5q-10 0 -26.5 2.5t-33.5 7.5q-18 5 -35 13.5t-29 19.5l21 42q20 -9 34.5 -14.5t26.5 -8.5q11 -4 20.5 -5t19.5 -1q21 0 40 10.5t34 27.5q14 16 22.5 36
t9.5 40q1 26 -8 49.5t-25 41.5q-16 17 -38 27.5t-47 12.5q-67 4 -104 -50q-34 -48 -62 -96t-61 -93q-23 -30 -62.5 -45t-81.5 -16q-38 5 -70 21t-55 41q-23 24 -35.5 55.5t-11.5 67.5q1 37 15.5 68.5t38.5 55.5q23 23 54.5 36.5t66.5 13.5q34 0 61.5 -10.5t53.5 -27.5
q-8 -14 -14.5 -24.5t-13.5 -22.5q-34 18 -53 23.5t-36 5.5q-50 0 -84 -33t-35 -85q-1 -26 8 -49.5t26 -40.5q16 -18 38 -29t48 -12q33 -3 61.5 10.5t46.5 40.5q32 48 60 94.5t60 91.5q21 30 57.5 47.5t84.5 17.5z" />
    <glyph glyph-name="uni2252" unicode="&#x2252;" horiz-adv-x="900" 
d="M205 557q0 23 16 39t39 16t39 -16t16 -39t-16 -39t-39 -16t-39 16t-16 39zM585 58q0 23 16 39t39 16t39 -16t16 -39t-16 -39t-39 -16t-39 16t-16 39zM102 410h696v-45h-696v45zM102 250h696v-45h-696v45z" />
    <glyph glyph-name="notequal" unicode="&#x2260;" horiz-adv-x="900" 
d="M300 -30l82 222h-280v48h298l51 142h-349v48h366l78 211q14 -5 25 -8.5t23 -8.5l-72 -194h276v-48h-294l-51 -142h345v-48h-362q-21 -59 -44.5 -120t-44.5 -121z" />
    <glyph glyph-name="equivalence" unicode="&#x2261;" horiz-adv-x="900" 
d="M102 484h696v-48h-696v48zM102 336h696v-48h-696v48zM102 188h696v-48h-696v48z" />
    <glyph glyph-name="lessequal" unicode="&#x2264;" horiz-adv-x="900" 
d="M216 390l556 -222l-23 -46l-620 251q-5 2 -11 7t-6 10q-1 6 3.5 9.5t11.5 6.5l622 251q7 -14 12.5 -23.5t11.5 -22.5zM102 50h696v-48h-696v48z" />
    <glyph glyph-name="greaterequal" unicode="&#x2265;" horiz-adv-x="900" 
d="M127 611q6 14 12 24.5t12 22.5l621 -251q5 -2 11 -6t5 -11q-1 -6 -6.5 -10.5t-10.5 -6.5l-620 -251q-6 14 -12 24.5t-12 22.5l558 221zM102 50h696v-48h-696v48z" />
    <glyph glyph-name="uni226A" unicode="&#x226a;" horiz-adv-x="900" 
d="M546 654q9 -14 15.5 -23t14.5 -22l-432 -299q106 -75 217.5 -152.5t220.5 -149.5q-11 -11 -18 -19t-18 -19l-455 316q-6 4 -13.5 10t-5.5 14q0 6 6 11.5t11 10.5zM772 654q9 -14 15.5 -23t14.5 -22l-438 -300q106 -74 218 -149.5t220 -147.5q-10 -13 -16 -22l-14 -21
l-458 317q-6 5 -12 10.5t-6 13.5q0 5 5.5 12t13.5 12z" />
    <glyph glyph-name="uni226B" unicode="&#x226b;" horiz-adv-x="900" 
d="M813 332q5 -5 11 -10.5t6 -11.5q0 -8 -6.5 -14t-12.5 -10l-455 -316q-11 11 -18 19t-18 19q109 72 220.5 149.5t217.5 152.5l-432 299q8 13 14.5 22t15.5 23zM587 334q8 -5 13.5 -12t5.5 -12q0 -8 -6 -13.5t-12 -10.5l-458 -317l-14 21t-16 22q108 72 220 147.5
t218 149.5l-438 300q8 13 14.5 22t15.5 23z" />
    <glyph glyph-name="propersubset" unicode="&#x2282;" horiz-adv-x="900" 
d="M153 305q-1 -53 16.5 -93t48.5 -67t72.5 -41t87.5 -14h400v-48h-393q-60 0 -112 18t-90 52t-59.5 83t-21.5 110q0 62 23 111t62 83q39 33 90 51t108 18h393v-48h-400q-54 0 -95.5 -18t-69.5 -47q-29 -30 -44 -69t-16 -81z" />
    <glyph glyph-name="propersuperset" unicode="&#x2283;" horiz-adv-x="900" 
d="M747 305q-1 42 -16 81t-43 69q-29 29 -70.5 47t-95.5 18h-400v48h393q57 0 108 -18t90 -51q39 -34 62 -83t23 -111q0 -61 -21.5 -110t-59.5 -83t-90 -52t-112 -18h-393v48h400q46 0 87.5 14t72.5 41t48.5 67t16.5 93z" />
    <glyph glyph-name="reflexsubset" unicode="&#x2286;" horiz-adv-x="900" 
d="M102 50h696v-48h-696v48zM153 385q0 -50 19.5 -83.5t51.5 -53.5q32 -21 72.5 -29.5t81.5 -8.5h400v-48h-389q-56 0 -108 12t-91 39q-40 26 -64 68.5t-24 103.5t26 103.5t67 69.5q41 26 92.5 38t101.5 12h389v-48h-400q-43 0 -83.5 -10t-71.5 -31q-32 -21 -51 -54t-19 -80
z" />
    <glyph glyph-name="reflexsuperset" unicode="&#x2287;" horiz-adv-x="900" 
d="M798 2h-696v48h696v-48zM747 385q0 47 -19 80t-50 54q-32 21 -72.5 31t-83.5 10h-400v48h389q50 0 101 -12t93 -38q41 -27 67 -69.5t26 -103.5t-24 -103.5t-63 -68.5q-40 -27 -92 -39t-108 -12h-389v48h400q41 0 81.5 8.5t72.5 29.5q32 20 51.5 53.5t19.5 83.5z" />
    <glyph glyph-name="uni2299" unicode="&#x2299;" horiz-adv-x="900" 
d="M450 691q79 0 149 -31.5t122 -83.5q52 -53 82 -122t30 -144q0 -80 -32 -148.5t-85 -118.5q-53 -51 -122 -80t-144 -29q-80 0 -149.5 30t-120.5 82q-52 51 -81.5 119t-29.5 145q0 80 31 149.5t83 121.5q52 51 121 80.5t146 29.5zM450 644q-74 0 -136.5 -27t-107.5 -73
t-70 -106.5t-25 -127.5q0 -74 28 -135.5t75 -105.5t108 -68.5t128 -24.5q74 0 136.5 27t107.5 73t70 106.5t25 127.5q0 72 -27.5 133t-74.5 106q-47 44 -108.5 69.5t-128.5 25.5zM319 310q0 27 10 51t28 42t42 28t51 10t51 -10t42 -28t28 -42t10 -51t-10 -51t-28 -42
t-42 -28t-51 -10t-51 10t-42 28t-28 42t-10 51z" />
    <glyph glyph-name="perpendicular" unicode="&#x22a5;" horiz-adv-x="900" 
d="M122 -20v48h300v592h56v-592h300v-48h-656z" />
    <glyph glyph-name="uni2312" unicode="&#x2312;" horiz-adv-x="900" 
d="M113 380q13 64 43.5 118t75.5 94q44 39 99.5 61t118.5 22q64 0 119.5 -25t99.5 -66t74.5 -94t44.5 -110h-56q-12 53 -38 97.5t-63 77.5q-37 32 -83 50.5t-98 18.5q-54 0 -100.5 -19.5t-83.5 -52.5t-62 -77.5t-35 -94.5h-56z" />
    <glyph glyph-name="uni2460" unicode="&#x2460;" horiz-adv-x="1000" 
d="M55 300q0 92 35 173t96 142q60 60 141 95t173 35t173 -35t142 -95q60 -61 95 -142t35 -173t-35 -173t-95 -142q-61 -60 -142 -95t-173 -35t-173 35t-141 95q-61 61 -96 142t-35 173zM95 300q0 -84 32 -157.5t87 -128.5t128.5 -87t157.5 -32t157.5 32t128.5 87t87 128.5
t32 157.5t-32 157.5t-87 128.5t-128.5 87t-157.5 32t-157.5 -32t-128.5 -87t-87 -128.5t-32 -157.5zM496 505q-5 -5 -19 -17.5t-29 -25.5q-16 -14 -29 -25t-15 -12l-35 45l128 106h65v-560h-66v489z" />
    <glyph glyph-name="uni2461" unicode="&#x2461;" horiz-adv-x="1000" 
d="M320 100q29 24 57.5 45.5t56.5 44.5q25 22 57 51.5t61 62.5q28 33 47 68t19 68q0 21 -10.5 39t-28.5 32t-41 22t-48 8q-37 0 -78 -11t-69 -23q-2 15 -3.5 27.5t-3.5 26.5q36 14 77.5 22.5t80.5 8.5t73.5 -11t60.5 -31q26 -21 41 -50.5t15 -67.5q0 -25 -10.5 -51
t-27.5 -51q-17 -26 -38.5 -50.5t-42.5 -45.5q-47 -47 -95 -83t-93 -75h315v-52h-372v76zM55 300q0 92 35 173t96 142q60 60 141 95t173 35t173 -35t142 -95q60 -61 95 -142t35 -173t-35 -173t-95 -142q-61 -60 -142 -95t-173 -35t-173 35t-141 95q-61 61 -96 142t-35 173z
M95 300q0 -84 32 -157.5t87 -128.5t128.5 -87t157.5 -32t157.5 32t128.5 87t87 128.5t32 157.5t-32 157.5t-87 128.5t-128.5 87t-157.5 32t-157.5 -32t-128.5 -87t-87 -128.5t-32 -157.5z" />
    <glyph glyph-name="uni2462" unicode="&#x2462;" horiz-adv-x="1000" 
d="M55 300q0 92 35 173t96 142q60 60 141 95t173 35t173 -35t142 -95q60 -61 95 -142t35 -173t-35 -173t-95 -142q-61 -60 -142 -95t-173 -35t-173 35t-141 95q-61 61 -96 142t-35 173zM95 300q0 -84 32 -157.5t87 -128.5t128.5 -87t157.5 -32t157.5 32t128.5 87t87 128.5
t32 157.5t-32 157.5t-87 128.5t-128.5 87t-157.5 32t-157.5 -32t-128.5 -87t-87 -128.5t-32 -157.5zM402 337h60q24 0 52.5 7t53.5 21q24 13 41 32.5t17 44.5q0 26 -12 44t-30 30q-19 11 -42.5 16t-47.5 5q-39 0 -76.5 -6.5t-66.5 -19.5q-2 17 -3.5 28.5t-3.5 26.5
q15 5 34.5 9t40.5 7q20 3 40.5 4.5t38.5 1.5q38 0 73 -8.5t62 -25.5t43 -44.5t16 -64.5q0 -23 -10.5 -44t-27.5 -38q-18 -18 -40 -32t-45 -23q57 -17 94 -52t37 -92q0 -44 -20 -73t-52 -46q-32 -18 -73.5 -25.5t-84.5 -7.5q-17 0 -37 2t-40 5t-39 7t-34 8l7 59
q26 -11 64.5 -20.5t74.5 -9.5t66.5 7t53.5 21q22 13 35 31.5t13 41.5q0 32 -16 55t-41 38t-55.5 22t-59.5 7h-60v51z" />
    <glyph glyph-name="uni2463" unicode="&#x2463;" horiz-adv-x="1000" 
d="M55 300q0 92 35 173t96 142q60 60 141 95t173 35t173 -35t142 -95q60 -61 95 -142t35 -173t-35 -173t-95 -142q-61 -60 -142 -95t-173 -35t-173 35t-141 95q-61 61 -96 142t-35 173zM95 300q0 -84 32 -157.5t87 -128.5t128.5 -87t157.5 -32t157.5 32t128.5 87t87 128.5
t32 157.5t-32 157.5t-87 128.5t-128.5 87t-157.5 32t-157.5 -32t-128.5 -87t-87 -128.5t-32 -157.5zM558 146h-302v56l265 376h103v-380h72v-52h-72v-128h-66v128zM558 538q-60 -86 -119 -170t-119 -170h238v340z" />
    <glyph glyph-name="uni2464" unicode="&#x2464;" horiz-adv-x="1000" 
d="M55 300q0 92 35 173t96 142q60 60 141 95t173 35t173 -35t142 -95q60 -61 95 -142t35 -173t-35 -173t-95 -142q-61 -60 -142 -95t-173 -35t-173 35t-141 95q-61 61 -96 142t-35 173zM95 300q0 -84 32 -157.5t87 -128.5t128.5 -87t157.5 -32t157.5 32t128.5 87t87 128.5
t32 157.5t-32 157.5t-87 128.5t-128.5 87t-157.5 32t-157.5 -32t-128.5 -87t-87 -128.5t-32 -157.5zM678 527h-256l-6 -162q20 5 37 5h39q38 0 74 -13.5t65 -36.5q28 -23 45.5 -54.5t17.5 -67.5q0 -44 -18.5 -79t-49.5 -59q-32 -24 -72.5 -37t-85.5 -13t-78 5.5t-52 10.5
l4 61q56 -26 126 -26q27 0 55.5 8.5t51.5 25.5q23 16 38 39t15 52q0 33 -14 58.5t-37 42.5q-23 16 -52.5 24.5t-60.5 8.5q-37 0 -64 -4t-50 -13q2 72 4 137.5t4 137.5h320v-51z" />
    <glyph glyph-name="uni2465" unicode="&#x2465;" horiz-adv-x="1000" 
d="M660 511q-25 11 -56.5 18.5t-59.5 7.5q-44 0 -76.5 -18t-54.5 -49t-34 -71t-14 -83q70 58 151 58q40 0 74.5 -14t59.5 -38q24 -24 38 -55.5t14 -66.5q0 -41 -15 -75.5t-41 -59.5t-61.5 -39t-76.5 -14q-62 0 -102.5 24.5t-64.5 64.5q-24 39 -33.5 88t-9.5 99q0 55 11 109
t39 97q27 42 74 68t118 26q15 0 33.5 -2t36.5 -5t34 -6.5t25 -6.5zM636 196q0 21 -7 43.5t-22 41.5q-15 18 -38.5 30.5t-56.5 12.5q-30 0 -55.5 -9.5t-43.5 -26.5q-19 -18 -29 -41.5t-10 -50.5q0 -21 8.5 -44.5t25.5 -42.5q17 -20 42 -33t58 -13q32 0 56 12t40 31t24 42.5
t8 47.5zM55 300q0 92 35 173t96 142q60 60 141 95t173 35t173 -35t142 -95q60 -61 95 -142t35 -173t-35 -173t-95 -142q-61 -60 -142 -95t-173 -35t-173 35t-141 95q-61 61 -96 142t-35 173zM95 300q0 -84 32 -157.5t87 -128.5t128.5 -87t157.5 -32t157.5 32t128.5 87
t87 128.5t32 157.5t-32 157.5t-87 128.5t-128.5 87t-157.5 32t-157.5 -32t-128.5 -87t-87 -128.5t-32 -157.5z" />
    <glyph glyph-name="uni2466" unicode="&#x2466;" horiz-adv-x="1000" 
d="M55 300q0 92 35 173t96 142q60 60 141 95t173 35t173 -35t142 -95q60 -61 95 -142t35 -173t-35 -173t-95 -142q-61 -60 -142 -95t-173 -35t-173 35t-141 95q-61 61 -96 142t-35 173zM95 300q0 -84 32 -157.5t87 -128.5t128.5 -87t157.5 -32t157.5 32t128.5 87t87 128.5
t32 157.5t-32 157.5t-87 128.5t-128.5 87t-157.5 32t-157.5 -32t-128.5 -87t-87 -128.5t-32 -157.5zM696 510l-214 -502h-72l219 508h-305v51h372v-57z" />
    <glyph glyph-name="uni2467" unicode="&#x2467;" horiz-adv-x="1000" 
d="M55 300q0 92 35 173t96 142q60 60 141 95t173 35t173 -35t142 -95q60 -61 95 -142t35 -173t-35 -173t-95 -142q-61 -60 -142 -95t-173 -35t-173 35t-141 95q-61 61 -96 142t-35 173zM95 300q0 -84 32 -157.5t87 -128.5t128.5 -87t157.5 -32t157.5 32t128.5 87t87 128.5
t32 157.5t-32 157.5t-87 128.5t-128.5 87t-157.5 32t-157.5 -32t-128.5 -87t-87 -128.5t-32 -157.5zM498 14q-36 0 -72 10t-64 30q-29 19 -46.5 47.5t-17.5 64.5q0 25 11 48t31 43q19 19 44 35t54 27q-35 12 -58.5 29t-37.5 37q-15 19 -21.5 39t-6.5 38q0 25 13 48t38 41
q24 18 59 28.5t78 10.5q42 0 76 -11t57 -28t35.5 -38.5t12.5 -42.5q0 -44 -26.5 -79.5t-90.5 -70.5q28 -11 53 -26t44 -33q18 -19 28.5 -42t10.5 -49q0 -40 -16.5 -69t-44.5 -48q-28 -20 -65 -29.5t-78 -9.5zM634 162q1 25 -8.5 43t-24.5 31t-34.5 22.5t-39.5 17.5h1
q-8 4 -12 5t-7 3v-1l-24 11l-30 -18h-1q-15 -9 -30.5 -19t-28.5 -23t-21 -29t-8 -35q0 -24 13 -43.5t34 -32.5q20 -14 44.5 -21.5t48.5 -7.5q22 0 45 6.5t41 19.5q18 12 29.5 30t12.5 41zM382 450q0 -33 35 -60.5t102 -53.5q28 18 47 34t30 30q10 14 14.5 28.5t4.5 29.5
q0 21 -12 36t-30 25t-38.5 15t-36.5 5q-17 0 -37 -6t-37 -17q-18 -11 -30 -27.5t-12 -38.5z" />
    <glyph glyph-name="uni2468" unicode="&#x2468;" horiz-adv-x="1000" 
d="M348 89q26 -12 56.5 -19t59.5 -7q44 0 76.5 18t54.5 49t34 70.5t14 83.5q-70 -58 -151 -58q-41 0 -75 14t-58 38q-25 24 -39 55.5t-14 66.5q0 41 14.5 75.5t40.5 59.5t61.5 39t77.5 14q61 0 101.5 -24t64.5 -63t34 -88.5t10 -100.5q0 -55 -11 -109t-38 -96
q-28 -43 -75 -69t-118 -26q-15 0 -33.5 2t-36.5 5t-34 6.5t-25 6.5zM372 404q0 -21 7 -43.5t22 -40.5q15 -19 38.5 -31.5t56.5 -12.5q30 0 55.5 9.5t44.5 27.5q18 17 28 40.5t10 50.5q0 21 -8.5 44.5t-25.5 43.5q-17 19 -42 32t-58 13q-32 0 -56 -12t-40 -31t-24 -42.5
t-8 -47.5zM55 300q0 92 35 173t96 142q60 60 141 95t173 35t173 -35t142 -95q60 -61 95 -142t35 -173t-35 -173t-95 -142q-61 -60 -142 -95t-173 -35t-173 35t-141 95q-61 61 -96 142t-35 173zM95 300q0 -84 32 -157.5t87 -128.5t128.5 -87t157.5 -32t157.5 32t128.5 87
t87 128.5t32 157.5t-32 157.5t-87 128.5t-128.5 87t-157.5 32t-157.5 -32t-128.5 -87t-87 -128.5t-32 -157.5z" />
    <glyph glyph-name="uni2469" unicode="&#x2469;" horiz-adv-x="1000" 
d="M270 501q-18 -18 -30.5 -30t-20.5 -20q-9 -8 -15 -13.5t-11 -10.5l-2 -2q-10 14 -17 23t-17 22q31 28 57.5 53t57.5 53h64v-560h-66v485zM404 296q0 47 8 98t30 93q21 42 58.5 69.5t95.5 27.5t95.5 -27.5t59.5 -69.5q21 -42 29 -93t8 -98t-8 -98t-29 -93
q-22 -42 -59.5 -69.5t-95.5 -27.5t-95.5 27.5t-58.5 69.5q-22 42 -30 93t-8 98zM470 296q0 -18 1.5 -42.5t6.5 -50.5t13.5 -52t22.5 -46t34 -32.5t48 -12.5q27 0 47.5 12.5t34.5 32.5t22.5 46t13.5 52t6.5 50.5t1.5 42.5q0 27 -4.5 67t-17.5 78q-14 37 -39 64t-65 27
t-65 -27t-38 -64q-14 -38 -18.5 -78t-4.5 -67zM55 300q0 92 35 173t96 142q60 60 141 95t173 35t173 -35t142 -95q60 -61 95 -142t35 -173t-35 -173t-95 -142q-61 -60 -142 -95t-173 -35t-173 35t-141 95q-61 61 -96 142t-35 173zM95 300q0 -84 32 -157.5t87 -128.5
t128.5 -87t157.5 -32t157.5 32t128.5 87t87 128.5t32 157.5t-32 157.5t-87 128.5t-128.5 87t-157.5 32t-157.5 -32t-128.5 -87t-87 -128.5t-32 -157.5z" />
    <glyph glyph-name="uni246A" unicode="&#x246a;" horiz-adv-x="1000" 
d="M55 300q0 92 35 173t96 142q60 60 141 95t173 35t173 -35t142 -95q60 -61 95 -142t35 -173t-35 -173t-95 -142q-61 -60 -142 -95t-173 -35t-173 35t-141 95q-61 61 -96 142t-35 173zM95 300q0 -84 32 -157.5t87 -128.5t128.5 -87t157.5 -32t157.5 32t128.5 87t87 128.5
t32 157.5t-32 157.5t-87 128.5t-128.5 87t-157.5 32t-157.5 -32t-128.5 -87t-87 -128.5t-32 -157.5zM326 499l-78 -74q-10 14 -17.5 23t-17.5 22l116 106h65v-560h-68v483zM636 499l-78 -74q-10 14 -17.5 23t-17.5 22l116 106h65v-560h-68v483z" />
    <glyph glyph-name="uni246B" unicode="&#x246b;" horiz-adv-x="1000" 
d="M55 300q0 92 35 173t96 142q60 60 141 95t173 35t173 -35t142 -95q60 -61 95 -142t35 -173t-35 -173t-95 -142q-61 -60 -142 -95t-173 -35t-173 35t-141 95q-61 61 -96 142t-35 173zM95 300q0 -84 32 -157.5t87 -128.5t128.5 -87t157.5 -32t157.5 32t128.5 87t87 128.5
t32 157.5t-32 157.5t-87 128.5t-128.5 87t-157.5 32t-157.5 -32t-128.5 -87t-87 -128.5t-32 -157.5zM423 97q26 24 52.5 45.5t50.5 45.5q22 22 50.5 51t54.5 62q25 33 42 68t17 69q0 21 -9 39t-24 32q-16 14 -36 22t-42 8q-32 0 -70 -11.5t-66 -25.5l-6 56q33 14 72 23t74 9
t67 -11t56 -31q24 -21 38 -50.5t14 -67.5q0 -25 -10 -51t-25 -51q-16 -26 -35.5 -50.5t-38.5 -46.5q-20 -22 -41 -41t-42 -37q-22 -19 -43.5 -38t-40.5 -41h282v-52h-341v75zM280 503q-18 -18 -30.5 -30t-20.5 -20q-9 -8 -15 -13.5t-11 -10.5l-2 -2q-10 14 -17 23t-17 22
q31 28 57.5 53t57.5 53h64v-560h-66v485z" />
    <glyph glyph-name="uni246C" unicode="&#x246c;" horiz-adv-x="1000" 
d="M55 300q0 92 35 173t96 142q60 60 141 95t173 35t173 -35t142 -95q60 -61 95 -142t35 -173t-35 -173t-95 -142q-61 -60 -142 -95t-173 -35t-173 35t-141 95q-61 61 -96 142t-35 173zM95 300q0 -84 32 -157.5t87 -128.5t128.5 -87t157.5 -32t157.5 32t128.5 87t87 128.5
t32 157.5t-32 157.5t-87 128.5t-128.5 87t-157.5 32t-157.5 -32t-128.5 -87t-87 -128.5t-32 -157.5zM493 335h58q21 0 46 7t47 21q21 13 36 32.5t15 44.5q0 26 -10 44t-26 30q-17 11 -37.5 16t-41.5 5q-35 0 -69.5 -7t-63.5 -21l-6 57q13 4 31 8t38 7q19 3 38 5t35 2
q35 0 67.5 -8.5t57.5 -25.5q24 -17 38.5 -44.5t14.5 -64.5q0 -23 -12 -44t-31 -39q-20 -19 -44.5 -33t-49.5 -22q63 -15 103.5 -51.5t40.5 -91.5q0 -44 -18 -73t-47 -46q-30 -18 -68 -25.5t-77 -7.5q-15 0 -33 2t-37 6q-19 3 -36.5 7t-31.5 8l6 61q26 -12 61.5 -22.5
t66.5 -10.5q64 0 106 27.5t42 73.5q0 32 -14 55t-36 38t-49 22t-52 7h-58v51zM286 503q-18 -18 -30.5 -30t-20.5 -20q-9 -8 -15 -13.5t-11 -10.5l-2 -2q-10 14 -17 23t-17 22l115 106h64v-560h-66v485z" />
    <glyph glyph-name="uni246D" unicode="&#x246d;" horiz-adv-x="1000" 
d="M55 300q0 92 35 173t96 142q60 60 141 95t173 35t173 -35t142 -95q60 -61 95 -142t35 -173t-35 -173t-95 -142q-61 -60 -142 -95t-173 -35t-173 35t-141 95q-61 61 -96 142t-35 173zM95 300q0 -84 32 -157.5t87 -128.5t128.5 -87t157.5 -32t157.5 32t128.5 87t87 128.5
t32 157.5t-32 157.5t-87 128.5t-128.5 87t-157.5 32t-157.5 -32t-128.5 -87t-87 -128.5t-32 -157.5zM668 146h-272v56q60 95 119.5 188t119.5 188h99v-380h65v-52h-65v-128h-66v128zM276 503l-78 -77q-10 14 -17.5 23t-17.5 23l116 106h64v-560h-67v485zM668 528l-209 -330
h209v330z" />
    <glyph glyph-name="uni246E" unicode="&#x246e;" horiz-adv-x="1000" 
d="M55 300q0 92 35 173t96 142q60 60 141 95t173 35t173 -35t142 -95q60 -61 95 -142t35 -173t-35 -173t-95 -142q-61 -60 -142 -95t-173 -35t-173 35t-141 95q-61 61 -96 142t-35 173zM95 300q0 -84 32 -157.5t87 -128.5t128.5 -87t157.5 -32t157.5 32t128.5 87t87 128.5
t32 157.5t-32 157.5t-87 128.5t-128.5 87t-157.5 32t-157.5 -32t-128.5 -87t-87 -128.5t-32 -157.5zM745 527h-231q0 -16 -0.5 -37.5t-1.5 -43.5q-1 -23 -1.5 -44t-1.5 -37q17 4 31 4.5t34 0.5q35 0 68 -13.5t59 -36.5t42 -54.5t16 -67.5q0 -44 -17 -79t-45 -59
q-29 -24 -66.5 -37t-78.5 -13q-39 0 -71 6t-49 11l4 62q28 -15 56 -21.5t60 -6.5q24 0 49 8.5t46 25.5q20 16 33 39t13 52q0 33 -12 58.5t-32 43.5q-21 17 -47 25.5t-53 8.5q-29 0 -56 -6t-50 -16l7 278h295v-51zM281 500q-7 -7 -17 -16.5t-20 -19.5q-11 -10 -21 -19
t-17 -16l-6 -6l-32 47q31 28 57.5 53t57.5 53h64v-560h-66v484z" />
    <glyph glyph-name="uni2474" unicode="&#x2474;" horiz-adv-x="1000" 
d="M388 440q-1 -1 -1 0l-37 47l143 119h69v-626h-70v547q-8 -6 -19.5 -14.5t-23.5 -18.5t-23 -19.5t-20 -17.5q-6 -5 -11.5 -10t-7.5 -7h1zM40 300q0 128 34 237t91 183h30q-46 -81 -73 -188t-27 -232t27 -232t73 -188h-30q-57 74 -91 183t-34 237zM960 300q0 -128 -34 -237
t-91 -183h-30q46 81 73 188t27 232t-27 232t-73 188h30q57 -74 91 -183t34 -237z" />
    <glyph glyph-name="uni2475" unicode="&#x2475;" horiz-adv-x="1000" 
d="M300 73q19 17 37.5 31t39.5 31l50 39q29 25 64.5 59t67.5 72q31 37 52.5 76t21.5 74q0 23 -12 44t-32 37q-20 15 -46 24t-55 9q-42 0 -87 -12t-76 -26q-2 18 -3 30t-3 29q40 15 85 24.5t89 9.5q42 0 80.5 -12t67.5 -34q28 -23 45 -56.5t17 -75.5q0 -29 -11.5 -58
t-30.5 -57q-19 -29 -42.5 -56t-47.5 -51q-32 -32 -71.5 -64.5t-79.5 -63.5l-62 -50h354v-56h-412v83zM960 300q0 -128 -34 -237t-91 -183h-30q46 81 73 188t27 232t-27 232t-73 188h30q57 -74 91 -183t34 -237zM40 300q0 128 34 237t91 183h30q-46 -81 -73 -188t-27 -232
t27 -232t73 -188h-30q-57 74 -91 183t-34 237z" />
    <glyph glyph-name="uni2476" unicode="&#x2476;" horiz-adv-x="1000" 
d="M390 340h65q27 0 59 8t61 24q28 15 47 37t19 50q0 30 -13.5 50t-34.5 33q-22 13 -48.5 18.5t-53.5 5.5q-43 0 -85 -7t-74 -21q-2 19 -3 31.5t-3 29.5q16 5 37 9t44 7t46 5t43 2q42 0 81 -9.5t69 -28.5q29 -20 47 -50t18 -72q0 -25 -12.5 -47.5t-32.5 -42.5t-46.5 -36
t-54.5 -27q68 -21 111.5 -60.5t43.5 -100.5q0 -48 -22 -81t-58 -52q-36 -20 -82 -28.5t-94 -8.5q-18 0 -40 2.5t-44 5.5q-23 4 -44 8.5t-37 8.5q2 20 3 33t3 31q29 -12 72 -22.5t83 -10.5q41 0 75.5 8t60.5 23q25 15 39.5 36t14.5 47q0 36 -18 62t-46 43q-29 16 -63.5 24
t-67.5 8h-65v55zM40 300q0 128 34 237t91 183h30q-46 -81 -73 -188t-27 -232t27 -232t73 -188h-30q-57 74 -91 183t-34 237zM960 300q0 -128 -34 -237t-91 -183h-30q46 81 73 188t27 232t-27 232t-73 188h30q57 -74 91 -183t34 -237z" />
    <glyph glyph-name="uni2477" unicode="&#x2477;" horiz-adv-x="1000" 
d="M578 129h-338v63l295 419h113v-426h80v-56h-80v-144h-70v144zM578 565q-31 -43 -66 -92l-70 -98q-36 -50 -70.5 -98.5t-64.5 -91.5h271v380zM40 300q0 128 34 237t91 183h30q-46 -81 -73 -188t-27 -232t27 -232t73 -188h-30q-57 74 -91 183t-34 237zM960 300
q0 -128 -34 -237t-91 -183h-30q46 81 73 188t27 232t-27 232t-73 188h30q57 -74 91 -183t34 -237z" />
    <glyph glyph-name="uni2478" unicode="&#x2478;" horiz-adv-x="1000" 
d="M695 550h-286q-2 -48 -3 -94.5t-5 -93.5q23 6 43 8t45 2q42 0 82 -15t72 -41q31 -26 50.5 -61t19.5 -75q0 -49 -20.5 -88t-55.5 -66t-80.5 -41t-94.5 -14q-50 0 -86.5 5.5t-56.5 11.5l4 66q31 -14 65 -21t74 -7q30 0 62 10t59 28q26 18 43 44t17 59q0 38 -15.5 66.5
t-41.5 48.5q-26 19 -59.5 28.5t-68.5 9.5q-37 0 -68.5 -6t-57.5 -15l9 306h354v-55zM960 300q0 -128 -34 -237t-91 -183h-30q46 81 73 188t27 232t-27 232t-73 188h30q57 -74 91 -183t34 -237zM40 300q0 128 34 237t91 183h30q-46 -81 -73 -188t-27 -232t27 -232t73 -188
h-30q-57 74 -91 183t-34 237z" />
    <glyph glyph-name="uni2479" unicode="&#x2479;" horiz-adv-x="1000" 
d="M677 539q-28 13 -62 20t-66 7q-50 0 -86.5 -20.5t-61.5 -54.5q-25 -35 -38.5 -80.5t-15.5 -94.5q84 66 171 66q45 0 82.5 -15.5t65.5 -41.5q27 -27 42.5 -62.5t15.5 -74.5q0 -46 -16.5 -84.5t-45.5 -66.5t-68 -43.5t-85 -15.5q-69 0 -114 27.5t-71 71.5q-27 44 -37.5 99
t-10.5 111q0 61 12.5 121.5t43.5 107.5q30 47 82 76.5t131 29.5q16 0 36.5 -2t40.5 -5q20 -4 37.5 -8t27.5 -8zM654 184q0 23 -8 48.5t-25 46.5t-43.5 35t-64.5 14q-35 0 -63.5 -11t-48.5 -30q-21 -20 -32.5 -46t-11.5 -57q0 -24 9.5 -50.5t29.5 -48.5q19 -22 47 -36.5
t66 -14.5q37 0 64.5 13.5t45.5 34.5t26.5 48t8.5 54zM40 300q0 128 34 237t91 183h30q-46 -81 -73 -188t-27 -232t27 -232t73 -188h-30q-57 74 -91 183t-34 237zM960 300q0 -128 -34 -237t-91 -183h-30q46 81 73 188t27 232t-27 232t-73 188h30q57 -74 91 -183t34 -237z" />
    <glyph glyph-name="uni247A" unicode="&#x247a;" horiz-adv-x="1000" 
d="M716 534l-240 -564h-76l246 570h-342v55h412v-61zM960 300q0 -128 -34 -237t-91 -183h-30q46 81 73 188t27 232t-27 232t-73 188h30q57 -74 91 -183t34 -237zM40 300q0 128 34 237t91 183h30q-46 -81 -73 -188t-27 -232t27 -232t73 -188h-30q-57 74 -91 183t-34 237z" />
    <glyph glyph-name="uni247B" unicode="&#x247b;" horiz-adv-x="1000" 
d="M504 -20q-41 0 -80.5 11t-70.5 33q-32 22 -51.5 53.5t-19.5 72.5q0 28 12.5 53.5t34.5 47.5q21 21 49 39t60 30q-37 14 -63.5 33t-42.5 41q-17 22 -24.5 44.5t-7.5 42.5q0 28 14.5 53.5t41.5 45.5t65.5 32t86.5 12q47 0 84.5 -12t63.5 -31q26 -20 40 -44t14 -47
q0 -48 -31.5 -89t-100.5 -79q31 -12 58.5 -29t48.5 -38t33 -46t12 -55q0 -44 -18.5 -76.5t-49.5 -54.5t-72 -32.5t-86 -10.5zM658 145q1 29 -9.5 49.5t-27.5 35.5q-18 15 -40.5 25.5t-45.5 19.5q-12 5 -23 10t-22 9l-35 -20l-36 -22t-32 -25q-15 -15 -24 -32.5t-9 -40.5
q0 -27 15 -49t38 -37q23 -16 51.5 -24t54.5 -8q25 0 50.5 7.5t46.5 21.5t34 34t14 46zM372 468q0 -37 39.5 -68.5t115.5 -60.5q33 21 54.5 39t34.5 34q12 16 17 32t5 33q0 24 -14 41t-34 28q-21 11 -44 16.5t-42 5.5t-42 -6.5t-43 -18.5q-20 -13 -33.5 -31.5t-13.5 -43.5z
M40 300q0 128 34 237t91 183h30q-46 -81 -73 -188t-27 -232t27 -232t73 -188h-30q-57 74 -91 183t-34 237zM960 300q0 -128 -34 -237t-91 -183h-30q46 81 73 188t27 232t-27 232t-73 188h30q57 -74 91 -183t34 -237z" />
    <glyph glyph-name="uni247C" unicode="&#x247c;" horiz-adv-x="1000" 
d="M331 61q28 -13 62 -20t66 -7q49 0 86 20.5t62 55.5q25 34 38.5 79.5t15.5 94.5q-84 -66 -171 -66q-45 0 -82.5 15.5t-64.5 42.5q-28 26 -43.5 61.5t-15.5 74.5q0 46 16 84.5t45 66.5t68 43.5t86 15.5q68 0 113 -27t72 -70q26 -44 37 -99.5t11 -112.5q0 -62 -12.5 -122
t-42.5 -107q-31 -47 -83 -76.5t-131 -29.5q-16 0 -36.5 2t-40.5 5q-20 4 -37.5 8t-27.5 8zM354 416q0 -23 8 -48.5t25 -46.5t43.5 -35t64.5 -14q34 0 63 11t50 31q20 19 31.5 45t11.5 57q0 24 -9.5 50.5t-28.5 48.5q-20 22 -48.5 36.5t-65.5 14.5t-64.5 -13.5t-45.5 -34.5
t-26.5 -48t-8.5 -54zM40 300q0 128 34 237t91 183h30q-46 -81 -73 -188t-27 -232t27 -232t73 -188h-30q-57 74 -91 183t-34 237zM960 300q0 -128 -34 -237t-91 -183h-30q46 81 73 188t27 232t-27 232t-73 188h30q57 -74 91 -183t34 -237z" />
    <glyph glyph-name="uni247D" unicode="&#x247d;" horiz-adv-x="1100" 
d="M302 526q-10 -8 -22 -19l-24 -22t-23.5 -22t-20.5 -19l-1 -1q-10 14 -18.5 24.5t-17.5 23.5q33 30 64 59.5t64 59.5h69v-628h-70v544zM470 296q0 52 9 109t33 105q24 47 65.5 77.5t105.5 30.5t105.5 -30.5t65.5 -77.5q24 -48 33 -105t9 -109q0 -53 -9 -109.5t-33 -103.5
q-24 -48 -65.5 -78.5t-105.5 -30.5t-105.5 30.5t-65.5 78.5q-24 47 -33 103.5t-9 109.5zM540 296q0 -20 2 -47.5t8 -56.5q5 -30 14.5 -59t25.5 -51q16 -23 39 -37t54 -14t54 14t39 37q16 22 25.5 51t15.5 59q5 29 7 56.5t2 47.5q0 30 -5.5 75.5t-20.5 87.5q-16 42 -44 72
t-73 30t-73 -30t-43 -72q-16 -42 -21.5 -87.5t-5.5 -75.5zM40 300q0 128 34 237t91 183h30q-46 -81 -73 -188t-27 -232t27 -232t73 -188h-30q-57 74 -91 183t-34 237zM1060 300q0 -128 -34 -237t-91 -183h-30q46 81 73 188t27 232t-27 232t-73 188h30q57 -74 91 -183
t34 -237z" />
    <glyph glyph-name="uni247E" unicode="&#x247e;" horiz-adv-x="1100" 
d="M733 525l-91 -83q-11 15 -17.5 25.5t-17.5 24.5q33 30 63.5 59t63.5 59h71v-628h-72v543zM335 525l-90 -83q-11 15 -19 25t-18 24l129 119h70v-628h-72v543zM40 300q0 128 34 237t91 183h30q-46 -81 -73 -188t-27 -232t27 -232t73 -188h-30q-57 74 -91 183t-34 237z
M1060 300q0 -128 -34 -237t-91 -183h-30q46 81 73 188t27 232t-27 232t-73 188h30q57 -74 91 -183t34 -237z" />
    <glyph glyph-name="uni247F" unicode="&#x247f;" horiz-adv-x="1100" 
d="M495 70q13 11 32 28t37 34q18 16 31 28t15 14q25 25 57 57.5t60 69.5t47 76t19 77q0 23 -10.5 44t-27.5 37q-17 15 -40 24t-48 9q-36 0 -77.5 -12.5t-71.5 -26.5q-2 19 -3.5 30.5t-3.5 28.5q38 17 80 26t82 9q39 0 74 -12t62 -34q27 -23 42.5 -56.5t15.5 -75.5
q0 -28 -11 -57t-28 -58q-18 -29 -40 -56t-43 -50q-45 -49 -95 -91t-96 -88h319v-56h-378v81zM308 526l-90 -82l-1 -1q-10 14 -18.5 24.5t-17.5 23.5q33 30 64 59.5t64 59.5h69v-628h-70v544zM40 300q0 128 34 237t91 183h30q-46 -81 -73 -188t-27 -232t27 -232t73 -188h-30
q-57 74 -91 183t-34 237zM1060 300q0 -128 -34 -237t-91 -183h-30q46 81 73 188t27 232t-27 232t-73 188h30q57 -74 91 -183t34 -237z" />
    <glyph glyph-name="uni2480" unicode="&#x2480;" horiz-adv-x="1100" 
d="M568 338h63q23 0 51.5 8t53.5 24q24 15 41 37t17 50q0 30 -12 50t-30 33q-19 13 -42.5 18.5t-46.5 5.5q-37 0 -75.5 -8t-70.5 -22q-2 20 -3.5 31.5t-3.5 29.5q15 5 35 9.5t41 8.5q21 3 42.5 5t39.5 2q39 0 74.5 -9.5t62.5 -28.5q27 -20 43.5 -50t16.5 -72
q0 -26 -13.5 -50t-35.5 -44q-22 -21 -50 -36.5t-56 -24.5q34 -6 64 -19.5t53 -33.5q22 -21 35 -48t13 -58q0 -48 -20.5 -81t-53.5 -52q-33 -20 -75.5 -28.5t-85.5 -8.5q-17 0 -37.5 2.5t-41.5 6.5t-40.5 8.5t-34.5 8.5q2 18 3.5 33t3.5 32q29 -13 68 -24t73 -11q36 0 67.5 8
t54.5 23q22 15 35 36t13 47q0 36 -16.5 62t-41.5 43q-25 16 -56 24t-59 8h-63v55zM308 526l-90 -82l-1 -1q-10 14 -18.5 24.5t-17.5 23.5q33 30 64 59.5t64 59.5h69v-628h-70v544zM40 300q0 128 34 237t91 183h30q-46 -81 -73 -188t-27 -232t27 -232t73 -188h-30
q-57 74 -91 183t-34 237zM1060 300q0 -128 -34 -237t-91 -183h-30q46 81 73 188t27 232t-27 232t-73 188h30q57 -74 91 -183t34 -237z" />
    <glyph glyph-name="uni2481" unicode="&#x2481;" horiz-adv-x="1100" 
d="M758 129h-305v62l266 420h108v-426h73v-56h-73v-144h-69v144zM298 526q-10 -8 -22 -19l-24 -22t-23.5 -22t-20.5 -19l-1 -1q-10 14 -18.5 24.5t-17.5 23.5q33 30 64 59.5t64 59.5h69v-628h-70v544zM758 557q-62 -93 -120.5 -186t-118.5 -186h239v372zM1060 300
q0 -128 -34 -237t-91 -183h-30q46 81 73 188t27 232t-27 232t-73 188h30q57 -74 91 -183t34 -237zM40 300q0 128 34 237t91 183h30q-46 -81 -73 -188t-27 -232t27 -232t73 -188h-30q-57 74 -91 183t-34 237z" />
    <glyph glyph-name="uni2482" unicode="&#x2482;" horiz-adv-x="1100" 
d="M846 556h-259q0 -18 -1 -42t-1 -49q-1 -26 -2 -50t-2 -42q20 4 36 4.5t39 0.5q39 0 76 -15t66 -41t46.5 -61t17.5 -75q0 -49 -19 -88t-51 -66t-73.5 -41t-86.5 -14q-48 0 -81 5.5t-52 11.5q1 18 2.5 34.5t2.5 33.5q31 -16 62 -23t66 -7q27 0 55 10t52 28q23 18 38 44
t15 59q0 38 -14 66.5t-36 48.5q-23 19 -53 28.5t-61 9.5q-62 0 -116 -23q2 81 4 154.5t4 153.5h326v-55zM312 526q-10 -8 -22 -19l-24 -22t-23.5 -22t-20.5 -19l-1 -1q-10 14 -18.5 24.5t-17.5 23.5q33 30 64 59.5t64 59.5h69v-628h-70v544zM40 300q0 128 34 237t91 183h30
q-46 -81 -73 -188t-27 -232t27 -232t73 -188h-30q-57 74 -91 183t-34 237zM1060 300q0 -128 -34 -237t-91 -183h-30q46 81 73 188t27 232t-27 232t-73 188h30q57 -74 91 -183t34 -237z" />
    <glyph glyph-name="uni249C" unicode="&#x249c;" horiz-adv-x="1000" 
d="M324 474q33 21 76 32.5t85 11.5q106 0 160.5 -43.5t54.5 -134.5v-190v-51t2 -29h-63l-2 62q-12 -14 -31 -27t-42 -22q-23 -10 -48 -16t-49 -6q-87 0 -135.5 32.5t-48.5 100.5q0 40 18.5 68t49.5 45q31 16 70.5 23.5t81.5 7.5l127 -1q-5 131 -159 131q-33 0 -73 -13
t-71 -33zM630 291q-7 0 -17.5 0.5t-22.5 1.5q-13 0 -26 0.5t-25 0.5q-25 0 -57 -3t-60 -13q-29 -11 -49 -30.5t-20 -53.5q0 -20 10 -35.5t28 -25.5q17 -11 39 -16t46 -5q33 0 61 9.5t49 26.5q20 17 32 40t12 51v52zM40 300q0 128 34 237t91 183h30q-46 -81 -73 -188
t-27 -232t27 -232t73 -188h-30q-57 74 -91 183t-34 237zM960 300q0 -128 -34 -237t-91 -183h-30q46 81 73 188t27 232t-27 232t-73 188h30q57 -74 91 -183t34 -237z" />
    <glyph glyph-name="uni249D" unicode="&#x249d;" horiz-adv-x="1000" 
d="M314 635h68v-280q29 34 67.5 53.5t95.5 19.5q48 0 85 -18t63 -48q25 -31 38 -72t13 -86t-12.5 -87t-36.5 -74q-25 -33 -62.5 -52.5t-87.5 -19.5q-60 0 -101 24.5t-66 53.5v-48v-10.5t1 -10.5h-65v655zM676 199q0 33 -9 65t-27 58q-19 25 -46.5 40.5t-64.5 15.5
q-38 0 -65.5 -15t-45.5 -40t-27 -57.5t-9 -66.5q0 -30 8 -62t26 -57q18 -26 46 -42.5t67 -16.5q37 0 64.5 17t46.5 44q18 26 27 57t9 60zM40 300q0 128 34 237t91 183h30q-46 -81 -73 -188t-27 -232t27 -232t73 -188h-30q-57 74 -91 183t-34 237zM960 300q0 -128 -34 -237
t-91 -183h-30q46 81 73 188t27 232t-27 232t-73 188h30q57 -74 91 -183t34 -237zM391 -20l-12 -10v10h12z" />
    <glyph glyph-name="uni249E" unicode="&#x249e;" horiz-adv-x="1000" 
d="M665 447q-28 10 -50.5 15.5t-45.5 5.5q-97 0 -150 -44t-53 -134q0 -79 50 -128.5t153 -49.5q22 0 52 5.5t57 17.5l6 -55q-30 -11 -63 -15t-61 -4q-60 0 -109 15.5t-83 45.5q-35 29 -53.5 71.5t-18.5 96.5q0 112 71 170t193 58q29 0 60.5 -5.5t54.5 -12.5zM960 300
q0 -128 -34 -237t-91 -183h-30q46 81 73 188t27 232t-27 232t-73 188h30q57 -74 91 -183t34 -237zM40 300q0 128 34 237t91 183h30q-46 -81 -73 -188t-27 -232t27 -232t73 -188h-30q-57 74 -91 183t-34 237z" />
    <glyph glyph-name="uni249F" unicode="&#x249f;" horiz-adv-x="1000" 
d="M40 300q0 128 34 237t91 183h30q-46 -81 -73 -188t-27 -232t27 -232t73 -188h-30q-57 74 -91 183t-34 237zM960 300q0 -128 -34 -237t-91 -183h-30q46 81 73 188t27 232t-27 232t-73 188h30q57 -74 91 -183t34 -237zM338 199q0 -29 9 -60t28 -57q18 -27 45.5 -44
t64.5 -17q39 0 67 16.5t46 42.5q18 25 26 57t8 62q0 34 -9 66.5t-27 57.5t-46 40t-65 15t-64.5 -15.5t-45.5 -40.5q-19 -26 -28 -58t-9 -65zM700 -20h-65q1 5 1 10.5v10.5v48q-13 -15 -29.5 -29t-36.5 -25q-21 -11 -46 -17.5t-55 -6.5q-50 0 -87.5 19.5t-62.5 52.5
q-25 32 -37 74t-12 87t13 86t39 72q25 30 62 48t85 18q57 0 95.5 -19.5t67.5 -53.5v280h68v-655z" />
    <glyph glyph-name="uni24A0" unicode="&#x24a0;" horiz-adv-x="1000" 
d="M680 85q-38 -13 -73.5 -20.5t-77.5 -7.5q-121 0 -184 62.5t-63 170.5q0 49 16.5 90t46.5 71q29 30 70 46.5t91 16.5q57 0 97.5 -18t66.5 -50t38.5 -76.5t13.5 -96.5h-370q1 -36 14.5 -66.5t36.5 -52.5t55 -34t71 -12q46 0 84 11t61 24zM652 318q-1 28 -11.5 54.5
t-29.5 46.5q-20 20 -46.5 32.5t-58.5 12.5q-36 0 -63 -13.5t-46 -34.5t-31 -47t-16 -51h302zM40 300q0 128 34 237t91 183h30q-46 -81 -73 -188t-27 -232t27 -232t73 -188h-30q-57 74 -91 183t-34 237zM960 300q0 -128 -34 -237t-91 -183h-30q46 81 73 188t27 232t-27 232
t-73 188h30q57 -74 91 -183t34 -237z" />
    <glyph glyph-name="uni24A1" unicode="&#x24a1;" horiz-adv-x="1000" 
d="M458 363h-122v52h122v50q0 40 5.5 71.5t21.5 53.5t43.5 33.5t72.5 11.5q14 0 31 -0.5t31 -2.5q-1 -14 -2.5 -25t-2.5 -25q-11 2 -23.5 2.5t-20.5 0.5q-30 0 -47.5 -8t-26.5 -22q-9 -15 -11.5 -35.5t-2.5 -45.5v-59h132v-52h-132v-383h-68v383zM40 300q0 128 34 237
t91 183h30q-46 -81 -73 -188t-27 -232t27 -232t73 -188h-30q-57 74 -91 183t-34 237zM960 300q0 -128 -34 -237t-91 -183h-30q46 81 73 188t27 232t-27 232t-73 188h30q57 -74 91 -183t34 -237z" />
    <glyph glyph-name="uni24A2" unicode="&#x24a2;" horiz-adv-x="1000" 
d="M702 191q0 -101 -54.5 -153.5t-174.5 -52.5q-35 0 -72 4.5t-88 21.5l6 61q45 -19 81.5 -28t81.5 -9q73 0 112.5 44t39.5 121l-1 35q-29 -38 -70.5 -54t-91.5 -16q-48 0 -85 14.5t-62 41.5q-26 26 -39 63t-13 82t12 83.5t37 67.5q25 28 62 44t88 16q53 0 97.5 -20
t69.5 -52q0 7 -0.5 22t-0.5 23q-1 6 -1 9.5v8.5h66v-377zM340 371q0 -33 9.5 -61.5t28.5 -49.5q18 -21 45.5 -33t63.5 -12q73 0 110 43.5t37 112.5q0 30 -9 58.5t-27 50.5q-18 21 -45.5 34t-65.5 13q-36 0 -63.5 -13.5t-45.5 -35.5q-19 -22 -28.5 -50t-9.5 -57zM40 300
q0 128 34 237t91 183h30q-46 -81 -73 -188t-27 -232t27 -232t73 -188h-30q-57 74 -91 183t-34 237zM960 300q0 -128 -34 -237t-91 -183h-30q46 81 73 188t27 232t-27 232t-73 188h30q57 -74 91 -183t34 -237z" />
    <glyph glyph-name="uni24A3" unicode="&#x24a3;" horiz-adv-x="1000" 
d="M314 635h68l2 -285q34 48 74 63t84 15q84 0 134 -49t50 -139v-260h-68v224q0 174 -125 174q-38 0 -66.5 -15t-46.5 -41q-19 -27 -28.5 -64t-9.5 -81v-197h-68v655zM40 300q0 128 34 237t91 183h30q-46 -81 -73 -188t-27 -232t27 -232t73 -188h-30q-57 74 -91 183t-34 237
zM960 300q0 -128 -34 -237t-91 -183h-30q46 81 73 188t27 232t-27 232t-73 188h30q57 -74 91 -183t34 -237z" />
    <glyph glyph-name="uni24A4" unicode="&#x24a4;" horiz-adv-x="1000" 
d="M466 420h68v-440h-68v440zM539 534h-79v81h79v-81zM40 300q0 128 34 237t91 183h30q-46 -81 -73 -188t-27 -232t27 -232t73 -188h-30q-57 74 -91 183t-34 237zM960 300q0 -128 -34 -237t-91 -183h-30q46 81 73 188t27 232t-27 232t-73 188h30q57 -74 91 -183t34 -237z
" />
    <glyph glyph-name="uni24A5" unicode="&#x24a5;" horiz-adv-x="1000" 
d="M381 -27q8 -2 15 -2h17q18 0 31 3.5t22 12.5q8 9 12 25t4 41v387h68v-378q0 -29 -4 -56t-17 -49q-14 -21 -38.5 -34t-64.5 -13q-11 0 -26 1t-26 3zM556 554h-79v81h79v-81zM40 300q0 128 34 237t91 183h30q-46 -81 -73 -188t-27 -232t27 -232t73 -188h-30q-57 74 -91 183
t-34 237zM960 300q0 -128 -34 -237t-91 -183h-30q46 81 73 188t27 232t-27 232t-73 188h30q57 -74 91 -183t34 -237z" />
    <glyph glyph-name="uni24A6" unicode="&#x24a6;" horiz-adv-x="1000" 
d="M322 635h69v-655h-69v655zM616 420h87l-218 -198q63 -61 103.5 -100.5t66.5 -65.5q26 -27 42.5 -44t31.5 -32h-84q-57 61 -120 121t-120 121zM40 300q0 128 34 237t91 183h30q-46 -81 -73 -188t-27 -232t27 -232t73 -188h-30q-57 74 -91 183t-34 237zM960 300
q0 -128 -34 -237t-91 -183h-30q46 81 73 188t27 232t-27 232t-73 188h30q57 -74 91 -183t34 -237z" />
    <glyph glyph-name="uni24A7" unicode="&#x24a7;" horiz-adv-x="1000" 
d="M466 635h68v-655h-68v655zM40 300q0 128 34 237t91 183h30q-46 -81 -73 -188t-27 -232t27 -232t73 -188h-30q-57 74 -91 183t-34 237zM960 300q0 -128 -34 -237t-91 -183h-30q46 81 73 188t27 232t-27 232t-73 188h30q57 -74 91 -183t34 -237z" />
    <glyph glyph-name="uni24A8" unicode="&#x24a8;" horiz-adv-x="1000" 
d="M210 510h65l1 -50q30 35 60.5 47.5t68.5 12.5q34 0 66 -14.5t54 -60.5q28 43 62 59t58 16q38 0 67 -13.5t49 -36.5q19 -23 29 -54t10 -67v-279h-70v261q0 23 -4 47t-14 44t-26 33t-41 13q-30 0 -50 -16t-32 -41q-12 -26 -17.5 -58.5t-5.5 -66.5v-216h-70v261
q0 23 -4.5 47t-13.5 44q-10 20 -26.5 33t-40.5 13q-30 0 -50 -16t-32 -41q-13 -26 -18 -58.5t-5 -66.5v-216h-70v440zM40 300q0 128 34 237t91 183h30q-46 -81 -73 -188t-27 -232t27 -232t73 -188h-30q-57 74 -91 183t-34 237zM960 300q0 -128 -34 -237t-91 -183h-30
q46 81 73 188t27 232t-27 232t-73 188h30q57 -74 91 -183t34 -237z" />
    <glyph glyph-name="uni24A9" unicode="&#x24a9;" horiz-adv-x="1000" 
d="M305 510h65l2 -70q16 22 36 37.5t41 24.5t42 13t41 4q86 0 135.5 -49.5t49.5 -138.5v-261h-68v225q0 87 -32 130.5t-93 43.5q-77 0 -114 -54.5t-37 -142.5v-202h-68v440zM40 300q0 128 34 237t91 183h30q-46 -81 -73 -188t-27 -232t27 -232t73 -188h-30q-57 74 -91 183
t-34 237zM960 300q0 -128 -34 -237t-91 -183h-30q46 81 73 188t27 232t-27 232t-73 188h30q57 -74 91 -183t34 -237z" />
    <glyph glyph-name="uni24AA" unicode="&#x24aa;" horiz-adv-x="1000" 
d="M271 290q0 49 16 91t46 73q30 30 72.5 47t94.5 17t94.5 -17t72.5 -47q30 -31 46 -73t16 -91q0 -47 -16.5 -89t-46.5 -73q-31 -31 -73 -49t-93 -18t-93.5 18t-72.5 49t-46.5 73t-16.5 89zM341 290q0 -33 9 -64.5t29 -56.5q19 -26 49 -41.5t72 -15.5q41 0 71 15.5t50 41.5
q19 25 28.5 56.5t9.5 64.5q0 34 -10.5 66t-30.5 57q-21 25 -50.5 40t-67.5 15t-68 -15t-50 -40t-30.5 -57t-10.5 -66zM40 300q0 128 34 237t91 183h30q-46 -81 -73 -188t-27 -232t27 -232t73 -188h-30q-57 74 -91 183t-34 237zM960 300q0 -128 -34 -237t-91 -183h-30
q46 81 73 188t27 232t-27 232t-73 188h30q57 -74 91 -183t34 -237z" />
    <glyph glyph-name="uni24AB" unicode="&#x24ab;" horiz-adv-x="1000" 
d="M677 365q0 29 -9.5 58.5t-27.5 53.5q-19 23 -46.5 38t-63.5 15q-39 0 -67 -14.5t-46 -37.5t-26 -53t-8 -60q0 -35 9 -65t27 -52t45.5 -35t65.5 -13q37 0 64.5 13.5t46.5 36.5q18 22 27 52t9 63zM315 572h63l1 -67q26 29 70 52t97 23q50 0 87.5 -17.5t62.5 -47.5
q24 -30 36.5 -70t12.5 -85t-13 -83.5t-38 -66.5q-26 -28 -63 -44t-85 -16q-51 0 -92.5 19t-70.5 56v-245h-68v592zM40 300q0 128 34 237t91 183h30q-46 -81 -73 -188t-27 -232t27 -232t73 -188h-30q-57 74 -91 183t-34 237zM960 300q0 -128 -34 -237t-91 -183h-30
q46 81 73 188t27 232t-27 232t-73 188h30q57 -74 91 -183t34 -237z" />
    <glyph glyph-name="uni24AC" unicode="&#x24ac;" horiz-adv-x="1000" 
d="M326 365q0 -33 9 -63t28 -52q18 -23 45.5 -36.5t64.5 -13.5t65 13t46 35t27 52t9 65q0 30 -8 60t-26 53t-46 37.5t-67 14.5q-36 0 -63.5 -15t-45.5 -38q-19 -24 -28.5 -53.5t-9.5 -58.5zM688 -20h-68v245q-29 -37 -70.5 -56t-92.5 -19q-48 0 -85 16t-62 44
q-26 28 -39 66.5t-13 83.5t12 85t37 70t62.5 47.5t87.5 17.5q53 0 97 -23t70 -52l1 67h63v-592zM960 300q0 -128 -34 -237t-91 -183h-30q46 81 73 188t27 232t-27 232t-73 188h30q57 -74 91 -183t34 -237zM40 300q0 128 34 237t91 183h30q-46 -81 -73 -188t-27 -232t27 -232
t73 -188h-30q-57 74 -91 183t-34 237z" />
    <glyph glyph-name="uni24AD" unicode="&#x24ad;" horiz-adv-x="1000" 
d="M380 510h66l1 -75q15 21 35 36.5t42 26.5t44.5 16.5t41.5 5.5q21 0 43.5 -3t37.5 -8q-2 -17 -5.5 -33t-5.5 -31q-14 5 -31.5 9t-34.5 4q-33 0 -63.5 -13t-52.5 -37q-23 -24 -36.5 -59.5t-13.5 -80.5v-198h-68v440zM960 300q0 -128 -34 -237t-91 -183h-30q46 81 73 188
t27 232t-27 232t-73 188h30q57 -74 91 -183t34 -237zM40 300q0 128 34 237t91 183h30q-46 -81 -73 -188t-27 -232t27 -232t73 -188h-30q-57 74 -91 183t-34 237z" />
    <glyph glyph-name="uni24AE" unicode="&#x24ae;" horiz-adv-x="1000" 
d="M344 138q17 -7 35.5 -12t36.5 -8t33 -4.5t25 -1.5q18 0 39 3t39 11q17 7 29 20.5t12 34.5q0 19 -14.5 33.5t-34.5 25.5t-40.5 19.5t-32.5 14.5q-22 9 -45.5 19.5t-43.5 25.5q-20 14 -33 32t-13 41q0 34 14.5 58t39.5 39t58.5 22t70.5 7q29 0 62.5 -4t62.5 -12
q-2 -17 -4.5 -29t-4.5 -27q-13 4 -29.5 7.5t-32.5 6.5q-17 3 -32.5 4.5t-26.5 1.5q-46 0 -78 -13.5t-32 -46.5q0 -15 9.5 -26.5t24.5 -20.5q15 -10 34 -18.5t38 -16.5q23 -11 49.5 -22t49.5 -26q22 -16 37 -37.5t15 -53.5q0 -35 -14.5 -59t-38.5 -39t-55.5 -21.5t-65.5 -6.5
q-33 0 -74 5t-73 17zM960 300q0 -128 -34 -237t-91 -183h-30q46 81 73 188t27 232t-27 232t-73 188h30q57 -74 91 -183t34 -237zM40 300q0 128 34 237t91 183h30q-46 -81 -73 -188t-27 -232t27 -232t73 -188h-30q-57 74 -91 183t-34 237z" />
    <glyph glyph-name="uni24AF" unicode="&#x24af;" horiz-adv-x="1000" 
d="M650 389h-132v-251q0 -49 26 -70t66 -21q25 0 48 10q0 -17 0.5 -26t0.5 -25q-13 -5 -29.5 -8t-33.5 -3q-31 0 -57.5 7.5t-45.5 23.5q-20 15 -31.5 38.5t-11.5 55.5v269h-106v51h106v135h68v-135h132v-51zM960 300q0 -128 -34 -237t-91 -183h-30q46 81 73 188t27 232
t-27 232t-73 188h30q57 -74 91 -183t34 -237zM40 300q0 128 34 237t91 183h30q-46 -81 -73 -188t-27 -232t27 -232t73 -188h-30q-57 74 -91 183t-34 237z" />
    <glyph glyph-name="uni24B0" unicode="&#x24b0;" horiz-adv-x="1000" 
d="M716 70h-66l-1 75q-32 -44 -77 -64t-85 -20q-85 0 -134 49.5t-49 138.5v261h68v-225q0 -87 32 -130.5t92 -43.5q78 0 115 54.5t37 141.5v203h68v-440zM960 300q0 -128 -34 -237t-91 -183h-30q46 81 73 188t27 232t-27 232t-73 188h30q57 -74 91 -183t34 -237zM40 300
q0 128 34 237t91 183h30q-46 -81 -73 -188t-27 -232t27 -232t73 -188h-30q-57 74 -91 183t-34 237z" />
    <glyph glyph-name="uni24B1" unicode="&#x24b1;" horiz-adv-x="1000" 
d="M547 70h-90q-45 112 -88.5 220t-88.5 220h73l151 -390q17 46 36.5 95t39.5 100q19 50 38 99.5t37 95.5h65zM960 300q0 -128 -34 -237t-91 -183h-30q46 81 73 188t27 232t-27 232t-73 188h30q57 -74 91 -183t34 -237zM40 300q0 128 34 237t91 183h30q-46 -81 -73 -188
t-27 -232t27 -232t73 -188h-30q-57 74 -91 183t-34 237z" />
    <glyph glyph-name="uni24B2" unicode="&#x24b2;" horiz-adv-x="1000" 
d="M692 70h-82l-106 370l-104 -370h-82q-32 112 -62.5 220t-61.5 220h73l96 -360l100 360h88l104 -360l96 360h64zM960 300q0 -128 -34 -237t-91 -183h-30q46 81 73 188t27 232t-27 232t-73 188h30q57 -74 91 -183t34 -237zM40 300q0 128 34 237t91 183h30q-46 -81 -73 -188
t-27 -232t27 -232t73 -188h-30q-57 74 -91 183t-34 237z" />
    <glyph glyph-name="uni24B3" unicode="&#x24b3;" horiz-adv-x="1000" 
d="M468 296l-161 214h77l118 -165l123 165h65l-158 -208q18 -24 40.5 -55t46.5 -62l46.5 -62t39.5 -53h-77l-130 183q-9 -12 -28 -37.5t-40 -53.5t-40 -53.5t-29 -38.5h-65zM40 300q0 128 34 237t91 183h30q-46 -81 -73 -188t-27 -232t27 -232t73 -188h-30q-57 74 -91 183
t-34 237zM960 300q0 -128 -34 -237t-91 -183h-30q46 81 73 188t27 232t-27 232t-73 188h30q57 -74 91 -183t34 -237z" />
    <glyph glyph-name="uni24B4" unicode="&#x24b4;" horiz-adv-x="1000" 
d="M318 -28l6 52q17 -5 33 -5q31 0 53.5 17t37.5 38t22 40t7 23q0 8 -6 27t-11 31q-42 88 -84.5 177.5t-84.5 177.5h73l150 -337l148 337h67l-187 -414q-14 -29 -29 -59t-35 -54q-21 -25 -48 -40.5t-64 -15.5q-14 0 -24.5 1.5t-20.5 3.5h-3zM40 300q0 128 34 237t91 183h30
q-46 -81 -73 -188t-27 -232t27 -232t73 -188h-30q-57 74 -91 183t-34 237zM960 300q0 -128 -34 -237t-91 -183h-30q46 81 73 188t27 232t-27 232t-73 188h30q57 -74 91 -183t34 -237z" />
    <glyph glyph-name="uni24B5" unicode="&#x24b5;" horiz-adv-x="1000" 
d="M316 132l296 326h-282v52h354q0 -17 0.5 -30t0.5 -30l-302 -328h310v-52h-376zM960 300q0 -128 -34 -237t-91 -183h-30q46 81 73 188t27 232t-27 232t-73 188h30q57 -74 91 -183t34 -237zM40 300q0 128 34 237t91 183h30q-46 -81 -73 -188t-27 -232t27 -232t73 -188h-30
q-57 74 -91 183t-34 237z" />
    <glyph glyph-name="uni24D0" unicode="&#x24d0;" horiz-adv-x="1000" 
d="M352 479q30 20 68.5 30.5t76.5 10.5q95 0 144 -39.5t49 -121.5v-169v-46.5t1 -27.5h-59l-2 61q-11 -12 -27.5 -24.5t-35.5 -21.5q-20 -10 -42 -16.5t-44 -6.5q-78 0 -121.5 29.5t-43.5 90.5q0 37 16.5 62t44.5 41q27 15 62.5 22t73.5 7l111 -2q-3 112 -139 112
q-29 0 -65 -13.5t-64 -31.5zM624 312q-12 1 -35 1.5t-44 0.5q-22 0 -50.5 -2.5t-53.5 -11.5t-42 -26t-17 -46q0 -17 9 -30t24 -22t34 -13.5t40 -4.5q28 0 53 8t43 23t28.5 35t10.5 44v44zM55 300q0 92 35 173t96 142q60 60 141 95t173 35t173 -35t142 -95q60 -61 95 -142
t35 -173t-35 -173t-95 -142q-61 -60 -142 -95t-173 -35t-173 35t-141 95q-61 61 -96 142t-35 173zM95 300q0 -84 32 -157.5t87 -128.5t128.5 -87t157.5 -32t157.5 32t128.5 87t87 128.5t32 157.5t-32 157.5t-87 128.5t-128.5 87t-157.5 32t-157.5 -32t-128.5 -87t-87 -128.5
t-32 -157.5z" />
    <glyph glyph-name="uni24D1" unicode="&#x24d1;" horiz-adv-x="1000" 
d="M664 218q0 29 -8 57t-24 50t-40 35.5t-57 13.5t-57 -13.5t-40 -34.5q-16 -22 -24 -50t-8 -58q0 -27 7.5 -54.5t23.5 -49.5q15 -23 39.5 -37.5t58.5 -14.5q32 0 56.5 15t40.5 38t24 50.5t8 52.5zM342 608h64v-258q26 32 61.5 53t81.5 21q43 0 76.5 -16t56.5 -44
t34.5 -64.5t11.5 -77.5q0 -40 -11 -78t-33 -67t-56 -47t-79 -18q-49 0 -86.5 22.5t-60.5 50.5v-28.5t1 -20.5q0 -5 0.5 -8.5t0.5 -7.5h-62v588zM55 300q0 92 35 173t96 142q60 60 141 95t173 35t173 -35t142 -95q60 -61 95 -142t35 -173t-35 -173t-95 -142q-61 -60 -142 -95
t-173 -35t-173 35t-141 95q-61 61 -96 142t-35 173zM95 300q0 -84 32 -157.5t87 -128.5t128.5 -87t157.5 -32t157.5 32t128.5 87t87 128.5t32 157.5t-32 157.5t-87 128.5t-128.5 87t-157.5 32t-157.5 -32t-128.5 -87t-87 -128.5t-32 -157.5z" />
    <glyph glyph-name="uni24D2" unicode="&#x24d2;" horiz-adv-x="1000" 
d="M639 445q-20 7 -43 13t-43 6q-85 0 -132 -39t-47 -117q0 -69 44 -112.5t135 -43.5q19 0 47 5.5t51 16.5q2 -15 3.5 -27.5t3.5 -26.5q-29 -11 -58 -14.5t-55 -3.5q-54 0 -98 14t-74 41q-31 27 -48 65t-17 86q0 103 63.5 154.5t173.5 51.5q27 0 55 -5.5t49 -12.5zM55 300
q0 92 35 173t96 142q60 60 141 95t173 35t173 -35t142 -95q60 -61 95 -142t35 -173t-35 -173t-95 -142q-61 -60 -142 -95t-173 -35t-173 35t-141 95q-61 61 -96 142t-35 173zM95 300q0 -84 32 -157.5t87 -128.5t128.5 -87t157.5 -32t157.5 32t128.5 87t87 128.5t32 157.5
t-32 157.5t-87 128.5t-128.5 87t-157.5 32t-157.5 -32t-128.5 -87t-87 -128.5t-32 -157.5z" />
    <glyph glyph-name="uni24D3" unicode="&#x24d3;" horiz-adv-x="1000" 
d="M356 218q0 -25 8 -52.5t24 -50.5t40.5 -38t56.5 -15q34 0 58.5 14.5t40.5 37.5q15 22 22.5 49.5t7.5 54.5q0 30 -8 58t-24 50q-16 21 -40 34.5t-57 13.5t-57 -13.5t-40 -35.5t-24 -50t-8 -57zM678 21q-17 1 -31.5 0.5t-30.5 0.5l2 58q-21 -30 -61.5 -49t-85.5 -19t-79 18
t-56 47t-33 67t-11 78q0 41 11.5 77.5t34.5 64.5t56 44t77 16q91 0 143 -69v253h64v-587zM55 300q0 92 35 173t96 142q60 60 141 95t173 35t173 -35t142 -95q60 -61 95 -142t35 -173t-35 -173t-95 -142q-61 -60 -142 -95t-173 -35t-173 35t-141 95q-61 61 -96 142t-35 173z
M95 300q0 -84 32 -157.5t87 -128.5t128.5 -87t157.5 -32t157.5 32t128.5 87t87 128.5t32 157.5t-32 157.5t-87 128.5t-128.5 87t-157.5 32t-157.5 -32t-128.5 -87t-87 -128.5t-32 -157.5z" />
    <glyph glyph-name="uni24D4" unicode="&#x24d4;" horiz-adv-x="1000" 
d="M654 132h-1q-30 -15 -66 -20.5t-69 -5.5q-109 0 -165 56.5t-56 153.5q0 44 14.5 81t41.5 64q26 27 63 42t82 15q51 0 87 -17t60 -46q23 -30 34 -70t12 -87h-329q3 -65 45.5 -103.5t110.5 -38.5q43 0 76.5 11.5t53.5 22.5zM626 344q-2 24 -11.5 46.5t-25.5 40.5
q-17 17 -40 27t-51 10q-32 0 -56 -11t-41 -29t-27 -40t-13 -44h265zM55 300q0 92 35 173t96 142q60 60 141 95t173 35t173 -35t142 -95q60 -61 95 -142t35 -173t-35 -173t-95 -142q-61 -60 -142 -95t-173 -35t-173 35t-141 95q-61 61 -96 142t-35 173zM95 300
q0 -84 32 -157.5t87 -128.5t128.5 -87t157.5 -32t157.5 32t128.5 87t87 128.5t32 157.5t-32 157.5t-87 128.5t-128.5 87t-157.5 32t-157.5 -32t-128.5 -87t-87 -128.5t-32 -157.5z" />
    <glyph glyph-name="uni24D5" unicode="&#x24d5;" horiz-adv-x="1000" 
d="M458 350h-108v52h108v43q0 36 5 64.5t20 48.5q14 19 39 29.5t65 10.5q14 0 29.5 -0.5t27.5 -2.5q-1 -14 -2 -25t-2 -25q-11 2 -22 2.5t-19 0.5q-26 0 -41 -6.5t-23 -18.5q-8 -13 -10 -30.5t-2 -39.5v-51h117v-52h-117v-344h-65v344zM55 300q0 92 35 173t96 142
q60 60 141 95t173 35t173 -35t142 -95q60 -61 95 -142t35 -173t-35 -173t-95 -142q-61 -60 -142 -95t-173 -35t-173 35t-141 95q-61 61 -96 142t-35 173zM95 300q0 -84 32 -157.5t87 -128.5t128.5 -87t157.5 -32t157.5 32t128.5 87t87 128.5t32 157.5t-32 157.5t-87 128.5
t-128.5 87t-157.5 32t-157.5 -32t-128.5 -87t-87 -128.5t-32 -157.5z" />
    <glyph glyph-name="uni24D6" unicode="&#x24d6;" horiz-adv-x="1000" 
d="M55 300q0 92 35 173t96 142q60 60 141 95t173 35t173 -35t142 -95q60 -61 95 -142t35 -173t-35 -173t-95 -142q-61 -60 -142 -95t-173 -35t-173 35t-141 95q-61 61 -96 142t-35 173zM95 300q0 -84 32 -157.5t87 -128.5t128.5 -87t157.5 -32t157.5 32t128.5 87t87 128.5
t32 157.5t-32 157.5t-87 128.5t-128.5 87t-157.5 32t-157.5 -32t-128.5 -87t-87 -128.5t-32 -157.5zM680 204q0 -91 -49 -138.5t-156 -47.5q-29 0 -63 4.5t-82 21.5l7 59q22 -10 40 -16.5t35 -10.5q16 -4 33 -6t38 -2q63 0 98 38t35 106l-1 33q-52 -67 -142 -67
q-88 0 -133.5 50.5t-45.5 131.5q0 40 11 75t33 61q22 25 56 39.5t79 14.5q49 0 86.5 -18.5t60.5 -46.5q0 16 -1 29.5t-1 27.5h62v-338zM358 364q0 -59 32.5 -97.5t96.5 -38.5t96.5 38t32.5 98q0 27 -7.5 51.5t-23.5 43.5q-16 18 -40.5 29.5t-57.5 11.5q-32 0 -56 -12
t-40 -31q-17 -19 -25 -43.5t-8 -49.5z" />
    <glyph glyph-name="uni24D7" unicode="&#x24d7;" horiz-adv-x="1000" 
d="M345 609h64l2 -254q30 40 65.5 55t73.5 15q75 0 120 -45t45 -125v-234h-64v202q0 152 -109 152q-33 0 -57.5 -13t-41.5 -36q-17 -24 -25.5 -56t-8.5 -70v-179h-64v588zM55 300q0 92 35 173t96 142q60 60 141 95t173 35t173 -35t142 -95q60 -61 95 -142t35 -173t-35 -173
t-95 -142q-61 -60 -142 -95t-173 -35t-173 35t-141 95q-61 61 -96 142t-35 173zM95 300q0 -84 32 -157.5t87 -128.5t128.5 -87t157.5 -32t157.5 32t128.5 87t87 128.5t32 157.5t-32 157.5t-87 128.5t-128.5 87t-157.5 32t-157.5 -32t-128.5 -87t-87 -128.5t-32 -157.5z" />
    <glyph glyph-name="uni24D8" unicode="&#x24d8;" horiz-adv-x="1000" 
d="M468 412h64v-396h-64v396zM537 507h-74v77h74v-77zM55 300q0 92 35 173t96 142q60 60 141 95t173 35t173 -35t142 -95q60 -61 95 -142t35 -173t-35 -173t-95 -142q-61 -60 -142 -95t-173 -35t-173 35t-141 95q-61 61 -96 142t-35 173zM95 300q0 -84 32 -157.5t87 -128.5
t128.5 -87t157.5 -32t157.5 32t128.5 87t87 128.5t32 157.5t-32 157.5t-87 128.5t-128.5 87t-157.5 32t-157.5 -32t-128.5 -87t-87 -128.5t-32 -157.5z" />
    <glyph glyph-name="uni24D9" unicode="&#x24d9;" horiz-adv-x="1000" 
d="M396 26q7 -2 14.5 -2h15.5q31 0 45.5 14t14.5 56v348h65v-340q0 -26 -4 -50.5t-16 -43.5q-12 -20 -34 -32t-59 -12q-9 0 -23.5 0.5t-25.5 2.5zM555 537h-74v77h74v-77zM55 300q0 92 35 173t96 142q60 60 141 95t173 35t173 -35t142 -95q60 -61 95 -142t35 -173t-35 -173
t-95 -142q-61 -60 -142 -95t-173 -35t-173 35t-141 95q-61 61 -96 142t-35 173zM95 300q0 -84 32 -157.5t87 -128.5t128.5 -87t157.5 -32t157.5 32t128.5 87t87 128.5t32 157.5t-32 157.5t-87 128.5t-128.5 87t-157.5 32t-157.5 -32t-128.5 -87t-87 -128.5t-32 -157.5z" />
    <glyph glyph-name="uni24DA" unicode="&#x24da;" horiz-adv-x="1000" 
d="M55 300q0 92 35 173t96 142q60 60 141 95t173 35t173 -35t142 -95q60 -61 95 -142t35 -173t-35 -173t-95 -142q-61 -60 -142 -95t-173 -35t-173 35t-141 95q-61 61 -96 142t-35 173zM95 300q0 -84 32 -157.5t87 -128.5t128.5 -87t157.5 -32t157.5 32t128.5 87t87 128.5
t32 157.5t-32 157.5t-87 128.5t-128.5 87t-157.5 32t-157.5 -32t-128.5 -87t-87 -128.5t-32 -157.5zM350 609h64v-588h-64v588zM614 417h81l-190 -178q53 -55 107.5 -109.5t107.5 -108.5h-83l-207 217z" />
    <glyph glyph-name="uni24DB" unicode="&#x24db;" horiz-adv-x="1000" 
d="M468 594h64v-588h-64v588zM55 300q0 92 35 173t96 142q60 60 141 95t173 35t173 -35t142 -95q60 -61 95 -142t35 -173t-35 -173t-95 -142q-61 -60 -142 -95t-173 -35t-173 35t-141 95q-61 61 -96 142t-35 173zM95 300q0 -84 32 -157.5t87 -128.5t128.5 -87t157.5 -32
t157.5 32t128.5 87t87 128.5t32 157.5t-32 157.5t-87 128.5t-128.5 87t-157.5 32t-157.5 -32t-128.5 -87t-87 -128.5t-32 -157.5z" />
    <glyph glyph-name="uni24DC" unicode="&#x24dc;" horiz-adv-x="1000" 
d="M207 502h61l2 -62q30 43 62.5 56.5t71.5 13.5q32 0 65.5 -17t55.5 -63q13 25 29 40.5t33 24.5q16 9 32 12t29 3q37 0 64.5 -12t45.5 -32q18 -21 26.5 -49t8.5 -61v-250h-64v234q0 19 -5 40.5t-15 39.5q-11 17 -28 28.5t-41 11.5q-31 0 -51.5 -14t-32.5 -36
q-13 -23 -18.5 -51.5t-5.5 -58.5v-194h-64v234q0 19 -4 40.5t-13 39.5q-10 17 -26 28.5t-41 11.5q-30 0 -51.5 -14t-34.5 -36q-13 -23 -19 -51.5t-6 -58.5v-194h-66v396zM55 300q0 92 35 173t96 142q60 60 141 95t173 35t173 -35t142 -95q60 -61 95 -142t35 -173t-35 -173
t-95 -142q-61 -60 -142 -95t-173 -35t-173 35t-141 95q-61 61 -96 142t-35 173zM95 300q0 -84 32 -157.5t87 -128.5t128.5 -87t157.5 -32t157.5 32t128.5 87t87 128.5t32 157.5t-32 157.5t-87 128.5t-128.5 87t-157.5 32t-157.5 -32t-128.5 -87t-87 -128.5t-32 -157.5z" />
    <glyph glyph-name="uni24DD" unicode="&#x24dd;" horiz-adv-x="1000" 
d="M322 502h62l2 -62q28 42 66 56t75 14q77 0 121 -45t44 -125v-234h-64v202q0 75 -28 113.5t-81 38.5q-34 0 -59 -12.5t-41 -34.5q-17 -23 -25 -55t-8 -70v-182h-64v396zM55 300q0 92 35 173t96 142q60 60 141 95t173 35t173 -35t142 -95q60 -61 95 -142t35 -173t-35 -173
t-95 -142q-61 -60 -142 -95t-173 -35t-173 35t-141 95q-61 61 -96 142t-35 173zM95 300q0 -84 32 -157.5t87 -128.5t128.5 -87t157.5 -32t157.5 32t128.5 87t87 128.5t32 157.5t-32 157.5t-87 128.5t-128.5 87t-157.5 32t-157.5 -32t-128.5 -87t-87 -128.5t-32 -157.5z" />
    <glyph glyph-name="uni24DE" unicode="&#x24de;" horiz-adv-x="1000" 
d="M295 312q0 44 14.5 82t41.5 66q26 27 64 42.5t85 15.5t85 -15.5t65 -42.5q26 -28 40.5 -66t14.5 -82q0 -42 -15 -79.5t-42 -65.5t-64.5 -44.5t-83.5 -16.5t-84 16.5t-65 44.5t-41.5 65.5t-14.5 79.5zM361 312q0 -29 8 -56.5t25 -49.5q17 -23 43 -36.5t63 -13.5
q36 0 62 13.5t44 36.5q17 22 25 49.5t8 56.5q0 30 -9.5 58t-26.5 50q-18 22 -44 35t-59 13t-59 -13t-43 -35q-18 -22 -27.5 -50t-9.5 -58zM55 300q0 92 35 173t96 142q60 60 141 95t173 35t173 -35t142 -95q60 -61 95 -142t35 -173t-35 -173t-95 -142q-61 -60 -142 -95
t-173 -35t-173 35t-141 95q-61 61 -96 142t-35 173zM95 300q0 -84 32 -157.5t87 -128.5t128.5 -87t157.5 -32t157.5 32t128.5 87t87 128.5t32 157.5t-32 157.5t-87 128.5t-128.5 87t-157.5 32t-157.5 -32t-128.5 -87t-87 -128.5t-32 -157.5z" />
    <glyph glyph-name="uni24DF" unicode="&#x24df;" horiz-adv-x="1000" 
d="M664 358q0 25 -8 50.5t-24 46.5q-17 21 -41 34t-56 13q-34 0 -58.5 -12.5t-39.5 -32.5q-16 -21 -23.5 -46.5t-7.5 -52.5q0 -30 8 -56t24 -45q16 -20 40 -31.5t57 -11.5t57 11.5t40 31.5t24 46t8 55zM342 544h62l-2 -54q24 25 63 43.5t84 18.5t79 -16t56 -43t33 -63
t11 -76q0 -41 -11.5 -75.5t-34.5 -59.5q-23 -26 -56.5 -40.5t-76.5 -14.5q-91 0 -143 66v-214h-64v528zM55 300q0 92 35 173t96 142q60 60 141 95t173 35t173 -35t142 -95q60 -61 95 -142t35 -173t-35 -173t-95 -142q-61 -60 -142 -95t-173 -35t-173 35t-141 95
q-61 61 -96 142t-35 173zM95 300q0 -84 32 -157.5t87 -128.5t128.5 -87t157.5 -32t157.5 32t128.5 87t87 128.5t32 157.5t-32 157.5t-87 128.5t-128.5 87t-157.5 32t-157.5 -32t-128.5 -87t-87 -128.5t-32 -157.5z" />
    <glyph glyph-name="uni24E0" unicode="&#x24e0;" horiz-adv-x="1000" 
d="M356 358q0 -29 8 -55t24 -46t40 -31.5t57 -11.5t57 11.5t40 31.5q16 19 24 45t8 56q0 27 -7.5 52.5t-22.5 46.5q-16 20 -40.5 32.5t-58.5 12.5q-32 0 -56.5 -13t-40.5 -34t-24 -46.5t-8 -50.5zM678 16h-64v214q-52 -66 -143 -66q-44 0 -77 14.5t-56 40.5
q-23 25 -34.5 59.5t-11.5 75.5q0 40 11 76t33 63t56 43t79 16q49 0 86.5 -17t60.5 -45q0 6 -0.5 19t-0.5 19q-1 5 -1 8v8h62v-528zM55 300q0 92 35 173t96 142q60 60 141 95t173 35t173 -35t142 -95q60 -61 95 -142t35 -173t-35 -173t-95 -142q-61 -60 -142 -95t-173 -35
t-173 35t-141 95q-61 61 -96 142t-35 173zM95 300q0 -84 32 -157.5t87 -128.5t128.5 -87t157.5 -32t157.5 32t128.5 87t87 128.5t32 157.5t-32 157.5t-87 128.5t-128.5 87t-157.5 32t-157.5 -32t-128.5 -87t-87 -128.5t-32 -157.5z" />
    <glyph glyph-name="uni24E1" unicode="&#x24e1;" horiz-adv-x="1000" 
d="M397 492h62l1 -67q26 40 66.5 57.5t75.5 17.5q17 0 37.5 -3.5t34.5 -7.5q-2 -17 -5 -31.5t-5 -29.5q-13 5 -30 8.5t-28 3.5q-30 0 -56.5 -11t-45.5 -32q-20 -21 -31 -52t-11 -71v-178h-65v396zM55 300q0 92 35 173t96 142q60 60 141 95t173 35t173 -35t142 -95
q60 -61 95 -142t35 -173t-35 -173t-95 -142q-61 -60 -142 -95t-173 -35t-173 35t-141 95q-61 61 -96 142t-35 173zM95 300q0 -84 32 -157.5t87 -128.5t128.5 -87t157.5 -32t157.5 32t128.5 87t87 128.5t32 157.5t-32 157.5t-87 128.5t-128.5 87t-157.5 32t-157.5 -32
t-128.5 -87t-87 -128.5t-32 -157.5z" />
    <glyph glyph-name="uni24E2" unicode="&#x24e2;" horiz-adv-x="1000" 
d="M363 185q30 -13 65 -19.5t53 -6.5q16 0 34 2.5t34 9.5q15 7 25 18.5t10 29.5q0 12 -8.5 23t-21.5 21q-14 9 -31.5 17t-34.5 16q-20 8 -43.5 18.5t-42.5 23.5q-20 13 -33 30t-13 39q0 30 13 52t36 36q22 13 52 19.5t64 6.5q27 0 57 -4t56 -11q-2 -15 -3.5 -28t-3.5 -27
q-11 4 -25 7.5t-29 6.5t-29.5 4.5t-26.5 1.5q-19 0 -36.5 -2.5t-30.5 -8.5t-20.5 -16t-7.5 -25q0 -14 8 -24t21 -18q13 -9 29 -16t32 -13q22 -8 46.5 -18t44.5 -25t33.5 -35t13.5 -47q0 -31 -13 -53t-34 -35q-22 -14 -50.5 -20t-59.5 -6q-14 0 -31 1t-35 4q-18 2 -35 6
t-32 9zM55 300q0 92 35 173t96 142q60 60 141 95t173 35t173 -35t142 -95q60 -61 95 -142t35 -173t-35 -173t-95 -142q-61 -60 -142 -95t-173 -35t-173 35t-141 95q-61 61 -96 142t-35 173zM95 300q0 -84 32 -157.5t87 -128.5t128.5 -87t157.5 -32t157.5 32t128.5 87
t87 128.5t32 157.5t-32 157.5t-87 128.5t-128.5 87t-157.5 32t-157.5 -32t-128.5 -87t-87 -128.5t-32 -157.5z" />
    <glyph glyph-name="uni24E3" unicode="&#x24e3;" horiz-adv-x="1000" 
d="M632 387h-118v-220q0 -43 22.5 -60.5t57.5 -17.5q26 0 46 10v-51q-12 -4 -26.5 -7.5t-31.5 -3.5q-28 0 -52 7t-42 21t-28 35.5t-10 50.5v236h-94v50h94v119h64v-119h118v-50zM55 300q0 92 35 173t96 142q60 60 141 95t173 35t173 -35t142 -95q60 -61 95 -142t35 -173
t-35 -173t-95 -142q-61 -60 -142 -95t-173 -35t-173 35t-141 95q-61 61 -96 142t-35 173zM95 300q0 -84 32 -157.5t87 -128.5t128.5 -87t157.5 -32t157.5 32t128.5 87t87 128.5t32 157.5t-32 157.5t-87 128.5t-128.5 87t-157.5 32t-157.5 -32t-128.5 -87t-87 -128.5
t-32 -157.5z" />
    <glyph glyph-name="uni24E4" unicode="&#x24e4;" horiz-adv-x="1000" 
d="M687 106h-62l-2 59q-28 -42 -66 -54.5t-75 -12.5q-77 0 -121 45t-44 125v234h64v-202q0 -75 28 -113.5t81 -38.5q68 0 100.5 47.5t32.5 124.5v182h64v-396zM55 300q0 92 35 173t96 142q60 60 141 95t173 35t173 -35t142 -95q60 -61 95 -142t35 -173t-35 -173t-95 -142
q-61 -60 -142 -95t-173 -35t-173 35t-141 95q-61 61 -96 142t-35 173zM95 300q0 -84 32 -157.5t87 -128.5t128.5 -87t157.5 -32t157.5 32t128.5 87t87 128.5t32 157.5t-32 157.5t-87 128.5t-128.5 87t-157.5 32t-157.5 -32t-128.5 -87t-87 -128.5t-32 -157.5z" />
    <glyph glyph-name="uni24E5" unicode="&#x24e5;" horiz-adv-x="1000" 
d="M55 300q0 92 35 173t96 142q60 60 141 95t173 35t173 -35t142 -95q60 -61 95 -142t35 -173t-35 -173t-95 -142q-61 -60 -142 -95t-173 -35t-173 35t-141 95q-61 61 -96 142t-35 173zM95 300q0 -84 32 -157.5t87 -128.5t128.5 -87t157.5 -32t157.5 32t128.5 87t87 128.5
t32 157.5t-32 157.5t-87 128.5t-128.5 87t-157.5 32t-157.5 -32t-128.5 -87t-87 -128.5t-32 -157.5zM544 96h-84l-158 396h69l133 -347l132 347h64z" />
    <glyph glyph-name="uni24E6" unicode="&#x24e6;" horiz-adv-x="1000" 
d="M678 96h-78l-102 349q-28 -89 -50 -175t-48 -174h-78q-30 102 -60 198t-60 198h68l92 -342q28 89 49 172t47 170h88l95 -342q26 89 48 171.5t47 170.5h62zM55 300q0 92 35 173t96 142q60 60 141 95t173 35t173 -35t142 -95q60 -61 95 -142t35 -173t-35 -173t-95 -142
q-61 -60 -142 -95t-173 -35t-173 35t-141 95q-61 61 -96 142t-35 173zM95 300q0 -84 32 -157.5t87 -128.5t128.5 -87t157.5 -32t157.5 32t128.5 87t87 128.5t32 157.5t-32 157.5t-87 128.5t-128.5 87t-157.5 32t-157.5 -32t-128.5 -87t-87 -128.5t-32 -157.5z" />
    <glyph glyph-name="uni24E7" unicode="&#x24e7;" horiz-adv-x="1000" 
d="M469 310q-35 47 -71.5 95.5t-71.5 96.5h71l105 -146q27 36 54 73.5t55 72.5h64l-144 -188q38 -51 77.5 -104t77.5 -104h-71l-117 162q-31 -41 -61 -81.5t-60 -80.5h-63zM55 300q0 92 35 173t96 142q60 60 141 95t173 35t173 -35t142 -95q60 -61 95 -142t35 -173t-35 -173
t-95 -142q-61 -60 -142 -95t-173 -35t-173 35t-141 95q-61 61 -96 142t-35 173zM95 300q0 -84 32 -157.5t87 -128.5t128.5 -87t157.5 -32t157.5 32t128.5 87t87 128.5t32 157.5t-32 157.5t-87 128.5t-128.5 87t-157.5 32t-157.5 -32t-128.5 -87t-87 -128.5t-32 -157.5z" />
    <glyph glyph-name="uni24E8" unicode="&#x24e8;" horiz-adv-x="1000" 
d="M392 20q-14 0 -24.5 1.5t-19.5 3.5l6 50q13 -3 30 -3q27 0 47 14.5t33 33.5q13 18 19 34.5t6 19.5q0 7 -5 23t-10 27q-38 79 -76 159.5t-76 160.5h70l132 -296q32 75 64.5 148t65.5 148h64l-162 -360q-11 -24 -23.5 -52.5t-30.5 -53.5q-19 -25 -45 -41.5t-65 -16.5z
M55 300q0 92 35 173t96 142q60 60 141 95t173 35t173 -35t142 -95q60 -61 95 -142t35 -173t-35 -173t-95 -142q-61 -60 -142 -95t-173 -35t-173 35t-141 95q-61 61 -96 142t-35 173zM95 300q0 -84 32 -157.5t87 -128.5t128.5 -87t157.5 -32t157.5 32t128.5 87t87 128.5
t32 157.5t-32 157.5t-87 128.5t-128.5 87t-157.5 32t-157.5 -32t-128.5 -87t-87 -128.5t-32 -157.5z" />
    <glyph glyph-name="uni24E9" unicode="&#x24e9;" horiz-adv-x="1000" 
d="M335 166l259 284h-247v52h318v-61l-263 -283h271v-52h-338v60zM55 300q0 92 35 173t96 142q60 60 141 95t173 35t173 -35t142 -95q60 -61 95 -142t35 -173t-35 -173t-95 -142q-61 -60 -142 -95t-173 -35t-173 35t-141 95q-61 61 -96 142t-35 173zM95 300q0 -84 32 -157.5
t87 -128.5t128.5 -87t157.5 -32t157.5 32t128.5 87t87 128.5t32 157.5t-32 157.5t-87 128.5t-128.5 87t-157.5 32t-157.5 -32t-128.5 -87t-87 -128.5t-32 -157.5z" />
    <glyph glyph-name="SF100000" unicode="&#x2500;" horiz-adv-x="940" 
d="M0 280v40h940v-40h-940z" />
    <glyph glyph-name="uni2501" unicode="&#x2501;" horiz-adv-x="940" 
d="M940 340v-80h-940v80h940z" />
    <glyph glyph-name="SF110000" unicode="&#x2502;" horiz-adv-x="940" 
d="M450 800h40v-1000h-40v1000z" />
    <glyph glyph-name="uni2503" unicode="&#x2503;" horiz-adv-x="940" 
d="M430 800h80v-1000h-80v1000z" />
    <glyph glyph-name="SF010000" unicode="&#x250c;" horiz-adv-x="940" 
d="M450 320h490v-40h-450v-480h-40v520z" />
    <glyph glyph-name="uni250D" unicode="&#x250d;" horiz-adv-x="940" 
d="M450 340h490v-80h-450v-460h-40v540z" />
    <glyph glyph-name="uni250E" unicode="&#x250e;" horiz-adv-x="940" 
d="M510 -200h-80v520h510v-40h-430v-480z" />
    <glyph glyph-name="uni250F" unicode="&#x250f;" horiz-adv-x="940" 
d="M430 340h510v-80h-430v-460h-80v540z" />
    <glyph glyph-name="SF030000" unicode="&#x2510;" horiz-adv-x="940" 
d="M450 280h-450v40h490v-520h-40v480z" />
    <glyph glyph-name="uni2511" unicode="&#x2511;" horiz-adv-x="940" 
d="M450 260h-450v80h490v-540h-40v460z" />
    <glyph glyph-name="uni2512" unicode="&#x2512;" horiz-adv-x="940" 
d="M430 280h-430v40h510v-520h-80v480z" />
    <glyph glyph-name="uni2513" unicode="&#x2513;" horiz-adv-x="940" 
d="M430 260h-430v80h510v-540h-80v460z" />
    <glyph glyph-name="SF020000" unicode="&#x2514;" horiz-adv-x="940" 
d="M450 280v520h40v-480h450v-40h-490z" />
    <glyph glyph-name="uni2515" unicode="&#x2515;" horiz-adv-x="940" 
d="M450 260v540h40v-460h450v-80h-490z" />
    <glyph glyph-name="uni2516" unicode="&#x2516;" horiz-adv-x="940" 
d="M430 800h80v-480h430v-40h-510v520z" />
    <glyph glyph-name="uni2517" unicode="&#x2517;" horiz-adv-x="940" 
d="M430 260v540h80v-460h430v-80h-510z" />
    <glyph glyph-name="SF040000" unicode="&#x2518;" horiz-adv-x="940" 
d="M0 280v40h450v480h40v-520h-490z" />
    <glyph glyph-name="uni2519" unicode="&#x2519;" horiz-adv-x="940" 
d="M490 260h-490v80h450v460h40v-540z" />
    <glyph glyph-name="uni251A" unicode="&#x251a;" horiz-adv-x="940" 
d="M430 320v480h80v-520h-510v40h430z" />
    <glyph glyph-name="uni251B" unicode="&#x251b;" horiz-adv-x="940" 
d="M0 260v80h430v460h80v-540h-510z" />
    <glyph glyph-name="SF080000" unicode="&#x251c;" horiz-adv-x="940" 
d="M450 800h40v-480h450v-40h-450v-480h-40v1000z" />
    <glyph glyph-name="uni251D" unicode="&#x251d;" horiz-adv-x="940" 
d="M450 800h40v-460h450v-80h-450v-460h-40v1000z" />
    <glyph glyph-name="uni251E" unicode="&#x251e;" horiz-adv-x="940" 
d="M490 280v-480h-40v480h-20v520h80v-480h430v-40h-450z" />
    <glyph glyph-name="uni251F" unicode="&#x251f;" horiz-adv-x="940" 
d="M940 320v-40h-430v-480h-80v520h20v480h40v-480h450z" />
    <glyph glyph-name="uni2520" unicode="&#x2520;" horiz-adv-x="940" 
d="M430 800h80v-480h430v-40h-430v-480h-80v1000z" />
    <glyph glyph-name="uni2521" unicode="&#x2521;" horiz-adv-x="940" 
d="M430 800h80v-460h430v-80h-450v-460h-40v460h-20v540z" />
    <glyph glyph-name="uni2522" unicode="&#x2522;" horiz-adv-x="940" 
d="M430 340h20v460h40v-460h450v-80h-430v-460h-80v540z" />
    <glyph glyph-name="uni2523" unicode="&#x2523;" horiz-adv-x="940" 
d="M430 800h80v-460h430v-80h-430v-460h-80v1000z" />
    <glyph glyph-name="SF090000" unicode="&#x2524;" horiz-adv-x="940" 
d="M450 280h-450v40h450v480h40v-1000h-40v480z" />
    <glyph glyph-name="uni2525" unicode="&#x2525;" horiz-adv-x="940" 
d="M450 260h-450v80h450v460h40v-1000h-40v460z" />
    <glyph glyph-name="uni2526" unicode="&#x2526;" horiz-adv-x="940" 
d="M0 280v40h430v480h80v-520h-20v-480h-40v480h-450z" />
    <glyph glyph-name="uni2527" unicode="&#x2527;" horiz-adv-x="940" 
d="M450 320v480h40v-480h20v-520h-80v480h-430v40h450z" />
    <glyph glyph-name="uni2528" unicode="&#x2528;" horiz-adv-x="940" 
d="M430 280h-430v40h430v480h80v-1000h-80v480z" />
    <glyph glyph-name="uni2529" unicode="&#x2529;" horiz-adv-x="940" 
d="M510 260h-20v-460h-40v460h-450v80h430v460h80v-540z" />
    <glyph glyph-name="uni252A" unicode="&#x252a;" horiz-adv-x="940" 
d="M510 -200h-80v460h-430v80h450v460h40v-460h20v-540z" />
    <glyph glyph-name="uni252B" unicode="&#x252b;" horiz-adv-x="940" 
d="M430 260h-430v80h430v460h80v-1000h-80v460z" />
    <glyph glyph-name="SF060000" unicode="&#x252c;" horiz-adv-x="940" 
d="M450 280h-450v40h940v-40h-450v-480h-40v480z" />
    <glyph glyph-name="uni252D" unicode="&#x252d;" horiz-adv-x="940" 
d="M490 320h450v-40h-450v-480h-40v460h-450v80h490v-20z" />
    <glyph glyph-name="uni252E" unicode="&#x252e;" horiz-adv-x="940" 
d="M450 340h490v-80h-450v-460h-40v480h-450v40h450v20z" />
    <glyph glyph-name="uni252F" unicode="&#x252f;" horiz-adv-x="940" 
d="M450 260h-450v80h940v-80h-450v-460h-40v460z" />
    <glyph glyph-name="uni2530" unicode="&#x2530;" horiz-adv-x="940" 
d="M940 320v-40h-430v-480h-80v480h-430v40h940z" />
    <glyph glyph-name="uni2531" unicode="&#x2531;" horiz-adv-x="940" 
d="M510 -200h-80v460h-430v80h510v-20h430v-40h-430v-480z" />
    <glyph glyph-name="uni2532" unicode="&#x2532;" horiz-adv-x="940" 
d="M430 280h-430v40h430v20h510v-80h-430v-460h-80v480z" />
    <glyph glyph-name="uni2533" unicode="&#x2533;" horiz-adv-x="940" 
d="M430 260h-430v80h940v-80h-430v-460h-80v460z" />
    <glyph glyph-name="SF070000" unicode="&#x2534;" horiz-adv-x="940" 
d="M0 280v40h450v480h40v-480h450v-40h-940z" />
    <glyph glyph-name="uni2535" unicode="&#x2535;" horiz-adv-x="940" 
d="M490 260h-490v80h450v460h40v-480h450v-40h-450v-20z" />
    <glyph glyph-name="uni2536" unicode="&#x2536;" horiz-adv-x="940" 
d="M450 280h-450v40h450v480h40v-460h450v-80h-490v20z" />
    <glyph glyph-name="uni2537" unicode="&#x2537;" horiz-adv-x="940" 
d="M0 260v80h450v460h40v-460h450v-80h-940z" />
    <glyph glyph-name="uni2538" unicode="&#x2538;" horiz-adv-x="940" 
d="M430 320v480h80v-480h430v-40h-940v40h430z" />
    <glyph glyph-name="uni2539" unicode="&#x2539;" horiz-adv-x="940" 
d="M510 320h430v-40h-430v-20h-510v80h430v460h80v-480z" />
    <glyph glyph-name="uni253A" unicode="&#x253a;" horiz-adv-x="940" 
d="M430 800h80v-460h430v-80h-510v20h-430v40h430v480z" />
    <glyph glyph-name="uni253B" unicode="&#x253b;" horiz-adv-x="940" 
d="M0 260v80h430v460h80v-460h430v-80h-940z" />
    <glyph glyph-name="SF050000" unicode="&#x253c;" horiz-adv-x="940" 
d="M450 280h-450v40h450v480h40v-480h450v-40h-450v-480h-40v480z" />
    <glyph glyph-name="uni253D" unicode="&#x253d;" horiz-adv-x="940" 
d="M450 260h-450v80h450v460h40v-480h450v-40h-450v-480h-40v460z" />
    <glyph glyph-name="uni253E" unicode="&#x253e;" horiz-adv-x="940" 
d="M450 280h-450v40h450v480h40v-460h450v-80h-450v-460h-40v480z" />
    <glyph glyph-name="uni253F" unicode="&#x253f;" horiz-adv-x="940" 
d="M450 260h-450v80h450v460h40v-460h450v-80h-450v-460h-40v460z" />
    <glyph glyph-name="uni2540" unicode="&#x2540;" horiz-adv-x="940" 
d="M430 320v480h80v-480h430v-40h-450v-480h-40v480h-450v40h430z" />
    <glyph glyph-name="uni2541" unicode="&#x2541;" horiz-adv-x="940" 
d="M450 320v480h40v-480h450v-40h-430v-480h-80v480h-430v40h450z" />
    <glyph glyph-name="uni2542" unicode="&#x2542;" horiz-adv-x="940" 
d="M430 320v480h80v-480h430v-40h-430v-480h-80v480h-430v40h430z" />
    <glyph glyph-name="uni2543" unicode="&#x2543;" horiz-adv-x="940" 
d="M510 320h430v-40h-450v-480h-40v460h-450v80h430v460h80v-480z" />
    <glyph glyph-name="uni2544" unicode="&#x2544;" horiz-adv-x="940" 
d="M430 800h80v-460h430v-80h-450v-460h-40v480h-450v40h430v480z" />
    </font>
</defs>
</svg>
